<svg width="1249" height="843" viewBox="0 0 1249 843" fill="none" xmlns="http://www.w3.org/2000/svg">
<path d="M0.932678 342.476L106.791 338.214L106.692 338.261L355.057 53.7234L355.269 53.48L355.546 53.6444L744.604 283.91L744.119 283.925L905.271 174.907L905.503 174.751L905.715 174.933L1080.44 325.178L1080.16 325.136L1265 245.853L1080.36 325.63L1080.22 325.694L1080.09 325.587L905.238 175.504L905.681 175.529L744.627 284.697L744.39 284.858L744.143 284.712L355.152 54.3282L355.641 54.2492L106.902 338.45L106.862 338.495L106.802 338.497L0.932678 342.476Z" fill="#032571"/>
<path d="M1.0686 351.903L104.311 344.848L104.217 344.894L350.32 65.4737L350.52 65.2462L350.79 65.3852L450.482 117.201L500.33 143.11L512.791 149.587L524.862 156.784L548.984 171.213L741.889 286.779L741.428 286.778L903.499 190.807L903.723 190.675L903.921 190.843L925.199 208.927L927.859 211.188L930.643 213.291L936.22 217.483L947.374 225.869L991.992 259.413L1036.61 292.958C1040.39 295.665 1043.87 298.773 1047.46 301.736L1058.17 310.701L1079.59 328.633L1079.33 328.589L1264.92 259.648L1079.52 329.091L1079.37 329.145L1079.26 329.047L1057.82 311.141L1047.11 302.187C1043.52 299.229 1040.04 296.127 1036.25 293.422L991.601 259.918L946.952 226.414L935.789 218.039L930.208 213.85L927.422 211.751L924.758 209.491L903.449 191.415L903.87 191.452L741.888 287.575L741.657 287.712L741.426 287.574L548.503 172.09L524.396 157.639L512.333 150.431L499.88 143.943L450.064 117.993L350.432 66.0913L350.903 66.0027L104.423 345.082L104.386 345.125L104.329 345.128L1.0686 351.903" fill="#032571"/>
<path d="M1.2049 361.329L101.83 351.483L101.741 351.528L345.582 77.2241L345.772 77.0102L346.03 77.1272L509.547 150.57L509.574 150.582L509.599 150.597L739.173 289.647L738.739 289.631L901.729 206.707L901.943 206.598L902.126 206.753L926.436 227.174L926.4 227.147L1038.73 299.468L1038.74 299.477L1038.75 299.487L1078.75 332.087L1078.51 332.041L1264.83 273.445L1078.67 332.554L1078.53 332.596L1078.42 332.507L1038.39 299.945L1038.42 299.964L926.022 227.75L926.004 227.739L925.986 227.724L901.659 207.325L902.058 207.372L739.145 290.451L738.923 290.565L738.709 290.436L509.112 151.424L509.163 151.45L345.714 77.8511L346.162 77.7552L101.945 351.715L101.909 351.755L101.856 351.761L1.2049 361.329" fill="#032571"/>
<path d="M1.34076 370.756L99.3486 358.117L99.265 358.161L340.846 88.9744L341.023 88.7763L341.271 88.8701L506.016 151.407L506.057 151.423L506.095 151.445L736.459 292.515L736.051 292.485L899.96 222.608L900.163 222.521L900.333 222.663L924.909 243.073L924.851 243.034L1037.23 303.263L1037.26 303.276L1037.28 303.291L1077.92 335.542L1077.68 335.494L1264.75 287.241L1077.81 336.015L1077.68 336.048L1077.59 335.967L1036.92 303.755L1036.96 303.783L924.524 243.663L924.492 243.646L924.465 243.624L899.87 223.237L900.243 223.292L736.401 293.328L736.19 293.419L735.993 293.298L505.605 152.268L505.684 152.307L340.998 89.612L341.422 89.5076L99.4664 358.348L99.4321 358.386L99.3824 358.392L1.34076 370.756" fill="#032571"/>
<path d="M1.47748 380.182L96.8669 364.752L96.7894 364.795L336.109 100.725L336.276 100.541L336.51 100.614L502.483 152.245L502.54 152.263L502.591 152.294L733.744 295.382L733.366 295.34L898.192 238.509L898.383 238.444L898.54 238.572L923.384 258.972L923.3 258.921L1035.74 307.06L1035.77 307.074L1035.8 307.096L1077.07 338.998L1076.86 338.948L1264.67 301.036L1076.97 339.476L1076.85 339.5L1076.75 339.427L1035.45 307.565L1035.51 307.602L923.028 259.574L922.983 259.555L922.944 259.524L898.08 239.149L898.427 239.211L733.656 296.204L733.457 296.272L733.276 296.161L502.099 153.113L502.206 153.163L336.281 101.37L336.682 101.259L96.9874 364.98L96.9553 365.015L96.9092 365.023L1.47748 380.182Z" fill="#032571"/>
<path d="M1.61298 389.609L94.3858 371.388L94.3134 371.428L331.373 112.475L331.528 112.307L331.748 112.36L498.951 153.085L499.024 153.103L499.087 153.144L731.03 298.25L730.682 298.197L896.426 254.412L896.604 254.366L896.746 254.482L921.858 274.871L921.745 274.81L1034.24 310.856L1034.28 310.872L1034.32 310.902L1076.23 342.453L1076.04 342.403L1264.59 314.833L1076.11 342.937L1076.01 342.952L1075.91 342.886L1033.98 311.377L1034.06 311.421L921.536 275.485L921.473 275.466L921.423 275.424L896.29 255.059L896.611 255.129L730.909 299.077L730.722 299.127L730.56 299.024L498.592 153.957L498.729 154.015L331.567 113.125L331.941 113.012L94.5089 371.612L94.4793 371.645L94.4365 371.653L1.61298 389.609" fill="#032571"/>
<path d="M1.74969 399.036L91.9044 378.023L91.8381 378.062L326.638 124.227L326.78 124.073L326.986 124.109L495.415 153.928L495.506 153.943L495.584 153.992L728.316 301.116L727.998 301.054L894.661 270.316L894.824 270.287L894.953 270.39L920.333 290.77L920.188 290.701L1032.73 314.656L1032.8 314.67L1032.85 314.706L1075.4 345.908L1075.21 345.858L1264.5 328.629L1075.26 346.396L1075.17 346.406L1075.08 346.345L1032.5 315.186L1032.62 315.237L920.046 291.393L919.965 291.377L919.901 291.325L894.501 270.971L894.791 271.045L728.159 301.95L727.99 301.982L727.842 301.888L495.086 154.801L495.254 154.866L326.853 124.88L327.201 124.763L92.03 378.245L92.0024 378.274L91.9633 378.284L1.74969 399.036" fill="#032571"/>
<path d="M1.88556 408.462L89.4234 384.66L89.3629 384.696L321.902 135.978L322.033 135.838L322.223 135.859L491.881 154.772L491.988 154.783L492.079 154.841L725.602 303.983L725.316 303.914L892.897 286.223L893.044 286.207L893.161 286.3L918.809 306.668L918.629 306.595L1031.23 318.458L1031.31 318.466L1031.37 318.511L1074.55 349.362L1074.39 349.314L1264.42 342.425L1074.41 349.854L1074.32 349.859L1074.25 349.806L1031.03 318.998L1031.17 319.049L918.558 307.299L918.459 307.288L918.378 307.226L892.711 286.883L892.973 286.96L725.41 304.82L725.255 304.837L725.124 304.753L491.581 155.645L491.778 155.715L322.139 136.633L322.459 136.514L89.5506 384.877L89.5255 384.904L89.4901 384.914L1.88556 408.462" fill="#032571"/>
<path d="M2.02185 417.889L86.942 391.295L86.888 391.33L317.168 147.73L317.287 147.603L317.46 147.611L488.346 155.619L488.47 155.624L488.575 155.692L722.888 306.847L722.634 306.776L891.133 302.13L891.264 302.127L891.367 302.207L917.284 322.566L917.069 322.492L1029.72 322.263H1029.82L1029.89 322.316L1073.71 352.818L1073.56 352.77L1264.34 356.221L1073.55 353.313L1073.48 353.312L1073.41 353.265L1029.56 322.808L1029.73 322.86L917.071 323.201H916.951L916.856 323.127L890.919 302.796L891.153 302.873L722.66 307.689L722.522 307.693L722.406 307.618L488.075 156.488L488.303 156.562L317.424 148.383L317.717 148.265L87.0717 391.509L87.0486 391.533L87.0173 391.543L2.02185 417.889" fill="#032571"/>
<path d="M2.15778 427.316L84.461 397.933L84.4128 397.964L312.433 159.482L312.541 159.368L312.699 159.365L484.812 156.467L484.953 156.465L485.07 156.542L720.175 309.712L719.954 309.64L889.37 318.04L889.485 318.045L889.575 318.117L915.76 338.462L915.509 338.392L1028.22 326.072L1028.32 326.061L1028.41 326.121L1072.87 356.273L1072.74 356.227L1264.25 370.018L1072.71 356.77L1072.64 356.765L1072.57 356.725L1028.09 326.618L1028.28 326.667L915.585 339.1L915.446 339.115L915.334 339.028L889.128 318.709L889.334 318.785L719.909 310.556L719.789 310.55L719.688 310.483L484.57 157.331L484.827 157.406L312.71 160.131L312.975 160.016L84.5924 398.141L84.5718 398.162L84.5438 398.172L2.15778 427.316" fill="#032571"/>
<path d="M2.29407 436.742L81.98 404.569L81.9375 404.598L307.7 171.234L307.797 171.133L307.937 171.122L481.279 157.319L481.434 157.306L481.564 157.392L717.463 312.576L717.272 312.505L887.605 333.951L887.704 333.963L887.783 334.024L914.237 354.36L913.95 354.295L1026.71 329.884L1026.83 329.857L1026.94 329.926L1072.03 359.728L1071.92 359.686L1264.18 383.814L1071.86 360.228L1071.79 360.219L1071.74 360.185L1026.61 330.429L1026.84 330.47L914.097 354.995L913.939 355.03L913.811 354.93L887.337 334.621L887.516 334.694L717.16 313.421L717.056 313.407L716.968 313.349L481.065 158.174L481.35 158.248L307.995 171.878L308.233 171.766L82.1131 404.773L82.0949 404.792L82.0706 404.801L2.29407 436.742" fill="#032571"/>
<path d="M2.42993 446.169L79.499 411.207L79.4632 411.232L302.965 182.987L303.053 182.897L303.177 182.879L477.747 158.171L477.916 158.148L478.059 158.243L714.75 315.44L714.589 315.373L885.841 349.864L885.924 349.88L885.991 349.931L912.712 370.257L912.392 370.201L1025.21 333.698L1025.34 333.656L1025.46 333.731L1071.19 363.183L1071.1 363.144L1264.09 397.609L1071 363.683L1070.95 363.674L1070.91 363.645L1025.14 334.238L1025.39 334.271L912.608 370.887L912.434 370.944L912.288 370.833L885.547 350.534L885.697 350.603L714.412 316.283L714.325 316.266L714.25 316.217L477.56 159.017L477.873 159.088L303.279 183.622L303.489 183.516L79.6332 411.404L79.6176 411.421L79.5965 411.429L2.42993 446.169" fill="#032571"/>
<path d="M2.56622 455.595L77.0183 417.845L76.9879 417.867L298.232 194.739L298.309 194.66L298.418 194.639L474.216 159.026L474.398 158.989L474.554 159.093L712.039 318.303L711.905 318.242L884.075 365.778L884.143 365.797L884.2 365.839L911.189 386.153L910.837 386.111L1023.71 337.515L1023.85 337.454L1023.98 337.536L1070.35 366.639L1070.27 366.604L1264.01 411.406L1070.15 367.139L1070.11 367.129L1070.06 367.104L1023.67 338.048L1023.94 338.069L911.116 386.778L910.929 386.859L910.764 386.735L883.754 366.448L883.879 366.509L711.664 319.145L711.592 319.125L711.53 319.084L474.056 159.86L474.393 159.927L298.561 195.365L298.747 195.266L77.1539 418.036L77.1407 418.05L77.1233 418.058L2.56622 455.595" fill="#032571"/>
<path d="M2.70251 465.022L74.5374 424.482L74.5135 424.501L293.498 206.492L293.566 206.424L293.66 206.4L470.686 159.882L470.881 159.831L471.049 159.945L709.327 321.166L709.22 321.112L882.308 381.693L882.362 381.712L882.408 381.746L909.666 402.05L909.285 402.021L1022.21 341.333L1022.36 341.254L1022.5 341.341L1069.52 370.093L1069.44 370.064L1263.92 425.202L1069.3 370.593L1069.26 370.584L1069.23 370.564L1022.2 341.859L1022.49 341.867L909.621 402.666L909.422 402.774L909.241 402.638L881.963 382.362L882.063 382.414L708.918 322.005L708.861 321.985L708.81 321.951L470.55 160.702L470.912 160.763L382.377 183.936L293.842 207.108L294.003 207.016L74.6745 424.668L74.663 424.679L74.6498 424.687L2.70251 465.022Z" fill="#032571"/>
<path d="M2.83881 474.449L72.0576 431.12L72.0382 431.135L288.765 218.245L288.825 218.187L288.905 218.161L467.16 160.739L467.365 160.674L467.543 160.795L706.615 324.028L706.533 323.984L880.539 397.609L880.58 397.626L880.617 397.654L908.142 417.946L907.735 417.933L1020.72 345.153L1020.87 345.054L1021.03 345.147L1068.67 373.549L1068.62 373.525L1263.84 438.997L1068.45 374.048L1068.42 374.038L1068.4 374.023L1020.73 345.669L1021.04 345.663L908.124 418.554L907.917 418.689L907.716 418.541L880.171 398.275L880.248 398.319L706.172 324.864L706.129 324.846L706.09 324.818L467.046 161.544L467.429 161.6L289.12 218.849L289.259 218.765L72.1951 431.3L72.1861 431.308L72.1758 431.315L2.83881 474.449" fill="#032571"/>
<path d="M2.97473 483.876L69.5771 437.757L69.5631 437.769L284.033 229.999L284.084 229.949L284.152 229.923L463.635 161.597L463.848 161.516L464.038 161.645L703.903 326.891L703.845 326.856L878.769 413.526L878.798 413.541L878.825 413.56L906.619 433.841L906.188 433.845L1019.22 348.971L1019.38 348.854L1019.55 348.952L1067.83 377.003L1067.8 376.985L1263.76 452.794L1067.6 377.502L1067.58 377.494L1067.56 377.484L1019.25 349.478L1019.58 349.459L906.624 434.441L906.409 434.602L906.192 434.444L878.38 414.189L878.435 414.223L703.429 327.721L703.398 327.707L703.37 327.687L463.541 162.387L463.944 162.436L284.397 230.59L284.515 230.514L69.7162 437.931L69.7092 437.938L69.7014 437.943L2.97473 483.876" fill="#032571"/>
<path d="M3.11102 493.302L67.0969 444.396L67.0882 444.403L279.299 241.752L279.343 241.71L279.398 241.686L460.111 162.456L460.332 162.359L460.532 162.497L701.193 329.753L701.155 329.73L876.998 429.444L877.017 429.455L877.034 429.467L905.096 449.737L904.645 449.756L1017.73 352.791L1017.89 352.655L1018.07 352.758L1067 380.459L1066.96 380.447L1263.68 466.591L1066.75 380.955L1066.74 380.95L1066.72 380.943L1017.78 353.289L1018.12 353.255L905.121 450.327L904.903 450.516L904.669 450.347L876.587 430.103L876.623 430.126L700.688 330.579L700.669 330.569L700.65 330.555L460.037 163.229L460.458 163.27L279.673 242.33L279.773 242.263L67.2364 444.563L67.2319 444.568L67.2274 444.572L3.11102 493.302Z" fill="#032571"/>
<path d="M3.24695 502.728L38.4549 473.071L56.0586 458.243L64.849 450.815L73.2337 442.919L140.313 379.743L274.566 253.506L274.603 253.471L274.648 253.449L456.589 163.313L456.817 163.201L457.026 163.348L677.903 318.169L691.701 327.855L698.604 332.693L705.707 337.223L734.116 355.347L790.937 391.594L847.757 427.839C857.213 433.903 866.729 439.873 876.135 446.012L903.574 465.633L903.104 465.669L1016.24 356.61L1016.4 356.457L1016.59 356.563L1046.85 373.262L1061.98 381.611L1065.76 383.698C1067.04 384.369 1068.35 384.971 1069.63 385.61L1077.39 389.395L1139.46 419.719L1263.6 480.387L1139.3 420.054L1077.15 389.88L1069.39 386.102C1068.09 385.464 1066.79 384.862 1065.51 384.193L1061.73 382.109L1046.59 373.773L1016.31 357.098L1016.66 357.051L903.616 466.216L903.395 466.429L903.145 466.251L875.705 446.666C866.294 440.536 856.772 434.575 847.311 428.521L790.457 392.327L733.604 356.135L705.177 338.038L698.071 333.513L691.162 328.683L677.355 319.009L456.533 164.071L456.97 164.105L274.947 254.07L275.029 254.013L140.637 380.112L73.3943 443.104L64.9894 450.979L56.1789 458.382L38.5344 473.165L3.24695 502.728Z" fill="#032571"/>
<path d="M3.38324 512.155L269.833 265.259L269.864 265.231L269.899 265.211L453.069 164.173L453.302 164.044L453.52 164.199L902.05 481.529L901.563 481.58L1014.76 360.429L1014.92 360.26L1015.12 360.369L1263.51 494.182L1014.84 360.908L1015.19 360.848L902.108 482.103L901.886 482.341L901.621 482.154L453.028 164.913L453.479 164.939L270.219 265.809L270.285 265.762L3.38324 512.155Z" fill="#032571"/>
<path d="M3.19543 515.723L265.476 277.609L265.506 277.583L265.54 277.564L450.904 175.714L451.138 175.585L451.356 175.741L883.187 486.01L882.715 486.034L1015.48 368.42L1015.64 368.284L1015.82 368.38L1263.51 500.237L1015.54 368.922L1015.88 368.881L883.218 486.618L882.991 486.818L882.745 486.642L450.86 176.453L451.312 176.48L265.858 278.158L265.92 278.113L3.19543 515.723Z" fill="#032571"/>
<path d="M3.00769 519.292L261.12 289.959L261.149 289.935L261.181 289.916L448.739 187.256L448.974 187.126L449.192 187.285L864.324 490.49L863.865 490.493L1016.2 376.417L1016.35 376.305L1016.52 376.392L1263.51 506.291L1016.24 376.935L1016.56 376.91L864.328 491.128L864.1 491.298L863.869 491.131L448.691 187.99L449.145 188.021L261.495 290.506L261.556 290.464L3.00769 519.292Z" fill="#032571"/>
<path d="M2.81909 522.86L256.764 302.31L256.792 302.287L256.822 302.27L446.572 198.796L446.811 198.668L447.028 198.829L845.461 494.97L845.015 494.955L1016.92 384.419L1017.07 384.325L1017.22 384.404L1263.51 512.345L1016.95 384.949L1017.24 384.935L845.44 495.633L845.211 495.781L844.993 495.619L446.523 199.529L446.977 199.56L257.132 302.855L257.19 302.815L2.81909 522.86Z" fill="#032571"/>
<path d="M2.63129 526.429L252.409 314.66L252.434 314.639L252.464 314.623L444.407 210.338L444.646 210.208L444.863 210.374L826.598 499.45L826.162 499.42L1017.64 392.421L1017.78 392.343L1017.92 392.416L1263.51 518.399L1017.65 392.962L1017.93 392.957L826.552 500.137L826.324 500.266L826.116 500.108L444.353 211.065L444.809 211.101L252.77 315.203L252.824 315.166L2.63129 526.429Z" fill="#032571"/>
<path d="M2.44354 529.997L248.054 327.011L248.078 326.991L248.106 326.977L442.242 221.881L442.482 221.75L442.699 221.918L807.737 503.93L807.308 503.886L1018.35 400.426L1018.49 400.361L1018.62 400.427L1263.51 524.452L1018.35 400.975L1018.62 400.977L807.668 504.639L807.439 504.751L807.238 504.596L442.185 222.604L442.641 222.641L248.408 327.551L248.459 327.517L2.44354 529.997Z" fill="#032571"/>
<path d="M2.25574 533.566L243.698 339.361L243.721 339.343L243.746 339.33L440.077 233.423L440.319 233.292L440.535 233.463L788.876 508.41L788.451 508.354L1019.07 408.432L1019.2 408.378L1019.32 408.439L1263.51 530.507L1019.06 408.989L1019.31 408.996L788.783 509.139L788.555 509.238L788.358 509.083L440.015 234.14L440.474 234.18L244.045 339.9L244.093 339.867L2.25574 533.566Z" fill="#032571"/>
<path d="M2.06757 537.134L239.343 351.712L239.364 351.695L239.388 351.683L437.911 244.964L438.156 244.834L438.371 245.007L770.015 512.89L769.595 512.823L1019.78 416.441L1019.91 416.394L1020.02 416.452L1263.51 536.561L1019.76 417.003L1020 417.013L769.9 513.639L769.672 513.726L769.479 513.571L437.847 245.677L438.306 245.72L239.683 352.248L239.727 352.218L2.06757 537.134Z" fill="#032571"/>
<path d="M1.87976 540.702L234.988 364.062L235.007 364.049L235.03 364.036L435.746 256.506L435.992 256.374L436.208 256.553L751.156 517.37L750.737 517.294L1020.5 424.449L1020.61 424.409L1020.72 424.463L1263.51 542.615L1020.46 425.015L1020.69 425.03L751.019 518.137L750.789 518.216L750.6 518.06L435.678 257.213L436.138 257.259L235.321 364.595L235.361 364.569L1.87976 540.702Z" fill="#032571"/>
<path d="M1.69122 544.27L230.634 376.413L230.652 376.401L230.671 376.39L433.581 268.048L433.83 267.916L434.045 268.098L732.296 521.851L731.877 521.764L1021.21 432.459L1021.32 432.425L1021.42 432.476L1263.51 548.669L1021.17 433.029L1021.38 433.046L732.139 522.635L731.907 522.705L731.72 522.547L433.507 268.748L433.97 268.799L230.957 376.943L230.994 376.92L1.69122 544.27Z" fill="#032571"/>
<path d="M1.50342 547.839L226.279 388.764L226.295 388.753L226.313 388.743L431.417 279.59L431.667 279.457L431.882 279.645L713.437 526.332L713.017 526.236L1021.92 440.47L1022.02 440.44L1022.12 440.488L1263.51 554.722L1021.87 441.043L1022.08 441.061L713.26 527.131L713.025 527.196L712.839 527.034L431.338 280.284L431.803 280.339L226.595 389.291L226.627 389.271L1.50342 547.839Z" fill="#032571"/>
<path d="M1.31567 551.407L221.925 401.114L221.939 401.105L221.954 401.097L429.25 291.133L429.504 290.998L429.718 291.191L694.579 530.815L694.157 530.709L1022.63 448.48L1022.73 448.455L1022.82 448.499L1263.51 560.776L1022.57 449.056L1022.77 449.075L694.381 531.627L694.142 531.687L693.958 531.521L429.167 291.819L429.635 291.878L222.232 401.639L222.261 401.622L1.31567 551.407Z" fill="#032571"/>
<path d="M1.12787 554.975L217.572 413.465L217.582 413.457L217.595 413.45L427.086 302.675L427.343 302.539L427.556 302.739L675.722 535.298L675.296 535.181L1023.33 456.492L1023.43 456.47L1023.53 456.512L1263.51 566.831L1023.28 457.069L1023.47 457.088L675.503 536.124L675.26 536.179L675.076 536.007L426.996 303.354L427.467 303.418L217.87 413.987L217.893 413.972L1.12787 554.975Z" fill="#032571"/>
<path d="M0.940063 558.544L213.218 425.815L213.226 425.809L213.236 425.804L424.92 314.217L425.181 314.08L425.394 314.286L656.866 539.781L656.434 539.654L1024.04 464.504L1024.14 464.485L1024.23 464.524L1263.51 572.885L1023.98 465.082L1024.16 465.102L656.626 540.619L656.376 540.671L656.193 540.492L424.825 314.888L425.298 314.957L213.508 426.334L213.526 426.324L0.940063 558.544Z" fill="#032571"/>
<path d="M0.751892 562.112L208.675 438.278L422.756 325.759L423.021 325.62L423.232 325.835L638.01 544.266L637.57 544.127L1024.75 472.515L1024.84 472.498L1024.93 472.536L1263.51 578.939L1024.68 473.095L1024.86 473.116L637.749 545.114L637.492 545.162L637.309 544.975L422.654 326.421L423.131 326.496L208.956 438.794L0.751892 562.112Z" fill="#032571"/>
<path d="M0.563721 565.681L104.663 506.872L156.712 477.466L182.748 462.783L195.767 455.444C200.117 453.014 204.415 450.489 208.857 448.239L420.59 337.302L420.861 337.16L421.072 337.384L619.155 548.752L618.708 548.599L1025.46 480.527L1025.55 480.512L1025.63 480.548L1263.51 584.992L1025.39 481.109L1025.56 481.13L618.873 549.61L618.608 549.655L618.424 549.458L420.482 337.953L420.964 338.036L209.131 448.756C204.685 451.003 200.385 453.525 196.035 455.949L183.009 463.275L156.955 477.921L104.825 507.174L0.563721 565.681Z" fill="#032571"/>
<path d="M0.375549 569.249L104.657 513.697C139.428 495.201 174.144 476.596 208.993 458.251L418.425 348.844L418.702 348.7L418.911 348.935L600.303 553.24L599.844 553.072L1026.16 488.54L1026.25 488.527L1026.33 488.561L1263.51 591.046L1026.09 489.121L1026.25 489.142L599.997 554.105L599.723 554.147L599.537 553.938L418.309 349.485L418.795 349.575L209.258 458.771L0.375549 569.249Z" fill="#032571"/>
<path d="M0.187805 572.819L104.679 520.663L156.923 494.587L183.055 481.566L196.119 475.054L209.069 468.308L416.26 360.387L416.545 360.238L416.751 360.487L581.45 557.73L580.98 557.547L1026.87 496.552L1026.95 496.541L1027.03 496.572L1263.51 597.101L1026.8 497.135L1026.95 497.155L581.121 558.6L580.836 558.639L580.65 558.417L416.137 361.015L416.628 361.114L209.327 468.83L196.37 475.563L183.3 482.062L157.148 495.042L104.827 520.968L0.187805 572.819Z" fill="#032571"/>
<path d="M0 576.387L104.725 527.786L157.087 503.487L183.274 491.353L189.823 488.322L191.46 487.564L193.061 486.732L196.265 485.069L209.078 478.413L414.095 371.929L414.388 371.777L414.592 372.04L562.589 562.231L562.118 562.034L1027.58 504.564L1027.65 504.554L1027.73 504.585L1263.51 603.155L1027.5 505.148L1027.65 505.168L562.244 563.081L561.954 563.117L561.773 562.884L413.962 372.544L414.459 372.653L209.329 478.936L196.508 485.58L193.303 487.239L191.7 488.07L190.062 488.826L183.511 491.851L157.301 503.942L104.867 528.09L0 576.387Z" fill="#032571"/>
<path d="M0.0518799 585.589L101.801 537.959L152.674 514.145L178.116 502.251L184.478 499.28L186.068 498.537L187.625 497.724L190.739 496.099L203.195 489.599L402.486 385.59L402.761 385.446L402.966 385.683L480.449 475.22L519.191 519.989C525.694 527.41 531.998 535.007 538.358 542.554L557.415 565.217L556.972 565.036L918.135 528.666L1008.25 517.9L1019.52 516.607C1021.41 516.427 1023.24 516.136 1025.21 516.08C1026.23 516.246 1027.1 516.535 1028.02 516.815C1028.93 517.093 1029.83 517.398 1030.73 517.697C1037.9 520.151 1044.99 522.811 1052.09 525.466C1066.27 530.8 1080.4 536.256 1094.53 541.737C1122.76 552.734 1150.95 563.866 1179.12 575.045C1207.27 586.255 1235.45 597.411 1263.51 608.853C1235.42 597.495 1207.21 586.421 1179.02 575.297C1150.82 564.2 1122.6 553.154 1094.34 542.237C1080.22 536.771 1066.07 531.33 1051.89 526.012C1044.79 523.365 1037.7 520.713 1030.54 518.271C1028.76 517.698 1026.92 517.027 1025.17 516.689C1023.38 516.747 1021.45 517.037 1019.58 517.221L1008.31 518.525L918.212 529.384L557.074 566.075L556.806 566.102L556.632 565.894L537.6 543.216C531.248 535.662 524.953 528.062 518.457 520.634L479.761 475.827L402.369 386.214L402.849 386.307L203.445 490.118L190.982 496.606L187.866 498.228L186.309 499.038L184.718 499.781L178.352 502.745L152.886 514.591L101.94 538.258L0.0518799 585.589Z" fill="#032571"/>
<path d="M0.103333 594.792L98.8754 548.132L148.26 524.803L172.957 513.149L179.133 510.238L180.677 509.51L182.188 508.717L185.213 507.13L197.311 500.784L390.876 399.251L391.136 399.115L391.338 399.326L472.311 483.257L512.797 525.224C519.639 532.128 526.06 539.438 532.623 546.612L552.24 568.203L551.826 568.038L914.856 539.669C944.987 536.15 975.132 532.563 1005.3 529.233L1016.62 528.034C1018.51 527.846 1020.39 527.661 1022.31 527.54C1023.33 527.545 1024.25 527.76 1025.19 527.95C1026.12 528.153 1027.05 528.381 1027.97 528.623C1035.32 530.607 1042.53 533.012 1049.74 535.403C1064.15 540.237 1078.48 545.316 1092.78 550.444C1121.37 560.745 1149.86 571.324 1178.33 581.994L1220.99 598.104L1242.28 606.239C1249.37 608.989 1256.49 611.645 1263.51 614.551C1256.48 611.666 1249.36 609.031 1242.26 606.304L1220.94 598.232L1178.24 582.25C1149.75 571.663 1121.21 561.179 1092.6 550.951C1078.3 545.838 1063.96 540.775 1049.56 535.958C1042.35 533.577 1035.13 531.181 1027.82 529.213C1026.9 528.972 1025.98 528.748 1025.06 528.548C1024.15 528.362 1023.2 528.155 1022.32 528.153C1020.45 528.275 1018.56 528.461 1016.68 528.652L1005.36 529.861C975.202 533.223 945.078 536.839 914.926 540.391L551.905 569.069L551.658 569.089L551.49 568.904L531.9 547.3C525.347 540.121 518.935 532.807 512.1 525.896L471.659 483.892L390.776 399.883L391.238 399.959L197.561 501.299L185.456 507.633L182.43 509.216L180.917 510.008L179.373 510.736L173.193 513.639L148.47 525.242L99.0134 548.425L0.103333 594.792Z" fill="#032571"/>
<path d="M0.15564 603.996L95.9501 558.306L143.846 535.462L167.797 524.047L173.787 521.197C174.792 520.737 175.779 520.239 176.751 519.71L179.687 518.162L191.426 511.971L379.269 412.912L379.509 412.784L379.71 412.971L464.169 491.246L506.398 530.385C513.577 536.757 520.103 543.827 526.88 550.63L547.066 571.189L546.679 571.04L911.573 550.676C941.818 547.24 972.09 543.722 1002.39 540.579C1006.17 540.189 1009.96 539.811 1013.76 539.474C1015.65 539.292 1017.56 539.148 1019.47 539.037C1021.43 538.989 1023.32 539.368 1025.2 539.717C1032.68 541.252 1040.01 543.387 1047.33 545.513C1061.96 549.835 1076.47 554.524 1090.96 559.289C1119.91 568.868 1148.74 578.869 1177.5 589.006C1191.88 594.081 1206.25 599.201 1220.6 604.372L1242.1 612.177L1252.85 616.13C1256.41 617.484 1260.01 618.736 1263.51 620.249C1260.01 618.747 1256.4 617.505 1252.83 616.162L1242.08 612.241L1220.56 604.502C1206.19 599.375 1191.81 594.298 1177.41 589.268C1148.62 579.213 1119.77 569.316 1090.79 559.804C1076.3 555.054 1061.79 550.382 1047.17 546.078C1039.86 543.963 1032.52 541.835 1025.08 540.318C1023.22 539.973 1021.34 539.604 1019.49 539.654C1017.6 539.767 1015.71 539.912 1013.81 540.094C1010.02 540.436 1006.24 540.817 1002.45 541.211C972.156 544.386 941.915 547.932 911.635 551.404L546.736 572.063L546.509 572.076L546.349 571.912L526.194 551.342C519.427 544.535 512.913 537.463 505.74 531.083L463.556 491.906L379.186 413.553L379.626 413.612L191.676 512.481L179.929 518.66L176.992 520.205C176.019 520.733 175.032 521.23 174.026 521.69L168.033 524.534L144.053 535.891L96.086 558.593L0.15564 603.996Z" fill="#032571"/>
<path d="M0.20752 613.198L93.024 568.48L139.431 546.122C154.874 538.614 170.495 531.471 185.542 523.157L367.661 426.573L367.884 426.455L368.08 426.616L456.015 499.187L499.983 535.471L505.478 540.007C505.931 540.39 506.404 540.752 506.842 541.153L508.14 542.376L510.736 544.822L521.121 554.606L541.89 574.177L541.534 574.042L908.567 561.678L908.539 561.68C938.913 558.28 969.287 554.883 999.709 551.919C1003.51 551.564 1007.32 551.198 1011.13 550.906C1013.03 550.736 1014.95 550.634 1016.86 550.521C1018.81 550.456 1020.72 550.701 1022.62 550.96C1030.2 552.113 1037.63 553.966 1045.05 555.832C1059.87 559.642 1074.55 563.93 1089.22 568.318C1118.51 577.149 1147.63 586.539 1176.7 596.112C1191.23 600.906 1205.73 605.762 1220.23 610.685L1241.93 618.135L1252.77 621.929L1258.17 623.863C1259.96 624.541 1261.8 625.122 1263.51 625.946C1261.78 625.128 1259.95 624.552 1258.17 623.88L1252.76 621.962L1241.91 618.201L1220.19 610.818C1205.68 605.939 1191.16 601.127 1176.61 596.378C1147.52 586.888 1118.37 577.609 1089.06 568.838C1074.41 564.466 1059.71 560.197 1044.91 556.405C1037.5 554.55 1030.07 552.707 1022.53 551.571C1020.65 551.314 1018.75 551.075 1016.88 551.142C1014.98 551.257 1013.08 551.359 1011.18 551.531C1007.37 551.827 1003.57 552.197 999.768 552.555C969.359 555.549 938.987 558.98 908.62 562.411L908.606 562.413H908.591L541.566 575.057L541.36 575.064L541.209 574.921L520.473 555.342L510.105 545.553L507.514 543.105L506.217 541.881C505.78 541.48 505.307 541.118 504.854 540.735L499.364 536.194L455.442 499.87L367.596 427.221L368.016 427.264L185.791 523.663L174.4 529.687C172.49 530.667 170.632 531.752 168.679 532.644L162.872 535.428L139.635 546.541L93.1583 568.76L0.20752 613.198Z" fill="#032571"/>
<path d="M0.259033 622.402L90.098 578.655L135.017 556.781C149.965 549.441 165.075 542.43 179.655 534.345L356.052 440.235L356.26 440.124L356.451 440.263L500.231 545.382L500.246 545.394L500.262 545.406L536.715 577.165L536.386 577.044L905.194 572.7L905.158 572.703C935.687 569.381 966.217 566.083 996.801 563.297C1000.63 562.97 1004.45 562.634 1008.28 562.366C1010.2 562.207 1012.12 562.13 1014.04 562.018C1015.98 561.927 1017.91 562.069 1019.83 562.253C1027.49 563.07 1035.03 564.638 1042.54 566.253C1057.55 569.558 1072.42 573.437 1087.26 577.442C1116.92 585.513 1146.39 594.276 1175.78 603.268C1190.47 607.772 1205.14 612.355 1219.8 617.022L1241.73 624.105L1252.68 627.733L1258.14 629.595L1260.86 630.556C1261.74 630.903 1262.69 631.17 1263.51 631.644C1262.69 631.173 1261.74 630.91 1260.85 630.564L1258.13 629.611L1252.67 627.766L1241.71 624.172L1219.76 617.157C1205.09 612.535 1190.41 607.999 1175.7 603.538C1146.28 594.629 1116.78 585.987 1087.12 577.969C1072.29 573.981 1057.41 570.12 1042.41 566.832C1034.91 565.229 1027.38 563.671 1019.77 562.868C1017.87 562.688 1015.96 562.55 1014.06 562.641C1012.15 562.756 1010.24 562.834 1008.33 562.994C1004.5 563.266 1000.68 563.607 996.857 563.937C966.286 566.754 935.758 570.085 905.238 573.438L905.22 573.44H905.202L536.398 578.05L536.211 578.052L536.069 577.928L499.649 546.131L499.679 546.157L356.007 440.887L356.404 440.915L179.903 534.844L168.872 540.716C165.224 542.731 161.458 544.509 157.71 546.322L135.217 557.191L90.2301 578.928L0.259033 622.402Z" fill="#032571"/>
<path d="M0.310913 631.605L87.1709 588.829L130.601 567.443C145.055 560.27 159.656 553.393 173.768 545.534L344.444 453.896L344.636 453.793L344.82 453.911L493.798 549.779L493.819 549.793L493.838 549.808L531.54 580.155L531.239 580.046L901.819 583.724L901.777 583.726C932.471 580.49 963.169 577.295 993.926 574.69C997.773 574.381 1001.62 574.08 1005.47 573.83C1007.4 573.688 1009.33 573.619 1011.26 573.511C1013.2 573.416 1015.14 573.49 1017.07 573.611C1024.79 574.161 1032.42 575.451 1040.02 576.823C1055.21 579.642 1070.26 583.103 1085.27 586.721C1115.29 594.018 1145.1 602.125 1174.84 610.507C1189.69 614.71 1204.53 619.004 1219.34 623.401C1226.74 625.599 1234.14 627.824 1241.52 630.093L1252.58 633.545L1258.1 635.329L1260.84 636.257C1261.73 636.6 1262.7 636.846 1263.51 637.343C1262.7 636.849 1261.73 636.606 1260.84 636.267L1258.1 635.346L1252.57 633.579L1241.5 630.161C1234.11 627.916 1226.71 625.714 1219.3 623.538C1204.48 619.188 1189.63 614.94 1174.75 610.783C1145 602.483 1115.16 594.504 1085.15 587.254C1070.14 583.653 1055.08 580.21 1039.91 577.411C1032.33 576.048 1024.71 574.769 1017.03 574.231C1013.2 573.912 1009.36 574.237 1005.51 574.463C1001.67 574.716 997.821 575.022 993.978 575.335C963.237 577.97 932.541 581.198 901.855 584.467L901.834 584.469H901.813L531.23 581.043L531.061 581.042L530.929 580.936L493.258 550.549L493.298 550.578L344.418 454.552L344.794 454.567L174.016 546.028L163.342 551.745C159.812 553.703 156.172 555.445 152.545 557.214L130.797 567.841L87.3006 589.096L0.310913 631.605Z" fill="#032571"/>
<path d="M0.362793 640.808L84.2435 599.005L126.184 578.104C140.145 571.102 154.235 564.355 167.88 556.722L332.835 467.557L333.012 467.462L333.188 467.56L487.364 554.179L487.39 554.192L487.414 554.21L526.364 583.144L526.092 583.049L898.446 594.747L898.397 594.749C929.268 591.605 960.144 588.52 991.084 586.098C994.953 585.8 998.823 585.535 1002.7 585.298C1006.57 585.104 1010.46 584.806 1014.35 585.011C1022.13 585.354 1029.83 586.383 1037.51 587.53C1052.86 589.884 1068.09 592.928 1083.27 596.154C1113.63 602.665 1143.79 610.093 1173.86 617.838C1188.89 621.724 1203.9 625.714 1218.87 629.823C1226.36 631.88 1233.84 633.966 1241.3 636.104L1252.49 639.367L1258.05 641.068L1260.83 641.961L1262.21 642.438C1262.64 642.623 1263.14 642.734 1263.51 643.04C1263.14 642.735 1262.64 642.626 1262.21 642.442L1260.83 641.971L1258.05 641.086L1252.48 639.402L1241.28 636.173C1233.82 634.058 1226.33 631.996 1218.84 629.963C1203.85 625.901 1188.84 621.957 1173.79 618.118C1143.71 610.454 1113.52 603.164 1083.17 596.692C1067.98 593.484 1052.75 590.457 1037.42 588.123C1029.76 586.986 1022.06 585.967 1014.33 585.636C1010.47 585.435 1006.61 585.736 1002.73 585.933C998.865 586.175 994.998 586.443 991.133 586.746C960.21 589.2 929.334 592.318 898.472 595.494L898.448 595.497L898.423 595.496L526.062 584.037L525.911 584.031L525.789 583.941L486.868 554.966L486.916 554.997L332.831 468.216L333.182 468.219L168.127 557.211C154.481 564.842 140.358 571.527 126.377 578.491L84.3712 599.263L0.362793 640.808Z" fill="#032571"/>
<path d="M0.414246 650.011L81.3153 609.18L121.765 588.766C135.233 581.93 148.816 575.322 161.991 567.911L321.228 481.22L321.39 481.132L321.557 481.213L480.931 558.579L480.961 558.594L480.99 558.614L521.189 586.135L520.944 586.051L895.073 605.77L895.016 605.772C926.076 602.728 957.143 599.764 988.274 597.514C992.166 597.231 996.061 597 999.956 596.768C1003.85 596.596 1007.76 596.319 1011.67 596.439C1019.49 596.626 1027.27 597.419 1035.02 598.355C1050.52 600.276 1065.91 602.904 1081.26 605.739C1111.96 611.462 1142.46 618.182 1172.87 625.263C1188.08 628.818 1203.25 632.489 1218.4 636.295C1225.96 638.2 1233.52 640.139 1241.07 642.137C1244.84 643.138 1248.62 644.152 1252.38 645.201L1258.01 646.812L1260.81 647.667L1262.21 648.13C1262.64 648.314 1263.17 648.413 1263.51 648.738C1263.17 648.414 1262.64 648.318 1262.2 648.134L1260.8 647.677L1258 646.829L1252.37 645.235C1248.61 644.199 1244.83 643.197 1241.06 642.209C1233.5 640.234 1225.93 638.32 1218.35 636.439C1203.2 632.679 1188.01 629.056 1172.8 625.548C1142.38 618.549 1111.85 611.973 1081.16 606.281C1065.82 603.466 1050.43 600.856 1034.95 598.954C1027.21 598.027 1019.44 597.244 1011.66 597.066C1007.77 596.951 1003.89 597.231 999.99 597.408C996.099 597.644 992.208 597.879 988.319 598.165C957.205 600.448 926.139 603.446 895.09 606.522L895.061 606.525L895.034 606.524L520.894 587.029L520.76 587.023L520.649 586.946L480.479 559.382L480.537 559.416L321.243 481.878L321.57 481.87L162.236 568.395C149.056 575.796 135.439 582.34 121.954 589.141L81.4406 609.431L0.414246 650.011Z" fill="#032571"/>
<path d="M0.466553 659.213L78.3868 619.357L117.346 599.429C130.317 592.756 143.397 586.297 156.1 579.102L309.619 494.882L309.768 494.801L309.925 494.866L474.497 562.983L474.532 562.996L474.566 563.018L516.015 589.126L515.796 589.055L891.699 616.795H891.636C907.264 615.306 922.898 613.888 938.538 612.554C954.18 611.227 969.827 609.954 985.494 608.939C989.41 608.672 993.331 608.464 997.25 608.246C1001.17 608.08 1005.1 607.828 1009.03 607.884C1016.9 607.954 1024.74 608.541 1032.55 609.282C1048.19 610.805 1063.74 613.025 1079.26 615.471C1110.27 620.408 1141.11 626.4 1171.86 632.787C1187.23 635.997 1202.58 639.333 1217.9 642.82C1225.55 644.566 1233.21 646.347 1240.84 648.197C1244.65 649.124 1248.47 650.066 1252.28 651.046C1254.17 651.537 1256.07 652.036 1257.97 652.56L1260.79 653.376L1262.2 653.822L1262.89 654.073C1263.1 654.177 1263.39 654.228 1263.51 654.436C1263.39 654.229 1263.1 654.18 1262.89 654.075L1262.2 653.828L1260.79 653.385L1257.96 652.579C1256.06 652.06 1254.16 651.567 1252.27 651.082C1248.46 650.114 1244.64 649.184 1240.82 648.27C1233.19 646.444 1225.53 644.686 1217.87 642.965C1202.54 639.526 1187.19 636.239 1171.8 633.078C1141.04 626.77 1110.17 620.932 1079.17 616.018C1063.66 613.591 1048.11 611.39 1032.5 609.885C1024.69 609.152 1016.86 608.575 1009.03 608.515C1005.11 608.464 1001.2 608.718 997.283 608.888C993.367 609.111 989.449 609.322 985.536 609.594C969.878 610.626 954.235 611.915 938.597 613.259C922.961 614.61 907.33 616.044 891.707 617.55L891.675 617.553L891.645 617.55L515.728 590.022L515.61 590.014L515.51 589.95L474.088 563.797L474.156 563.832L309.654 495.538L309.96 495.522L156.346 579.578C143.629 586.747 130.523 593.157 117.531 599.792L78.5091 619.6L0.466553 659.213Z" fill="#032571"/>
<path d="M0.518005 668.417L75.4573 629.533L112.927 610.093C125.402 603.585 137.977 597.27 150.209 590.295L298.012 508.545L298.148 508.47L298.294 508.521L468.065 567.386L468.104 567.4L468.141 567.422L510.839 592.119L510.648 592.058L888.324 627.818H888.256C903.989 626.385 919.728 625.036 935.475 623.769C951.221 622.506 966.975 621.322 982.746 620.371C990.634 619.937 998.513 619.412 1006.43 619.341C1014.34 619.32 1022.24 619.73 1030.12 620.296C1045.88 621.46 1061.59 623.283 1077.25 625.344C1108.58 629.505 1139.75 634.746 1170.85 640.417C1186.39 643.267 1201.91 646.252 1217.39 649.401C1225.14 650.977 1232.88 652.594 1240.6 654.285C1244.45 655.132 1248.31 655.997 1252.16 656.904C1254.08 657.359 1256 657.823 1257.92 658.316C1258.88 658.562 1259.82 658.815 1260.78 659.086C1261.26 659.222 1261.73 659.363 1262.2 659.516C1262.43 659.593 1262.67 659.673 1262.89 659.762C1263.1 659.867 1263.4 659.915 1263.51 660.133C1263.4 659.916 1263.1 659.868 1262.89 659.764C1262.67 659.676 1262.43 659.597 1262.2 659.52C1261.72 659.369 1261.25 659.23 1260.77 659.095C1259.82 658.827 1258.86 658.577 1257.92 658.333C1256 657.848 1254.08 657.389 1252.15 656.94C1248.3 656.046 1244.44 655.193 1240.59 654.358C1232.86 652.691 1225.12 651.099 1217.37 649.547C1201.88 646.448 1186.35 643.512 1170.8 640.711C1139.69 635.121 1108.5 630.04 1077.18 625.896C1061.52 623.853 1045.82 622.048 1030.08 620.903C1022.21 620.347 1014.32 619.945 1006.43 619.974C998.554 620.054 990.663 620.588 982.784 621.03C967.022 621.997 951.273 623.198 935.53 624.479C919.788 625.761 904.051 627.128 888.324 628.578L888.289 628.581L888.254 628.578L510.56 593.016L510.458 593.005L510.37 592.954L467.698 568.212L467.774 568.246L298.066 509.196L298.348 509.172L150.453 590.762C138.199 597.699 125.603 603.975 113.107 610.444L75.5772 629.768L0.518005 668.417Z" fill="#032571"/>
<path d="M0.569885 677.62L72.5262 639.712L108.504 620.757C120.484 614.415 132.553 608.241 144.317 601.492L286.403 522.207L286.528 522.138L286.664 522.177L461.631 571.793L461.676 571.806L461.718 571.828L505.664 595.112L505.499 595.061L884.951 638.842L884.876 638.841C916.565 636.135 948.271 633.628 980.026 631.809C987.969 631.404 995.902 630.927 1003.87 630.802C1011.83 630.715 1019.78 630.974 1027.72 631.384C1043.61 632.223 1059.46 633.666 1075.27 635.352C1106.9 638.752 1138.41 643.226 1169.83 648.151C1185.54 650.629 1201.23 653.247 1216.89 656.04C1224.72 657.439 1232.54 658.879 1240.35 660.402C1244.25 661.165 1248.15 661.948 1252.04 662.777C1253.98 663.192 1255.93 663.619 1257.86 664.076C1258.83 664.305 1259.8 664.542 1260.76 664.799C1261.24 664.928 1261.72 665.063 1262.2 665.21C1262.43 665.285 1262.67 665.363 1262.9 665.45C1263.11 665.556 1263.42 665.602 1263.51 665.832C1263.41 665.602 1263.11 665.557 1262.9 665.454C1262.67 665.366 1262.43 665.289 1262.2 665.214C1261.72 665.068 1261.24 664.935 1260.76 664.808C1259.79 664.554 1258.83 664.321 1257.86 664.095C1255.92 663.643 1253.98 663.224 1252.03 662.814C1248.14 661.996 1244.24 661.227 1240.33 660.477C1232.52 658.978 1224.7 657.562 1216.87 656.189C1201.2 653.446 1185.51 650.878 1169.79 648.45C1138.35 643.604 1106.83 639.297 1075.22 635.907C1043.61 632.677 1011.8 629.836 980.062 632.471C948.323 634.324 916.62 636.865 884.941 639.605L884.903 639.608L884.865 639.604L505.394 596.007L505.306 595.998L505.228 595.957L461.308 572.625L461.393 572.659L286.477 522.853L286.736 522.823L144.555 601.942C132.77 608.654 120.681 614.791 108.681 621.096L72.6435 639.937L0.569885 677.62Z" fill="#032571"/>
<path d="M0.621826 686.823L69.5952 649.889L104.082 631.423C115.565 625.247 127.127 619.215 138.426 612.69L274.796 535.871L274.908 535.807L275.034 535.835L455.2 576.201L455.248 576.212L455.294 576.234L500.489 598.106L500.351 598.064L881.577 649.867L881.495 649.865C913.417 647.289 945.356 644.96 977.337 643.254C1009.32 640.951 1041.42 642.89 1073.31 645.486C1105.23 648.145 1137.06 651.838 1168.81 655.995C1184.68 658.089 1200.55 660.324 1216.37 662.741C1224.29 663.952 1232.21 665.208 1240.09 666.552C1244.04 667.225 1247.99 667.919 1251.92 668.666C1253.89 669.039 1255.85 669.425 1257.81 669.845C1258.79 670.055 1259.77 670.274 1260.74 670.515C1261.23 670.635 1261.71 670.762 1262.19 670.906C1262.43 670.977 1262.67 671.052 1262.9 671.141C1263.11 671.243 1263.42 671.287 1263.51 671.53C1263.42 671.288 1263.11 671.245 1262.9 671.143C1262.67 671.055 1262.43 670.981 1262.19 670.91C1261.71 670.769 1261.23 670.643 1260.74 670.524C1259.76 670.286 1258.78 670.071 1257.81 669.864C1255.85 669.45 1253.88 669.07 1251.92 668.702C1247.98 667.969 1244.03 667.287 1240.08 666.628C1232.18 665.309 1224.28 664.079 1216.35 662.892C1200.52 660.525 1184.65 658.341 1168.78 656.299C1137.01 652.221 1105.18 648.7 1073.27 646.045C1041.37 643.484 1009.33 641.582 977.37 643.919C945.404 645.66 913.467 648.024 881.558 650.633L881.516 650.636L881.476 650.631L500.227 599.001L500.155 598.991L500.088 598.959L454.916 577.038L455.01 577.07L274.887 536.508L275.125 536.474L138.657 613.123C127.338 619.612 115.758 625.608 104.254 631.748L69.7092 650.107L0.621826 686.823Z" fill="#032571"/>
<path d="M0.673279 696.026L66.6625 660.068L99.6562 642.089C110.645 636.079 121.698 630.189 132.531 623.89L263.187 549.533L263.29 549.475L263.406 549.495L448.768 580.61L448.822 580.619L448.872 580.64L495.315 601.1L495.201 601.067L878.203 660.891L878.116 660.888C910.279 658.461 942.462 656.308 974.677 654.706C982.734 654.343 990.784 653.936 998.853 653.737C1006.92 653.558 1014.99 653.582 1023.05 653.725C1039.18 654.019 1055.29 654.769 1071.39 655.736C1103.59 657.683 1135.72 660.583 1167.8 663.951C1183.84 665.649 1199.86 667.484 1215.87 669.507C1223.87 670.523 1231.86 671.582 1239.84 672.735C1243.83 673.315 1247.82 673.914 1251.8 674.571C1253.78 674.899 1255.78 675.242 1257.76 675.62C1258.75 675.811 1259.73 676.009 1260.72 676.235C1261.21 676.345 1261.7 676.466 1262.19 676.602C1262.43 676.671 1262.67 676.744 1262.9 676.83C1263.03 676.871 1263.14 676.922 1263.26 676.975C1263.36 677.036 1263.51 677.088 1263.51 677.228C1263.51 677.088 1263.36 677.038 1263.26 676.976C1263.14 676.924 1263.03 676.873 1262.9 676.833C1262.67 676.747 1262.43 676.675 1262.19 676.607C1261.7 676.473 1261.21 676.353 1260.72 676.244C1259.73 676.023 1258.74 675.827 1257.75 675.639C1255.77 675.267 1253.78 674.931 1251.79 674.609C1247.81 673.965 1243.82 673.378 1239.83 672.812C1231.85 671.683 1223.85 670.65 1215.84 669.661C1199.84 667.689 1183.81 665.905 1167.76 664.258C1135.69 660.973 1103.54 658.242 1071.36 656.297C1039.18 654.406 1006.9 653.294 974.709 655.375C942.506 657.011 910.327 659.199 878.175 661.66L878.13 661.663L878.087 661.657L495.061 601.994L495.002 601.984L494.947 601.96L448.525 581.45L448.627 581.48L263.296 550.163L263.514 550.124L132.757 624.306C121.905 630.57 110.832 636.426 99.8247 642.402L66.7741 660.277L0.673279 696.026Z" fill="#032571"/>
<path d="M0.725159 705.228L63.7289 670.248L95.2299 652.757C105.723 646.914 116.268 641.165 126.635 635.091L251.58 563.197L251.672 563.143L251.778 563.156L442.339 585.021L442.396 585.027L442.449 585.048L490.141 604.096L490.052 604.07L874.829 671.915L874.736 671.911C907.154 669.653 939.587 667.672 972.048 666.166C980.164 665.812 988.277 665.435 996.403 665.207C1004.53 664.991 1012.65 664.929 1020.78 664.96C1037.03 665.029 1053.27 665.464 1069.5 666.092C1101.97 667.357 1134.41 669.461 1166.8 672.018C1183 673.31 1199.19 674.732 1215.35 676.343C1223.43 677.15 1231.52 678.005 1239.58 678.955C1243.62 679.433 1247.65 679.934 1251.68 680.493C1253.69 680.775 1255.69 681.07 1257.69 681.404C1258.7 681.573 1259.7 681.751 1260.7 681.956C1261.19 682.059 1261.69 682.171 1262.19 682.3C1262.43 682.365 1262.67 682.435 1262.91 682.52C1263.03 682.56 1263.14 682.61 1263.26 682.665C1263.37 682.726 1263.52 682.783 1263.51 682.926C1263.52 682.783 1263.37 682.727 1263.26 682.666C1263.14 682.611 1263.03 682.562 1262.91 682.522C1262.67 682.437 1262.43 682.369 1262.19 682.304C1261.69 682.178 1261.19 682.067 1260.7 681.966C1259.7 681.763 1258.7 681.589 1257.69 681.424C1255.69 681.095 1253.68 680.808 1251.66 680.532C1247.65 679.986 1243.61 679.497 1239.57 679.032C1231.51 678.108 1223.42 677.28 1215.34 676.497C1199.17 674.938 1182.98 673.569 1166.78 672.329C1134.39 669.857 1101.95 667.917 1069.48 666.656C1053.25 666.046 1037.02 665.63 1020.77 665.578C1012.66 665.556 1004.53 665.626 996.419 665.851C988.307 666.088 980.191 666.475 972.078 666.836C939.628 668.379 907.198 670.395 874.791 672.688L874.743 672.691L874.697 672.683L489.896 604.985L489.849 604.978L489.805 604.961L442.133 585.862L442.242 585.888L251.704 563.815L251.902 563.774L126.853 635.489C116.468 641.53 105.904 647.245 95.3935 653.056L63.8368 670.447L0.725159 705.228Z" fill="#032571"/>
<path d="M0.777466 714.432L60.7933 680.428L90.8012 663.426C100.798 657.749 110.835 652.143 120.736 646.293L239.972 576.86L240.056 576.811L240.152 576.817L435.911 589.433L435.97 589.436L436.027 589.457L484.967 607.092L484.902 607.073L871.454 682.941L871.356 682.934C904.038 680.863 936.734 679.054 969.447 677.628C1002.16 675.972 1034.93 675.923 1067.67 676.546C1100.4 677.159 1133.13 678.469 1165.82 680.199C1182.17 681.075 1198.52 682.068 1214.85 683.247C1223.01 683.841 1231.17 684.477 1239.33 685.215C1243.41 685.586 1247.48 685.979 1251.55 686.437C1253.58 686.667 1255.62 686.911 1257.64 687.199C1258.65 687.344 1259.67 687.498 1260.68 687.683C1261.17 687.777 1261.68 687.877 1262.17 687.998C1262.43 688.061 1262.67 688.126 1262.91 688.209C1263.04 688.25 1263.16 688.297 1263.27 688.355C1263.37 688.415 1263.53 688.478 1263.51 688.624C1263.53 688.478 1263.37 688.416 1263.27 688.356C1263.16 688.299 1263.04 688.253 1262.91 688.211C1262.67 688.129 1262.43 688.065 1262.17 688.003C1261.68 687.884 1261.17 687.785 1260.67 687.692C1259.67 687.511 1258.65 687.36 1257.64 687.219C1255.61 686.938 1253.58 686.698 1251.55 686.475C1247.48 686.031 1243.4 685.65 1239.32 685.293C1231.17 684.581 1223 683.971 1214.84 683.404C1198.5 682.278 1182.16 681.337 1165.81 680.512C1133.11 678.872 1100.39 677.72 1067.66 677.112C1034.92 676.524 1002.18 676.611 969.477 678.301C936.77 679.764 904.079 681.608 871.407 683.715L871.356 683.718L871.309 683.709L484.729 607.979L484.696 607.972L484.664 607.96L435.741 590.272L435.856 590.296L240.111 577.467L240.291 577.424L120.948 646.674C111.029 652.491 100.974 658.066 90.9593 663.712L60.8987 680.618L0.777466 714.432Z" fill="#032571"/>
<path d="M0.828918 723.635L57.8569 690.61L86.37 674.098C95.8702 668.586 105.399 663.124 114.835 657.498L228.364 590.523L228.439 590.478L228.528 590.479L429.483 593.845L429.546 593.846L429.605 593.866L479.796 610.088L479.752 610.077L868.081 693.965L867.978 693.958C900.933 692.091 933.899 690.455 966.877 689.091C999.853 687.588 1032.87 687.079 1065.88 687.088C1098.88 687.079 1131.89 687.603 1164.88 688.491C1181.37 688.944 1197.87 689.497 1214.36 690.225C1222.6 690.593 1230.85 691.003 1239.08 691.514C1243.2 691.771 1247.31 692.052 1251.42 692.4C1253.48 692.576 1255.53 692.766 1257.58 693.003C1258.61 693.122 1259.63 693.253 1260.65 693.414C1261.16 693.498 1261.67 693.586 1262.17 693.698C1262.43 693.757 1262.67 693.818 1262.92 693.9C1263.04 693.941 1263.17 693.986 1263.28 694.044C1263.38 694.104 1263.53 694.175 1263.51 694.321C1263.53 694.175 1263.38 694.105 1263.28 694.045C1263.17 693.987 1263.04 693.943 1262.92 693.902C1262.67 693.822 1262.43 693.762 1262.17 693.703C1261.67 693.592 1261.16 693.506 1260.65 693.423C1259.63 693.265 1258.6 693.139 1257.58 693.023C1255.53 692.792 1253.48 692.609 1251.42 692.44C1247.31 692.105 1243.19 691.837 1239.08 691.592C1230.83 691.107 1222.59 690.725 1214.35 690.383C1197.86 689.707 1181.36 689.207 1164.88 688.807C1131.88 688.013 1098.87 687.642 1065.88 687.656C1032.87 687.684 999.873 688.228 966.906 689.768C933.933 691.167 900.97 692.841 868.022 694.743L867.97 694.746L867.92 694.734L479.565 610.972L479.543 610.966L479.52 610.959L429.348 594.683L429.469 594.703L228.516 591.117L228.679 591.074L115.039 657.859C105.586 663.455 96.0412 668.888 86.5236 674.368L57.9586 690.791L0.828918 723.635Z" fill="#032571"/>
<path d="M0.880798 732.839L54.918 700.793C72.9191 690.092 90.9672 679.473 108.93 668.705L216.756 604.186L216.824 604.145L216.903 604.143L423.057 598.259L423.121 598.257L423.184 598.275L450.473 606.132L464.117 610.06L470.939 612.024L474.351 613.006C475.496 613.304 476.652 613.555 477.801 613.831L533.084 626.816L643.638 652.812L864.705 704.99L864.599 704.981L964.342 700.647C980.963 699.875 997.594 699.283 1014.23 698.832C1030.86 698.365 1047.5 698 1064.14 697.707C1097.41 697.111 1130.69 696.86 1163.97 696.892C1180.6 696.916 1197.24 697.016 1213.88 697.277C1222.2 697.411 1230.52 697.581 1238.84 697.854C1242.99 697.993 1247.14 698.156 1251.3 698.386C1253.37 698.504 1255.45 698.636 1257.53 698.817C1258.56 698.909 1259.59 699.012 1260.63 699.15C1261.14 699.221 1261.66 699.296 1262.16 699.401C1262.42 699.454 1262.67 699.514 1262.92 699.59C1263.05 699.631 1263.17 699.674 1263.29 699.734C1263.39 699.793 1263.55 699.87 1263.51 700.02C1263.55 699.87 1263.39 699.794 1263.28 699.735C1263.17 699.675 1263.05 699.633 1262.92 699.592C1262.67 699.516 1262.42 699.458 1262.16 699.405C1261.66 699.302 1261.14 699.229 1260.63 699.16C1259.59 699.026 1258.56 698.926 1257.53 698.837C1255.45 698.663 1253.37 698.537 1251.3 698.425C1247.14 698.209 1242.99 698.06 1238.83 697.934C1230.52 697.688 1222.19 697.543 1213.87 697.436C1197.24 697.228 1180.6 697.182 1163.97 697.21C1130.69 697.276 1097.41 697.675 1064.14 698.277C1047.51 698.588 1030.88 698.971 1014.25 699.456C997.615 699.926 980.989 700.536 964.369 701.325L864.638 705.77L864.582 705.772L864.529 705.76L643.393 653.821L532.848 627.759L477.578 614.713C476.427 614.436 475.271 614.183 474.126 613.885L470.715 612.899L463.892 610.926L450.246 606.982L422.955 599.092L423.08 599.107L216.92 604.767L217.068 604.724L109.128 669.048C91.1323 679.758 73.0509 690.321 55.0164 700.964L0.880798 732.839Z" fill="#032571"/>
<path d="M0.932678 742.041L205.147 617.849L205.209 617.813L205.281 617.807L416.633 602.673L416.698 602.668L416.763 602.685L639.075 659.24L861.332 716.016L861.22 716.004C928.289 713.25 995.363 710.682 1062.45 708.394C1096 707.244 1129.54 706.233 1163.09 705.4C1179.87 704.99 1196.65 704.627 1213.42 704.402C1221.81 704.294 1230.2 704.218 1238.59 704.239C1242.79 704.254 1246.98 704.29 1251.18 704.396C1253.28 704.451 1255.38 704.522 1257.46 704.645C1258.52 704.707 1259.56 704.781 1260.6 704.891C1261.12 704.948 1261.65 705.014 1262.16 705.106C1262.42 705.153 1262.68 705.205 1262.93 705.282C1263.06 705.319 1263.18 705.364 1263.29 705.422C1263.4 705.482 1263.55 705.573 1263.51 705.717C1263.55 705.573 1263.4 705.482 1263.29 705.425C1263.18 705.366 1263.05 705.32 1262.93 705.284C1262.68 705.208 1262.42 705.157 1262.16 705.11C1261.65 705.02 1261.12 704.957 1260.6 704.902C1259.56 704.793 1258.52 704.723 1257.46 704.665C1255.38 704.549 1253.28 704.485 1251.18 704.436C1246.98 704.343 1242.79 704.32 1238.59 704.32C1230.2 704.324 1221.81 704.428 1213.43 704.564C1196.65 704.841 1179.88 705.258 1163.09 705.722C1129.55 706.654 1096.01 707.81 1062.46 708.965C995.387 711.327 928.316 713.968 861.253 716.797L861.196 716.799L861.141 716.785L638.824 660.253L416.56 603.501L416.691 603.513L205.323 618.416L205.456 618.374L0.932678 742.041Z" fill="#032571"/>
<path d="M0.932678 747.62L206.554 630.311L206.613 630.276L206.682 630.272L417.643 615.972L417.705 615.967L417.766 615.983L640.003 669.389L862.189 723.018L862.084 723.007C929.02 720.408 995.963 717.984 1062.92 715.826C1096.39 714.74 1129.87 713.788 1163.36 713.005C1180.1 712.62 1196.84 712.278 1213.59 712.068C1221.96 711.966 1230.33 711.896 1238.71 711.917C1242.89 711.93 1247.08 711.964 1251.26 712.066C1253.35 712.118 1255.45 712.185 1257.54 712.3C1258.58 712.359 1259.63 712.429 1260.67 712.533C1261.19 712.587 1261.71 712.648 1262.23 712.735C1262.49 712.78 1262.74 712.829 1263 712.901C1263.12 712.935 1263.25 712.977 1263.37 713.033C1263.47 713.087 1263.63 713.17 1263.6 713.314C1263.63 713.17 1263.47 713.088 1263.37 713.034C1263.25 712.979 1263.12 712.937 1263 712.903C1262.74 712.832 1262.48 712.784 1262.23 712.741C1261.71 712.655 1261.19 712.595 1260.67 712.544C1259.62 712.443 1258.58 712.376 1257.54 712.32C1255.45 712.212 1253.35 712.152 1251.26 712.106C1247.08 712.018 1242.89 711.997 1238.71 711.997C1230.33 712.002 1221.96 712.1 1213.59 712.229C1196.85 712.492 1180.1 712.887 1163.36 713.327C1129.88 714.211 1096.41 715.306 1062.94 716.397C995.985 718.629 929.045 721.127 862.114 723.801L862.06 723.803L862.009 723.79L639.765 670.406L417.574 616.8L417.698 616.81L206.721 630.88L206.847 630.842L0.932678 747.62Z" fill="#032571"/>
<path d="M0.932678 753.199L207.962 642.771L208.018 642.741L208.082 642.737L418.653 629.271L418.711 629.267L418.769 629.281L640.932 679.538L863.046 730.02L862.946 730.011C929.752 727.565 996.562 725.287 1063.38 723.257C1096.79 722.235 1130.2 721.343 1163.62 720.61C1180.33 720.249 1197.04 719.929 1213.75 719.733C1222.11 719.638 1230.45 719.572 1238.81 719.593C1243 719.607 1247.17 719.64 1251.35 719.735C1253.44 719.785 1255.52 719.848 1257.61 719.957C1258.65 720.013 1259.7 720.078 1260.74 720.176C1261.26 720.226 1261.77 720.283 1262.29 720.366C1262.55 720.407 1262.81 720.453 1263.06 720.52C1263.19 720.552 1263.31 720.59 1263.44 720.643C1263.55 720.695 1263.7 720.766 1263.68 720.911C1263.7 720.766 1263.54 720.696 1263.43 720.644C1263.31 720.592 1263.19 720.554 1263.06 720.523C1262.81 720.457 1262.55 720.411 1262.29 720.37C1261.77 720.291 1261.26 720.235 1260.74 720.186C1259.7 720.091 1258.65 720.028 1257.61 719.977C1255.52 719.876 1253.44 719.819 1251.35 719.775C1247.17 719.693 1242.99 719.673 1238.81 719.674C1230.47 719.68 1222.11 719.772 1213.75 719.895C1197.04 720.144 1180.33 720.517 1163.63 720.931C1130.21 721.767 1096.81 722.801 1063.4 723.828C996.583 725.933 929.776 728.285 862.975 730.805L862.925 730.807L862.875 730.796L640.708 680.559L418.588 630.099L418.703 630.109L208.119 643.343L208.24 643.309L0.932678 753.199Z" fill="#032571"/>
<path d="M0.932678 758.779L209.368 655.232L209.423 655.205L209.482 655.202L419.663 642.569L419.717 642.566L419.772 642.578L641.861 689.688L863.904 737.022L863.81 737.014C930.483 734.723 997.161 732.589 1063.84 730.688C1097.19 729.73 1130.53 728.899 1163.88 728.214C1180.56 727.878 1197.24 727.58 1213.91 727.398C1222.25 727.311 1230.59 727.25 1238.93 727.271C1243.09 727.284 1247.27 727.315 1251.43 727.405C1253.52 727.451 1255.61 727.511 1257.68 727.613C1258.73 727.665 1259.77 727.726 1260.8 727.819C1261.33 727.865 1261.85 727.92 1262.36 727.996C1262.62 728.034 1262.88 728.078 1263.13 728.14C1263.26 728.17 1263.39 728.204 1263.5 728.254C1263.61 728.302 1263.78 728.363 1263.76 728.509C1263.78 728.363 1263.61 728.304 1263.5 728.255C1263.39 728.206 1263.26 728.172 1263.13 728.141C1262.88 728.081 1262.62 728.038 1262.36 728.001C1261.85 727.926 1261.33 727.875 1260.8 727.829C1259.77 727.74 1258.73 727.682 1257.68 727.633C1255.61 727.539 1253.52 727.485 1251.43 727.445C1247.27 727.369 1243.09 727.351 1238.93 727.351C1230.59 727.357 1222.25 727.445 1213.91 727.56C1197.24 727.795 1180.56 728.147 1163.89 728.537C1130.54 729.324 1097.21 730.296 1063.86 731.26C997.181 733.235 930.505 735.444 863.838 737.808L863.789 737.811L863.743 737.801L641.649 690.712L419.603 643.4L419.711 643.407L209.518 655.807L209.63 655.777L0.932678 758.779Z" fill="#032571"/>
<path d="M0.932678 764.358L210.775 667.693L210.827 667.67L210.883 667.666L420.673 655.869L420.723 655.866L420.775 655.875L642.79 699.837L864.761 744.024L864.674 744.018C931.215 741.881 997.761 739.891 1064.32 738.12C1097.59 737.227 1130.87 736.454 1164.15 735.82C1180.79 735.508 1197.43 735.232 1214.07 735.063C1222.4 734.983 1230.72 734.926 1239.05 734.947C1243.2 734.96 1247.36 734.99 1251.53 735.075C1253.6 735.118 1255.68 735.174 1257.76 735.27C1258.8 735.318 1259.85 735.375 1260.88 735.462C1261.39 735.505 1261.91 735.555 1262.43 735.626C1262.69 735.662 1262.94 735.703 1263.2 735.759C1263.32 735.788 1263.45 735.819 1263.58 735.865C1263.68 735.912 1263.85 735.96 1263.84 736.105C1263.85 735.96 1263.68 735.913 1263.58 735.866C1263.45 735.821 1263.32 735.79 1263.2 735.762C1262.94 735.706 1262.69 735.666 1262.43 735.631C1261.91 735.562 1261.39 735.513 1260.88 735.472C1259.83 735.389 1258.8 735.335 1257.76 735.29C1255.68 735.201 1253.6 735.152 1251.53 735.115C1247.36 735.043 1243.2 735.027 1239.05 735.029C1230.72 735.035 1222.4 735.118 1214.07 735.226C1197.44 735.447 1180.79 735.777 1164.16 736.142C1130.88 736.88 1097.6 737.793 1064.33 738.692C997.779 740.538 931.236 742.602 864.699 744.813L864.655 744.815L864.611 744.805L642.591 700.865L420.616 656.698L420.718 656.705L210.916 668.271L211.022 668.244L0.932678 764.358Z" fill="#032571"/>
<path d="M0.932678 769.937L212.184 680.153L212.231 680.133L212.283 680.13L421.682 669.167L421.73 669.165L421.777 669.173L643.718 709.986L865.618 751.028L865.537 751.021C931.948 749.039 998.361 747.194 1064.78 745.551C1097.99 744.722 1131.21 744.011 1164.41 743.425C1181.02 743.137 1197.63 742.882 1214.24 742.729C1222.55 742.655 1230.84 742.604 1239.15 742.625C1243.31 742.637 1247.46 742.665 1251.61 742.744C1253.69 742.784 1255.77 742.837 1257.84 742.925C1258.88 742.971 1259.91 743.024 1260.95 743.104C1261.47 743.144 1261.98 743.191 1262.5 743.257C1262.75 743.289 1263.01 743.328 1263.27 743.379C1263.4 743.406 1263.52 743.435 1263.64 743.477C1263.76 743.522 1263.92 743.558 1263.92 743.703C1263.92 743.558 1263.76 743.523 1263.64 743.479C1263.52 743.436 1263.4 743.408 1263.27 743.383C1263.01 743.331 1262.75 743.293 1262.5 743.261C1261.98 743.198 1261.47 743.153 1260.95 743.114C1259.91 743.038 1258.88 742.988 1257.84 742.945C1255.77 742.864 1253.69 742.819 1251.61 742.784C1247.46 742.719 1243.31 742.704 1239.15 742.705C1230.86 742.713 1222.55 742.789 1214.24 742.892C1197.64 743.098 1181.02 743.407 1164.42 743.748C1131.21 744.437 1098 745.289 1064.79 746.125C998.378 747.841 931.966 749.761 865.56 751.817L865.519 751.818L865.478 751.811L643.534 711.018L421.63 669.997L421.725 670.004L212.313 680.735L212.413 680.712L0.932678 769.937Z" fill="#032571"/>
<path d="M0.932678 775.516L213.591 692.615L213.635 692.597L213.684 692.595L422.692 682.466L422.737 682.463L422.781 682.472L644.646 720.136L866.476 758.03L866.4 758.025C932.678 756.197 998.96 754.496 1065.25 752.983C1098.39 752.218 1131.53 751.566 1164.69 751.03C1181.26 750.766 1197.83 750.533 1214.41 750.394C1222.7 750.328 1230.98 750.281 1239.27 750.302C1243.41 750.313 1247.55 750.34 1251.71 750.413C1253.77 750.451 1255.85 750.501 1257.92 750.582C1258.95 750.624 1259.98 750.673 1261.02 750.747C1261.53 750.784 1262.05 750.827 1262.56 750.887C1262.83 750.917 1263.08 750.953 1263.33 751C1263.46 751.024 1263.59 751.051 1263.71 751.09C1263.82 751.132 1264 751.157 1264.01 751.301C1264 751.157 1263.82 751.133 1263.71 751.091C1263.59 751.053 1263.46 751.027 1263.33 751.003C1263.08 750.956 1262.83 750.922 1262.56 750.893C1262.05 750.834 1261.53 750.793 1261.02 750.757C1259.98 750.687 1258.95 750.641 1257.92 750.602C1255.84 750.527 1253.77 750.485 1251.7 750.454C1247.55 750.394 1243.41 750.381 1239.27 750.383C1230.98 750.389 1222.7 750.463 1214.41 750.556C1197.84 750.75 1181.26 751.037 1164.69 751.353C1131.54 751.993 1098.4 752.785 1065.26 753.557C998.977 755.144 932.697 756.919 866.422 758.82L866.384 758.822L866.346 758.815L644.475 721.171L422.644 683.297L422.731 683.302L213.711 693.199L213.804 693.179L0.932678 775.516Z" fill="#032571"/>
<path d="M0.932678 781.095L214.998 705.076L215.039 705.062L215.084 705.06L423.702 695.765L423.742 695.763L423.783 695.769L645.575 730.287L867.332 765.033L867.263 765.028C933.411 763.355 999.56 761.8 1065.71 760.416C1098.79 759.715 1131.87 759.122 1164.95 758.636C1181.49 758.397 1198.03 758.186 1214.57 758.06C1222.84 757.999 1231.12 757.959 1239.38 757.978C1243.53 757.99 1247.66 758.015 1251.79 758.083C1253.86 758.118 1255.92 758.164 1257.99 758.239C1259.02 758.277 1260.06 758.323 1261.09 758.39C1261.61 758.424 1262.12 758.463 1262.64 758.519C1262.89 758.546 1263.16 758.579 1263.41 758.622C1263.53 758.643 1263.66 758.667 1263.79 758.702C1263.89 758.743 1264.07 758.757 1264.09 758.898C1264.07 758.758 1263.89 758.744 1263.79 758.703C1263.66 758.67 1263.53 758.646 1263.41 758.624C1263.16 758.582 1262.89 758.55 1262.64 758.524C1262.12 758.47 1261.61 758.432 1261.09 758.399C1260.06 758.335 1259.02 758.294 1257.99 758.258C1255.92 758.19 1253.86 758.152 1251.79 758.124C1247.66 758.069 1243.53 758.058 1239.38 758.06C1231.12 758.066 1222.84 758.135 1214.58 758.223C1198.03 758.402 1181.5 758.666 1164.96 758.959L1065.73 760.989C999.575 762.447 933.427 764.078 867.283 765.824L867.248 765.826L867.213 765.82L645.418 731.324L423.658 696.596L423.738 696.6L215.11 705.663L215.194 705.646L0.932678 781.095Z" fill="#032571"/>
<path d="M0.932678 786.675L216.407 717.537L216.445 717.526L216.484 717.524L424.712 709.063L424.749 709.062L424.786 709.066L646.503 740.435L868.189 772.035L868.126 772.032C934.142 770.515 1000.16 769.104 1066.18 767.849C1099.19 767.211 1132.21 766.679 1165.22 766.242C1181.72 766.027 1198.23 765.837 1214.74 765.725C1222.99 765.672 1231.25 765.637 1239.5 765.656C1243.63 765.666 1247.75 765.691 1251.89 765.753C1253.94 765.785 1256.01 765.826 1258.07 765.895C1259.11 765.93 1260.13 765.971 1261.16 766.033C1261.68 766.063 1262.2 766.099 1262.71 766.15C1262.97 766.174 1263.22 766.204 1263.47 766.242C1263.61 766.263 1263.73 766.285 1263.86 766.317C1263.97 766.355 1264.15 766.36 1264.18 766.494C1264.15 766.36 1263.97 766.357 1263.86 766.317C1263.73 766.287 1263.61 766.265 1263.47 766.246C1263.22 766.208 1262.97 766.178 1262.71 766.155C1262.2 766.107 1261.68 766.073 1261.16 766.042C1260.13 765.984 1259.11 765.947 1258.07 765.915C1256.01 765.854 1253.94 765.819 1251.89 765.793C1247.75 765.744 1243.63 765.735 1239.5 765.737C1231.25 765.744 1222.99 765.807 1214.74 765.888C1198.24 766.053 1181.73 766.296 1165.22 766.565L1066.19 768.422C1000.17 769.751 934.157 771.236 868.145 772.828H868.112L868.081 772.824L646.36 741.475L424.672 709.895L424.745 709.899L216.508 718.126L216.585 718.113L0.932678 786.675Z" fill="#032571"/>
<path d="M0.932678 792.253L217.815 729.999L217.849 729.989L217.885 729.987L425.722 722.361L425.755 722.36L425.788 722.365L647.432 750.586L869.046 779.039L868.99 779.035C934.874 777.673 1000.76 776.406 1066.65 775.28C1099.59 774.707 1132.54 774.235 1165.49 773.848L1214.91 773.391L1239.62 773.332L1251.98 773.422L1258.15 773.552L1261.24 773.676L1262.78 773.781C1263.04 773.803 1263.29 773.829 1263.55 773.864C1263.79 773.921 1264.1 773.896 1264.25 774.092C1264.1 773.897 1263.79 773.923 1263.55 773.868C1263.29 773.833 1263.04 773.808 1262.78 773.785L1261.24 773.686L1258.15 773.571L1251.97 773.463L1239.62 773.413L1214.91 773.554L1165.49 774.171L1066.66 775.854C1000.77 777.054 934.888 778.396 869.006 779.832L868.978 779.833L868.948 779.829L647.303 751.627L425.686 723.195L425.752 723.198L217.906 730.59L217.975 730.58L0.932678 792.253Z" fill="#032571"/>
<path d="M0.932678 797.833L219.222 742.461L219.253 742.453L219.286 742.452L426.732 735.66L426.761 735.659L426.791 735.663L648.36 760.737L869.903 786.042L869.853 786.038C935.607 784.832 1001.36 783.71 1067.12 782.714C1099.99 782.204 1132.87 781.793 1165.75 781.452L1215.07 781.057L1239.74 781.01L1252.07 781.092L1258.23 781.207L1261.31 781.319L1262.85 781.412L1263.62 781.487C1263.86 781.537 1264.17 781.512 1264.34 781.689C1264.17 781.512 1263.86 781.539 1263.62 781.489L1262.85 781.418L1261.31 781.329L1258.23 781.228L1252.07 781.132L1239.74 781.091L1215.07 781.22L1165.76 781.777L1067.12 783.287C1001.37 784.358 935.618 785.554 869.868 786.836H869.841L869.816 786.833L648.245 761.779L426.699 736.494L426.758 736.496L219.304 743.055L219.366 743.046L0.932678 797.833Z" fill="#032571"/>
<path d="M0.932678 803.413L220.631 754.923L220.657 754.917L220.686 754.916L427.742 748.958H427.768L427.794 748.96L649.289 770.886L870.761 793.045L870.716 793.043L1067.59 790.146C1100.4 789.7 1133.21 789.349 1166.02 789.059L1215.24 788.723L1239.86 788.687L1252.16 788.761L1258.32 788.864L1261.39 788.962L1262.92 789.044L1263.69 789.108C1263.94 789.153 1264.23 789.129 1264.42 789.286C1264.23 789.13 1263.94 789.155 1263.69 789.111L1262.92 789.049L1261.39 788.972L1258.32 788.885L1252.16 788.801L1239.86 788.768L1215.24 788.886L1166.02 789.383L1067.6 790.719L870.729 793.839H870.707L870.684 793.837L649.187 771.931L427.713 749.793L427.765 749.795L220.701 755.519L220.756 755.512L0.932678 803.413Z" fill="#032571"/>
<path d="M0.932678 808.991L222.039 767.385L222.061 767.381L222.085 767.38L428.752 762.256H428.774L428.797 762.259L650.217 781.037L871.618 800.048L871.58 800.046L1068.05 797.579C1100.8 797.198 1133.55 796.907 1166.3 796.665L1215.42 796.39L1239.97 796.364L1252.26 796.43L1258.4 796.52L1261.47 796.605L1263 796.676C1263.5 796.729 1264.05 796.69 1264.5 796.884C1264.05 796.691 1263.5 796.732 1263 796.68L1261.47 796.615L1258.4 796.54L1252.26 796.472L1239.97 796.445L1215.42 796.551L1166.3 796.989L1068.06 798.152L871.59 800.843H871.571L871.552 800.841L650.13 782.082L428.727 763.092L428.772 763.094L222.1 767.984L222.147 767.978L0.932678 808.991Z" fill="#032571"/>
<path d="M0.932678 814.571L223.446 779.847L223.466 779.843H223.485L429.763 775.556L429.781 775.555L429.799 775.556L651.145 791.188L872.475 807.051L872.443 807.05L1068.52 805.012L1166.56 804.271L1215.59 804.055L1240.1 804.041L1252.36 804.1L1258.49 804.177L1261.54 804.248C1262.55 804.308 1263.61 804.254 1264.59 804.48C1263.61 804.258 1262.55 804.315 1261.54 804.258L1258.49 804.197L1252.36 804.141L1240.1 804.122L1215.59 804.217L1166.57 804.595L1068.52 805.586L872.453 807.846L872.436 807.847L872.42 807.846L651.073 792.233L429.742 776.392L429.778 776.392L223.498 780.448L223.537 780.444L0.932678 814.571Z" fill="#032571"/>
<path d="M0.932678 820.149L224.855 792.309L224.871 792.308L224.886 792.307L430.772 788.853H430.786L430.802 788.854L639.126 800.595L847.44 812.567L873.478 814.052L899.549 813.821L951.71 813.373L1056.03 812.541L1160.36 811.907L1212.52 811.727L1238.6 811.715L1251.64 811.764L1258.17 811.827L1261.43 811.886C1262.5 811.935 1263.61 811.891 1264.67 812.078C1263.61 811.894 1262.5 811.943 1261.43 811.896L1258.17 811.849L1251.64 811.807L1238.6 811.802L1212.52 811.899L1160.36 812.251L1056.04 813.129L951.716 814.079L899.555 814.585L873.464 814.848L847.42 813.392L639.083 801.657L430.756 789.69L430.785 789.692L224.896 792.912L224.927 792.91L0.932678 820.149Z" fill="#032571"/>
<path d="M0.932678 825.729L226.263 804.772L226.275 804.771H226.287L356.144 803.116L421.073 802.288C431.898 801.885 442.706 802.683 453.518 803.067L485.955 804.433L745.448 815.49L875.183 821.052L1005.04 820.241L1134.91 819.587L1199.83 819.409L1232.3 819.384L1248.53 819.419L1256.64 819.469C1259.35 819.52 1262.06 819.461 1264.75 819.675C1262.06 819.47 1259.35 819.538 1256.64 819.495L1248.53 819.473L1232.3 819.492L1199.83 819.622L1134.91 820.015L1005.05 820.887L875.189 821.845L745.432 816.431L485.942 805.333L453.506 803.93C442.693 803.533 431.886 802.724 421.062 803.114L356.14 803.869L226.295 805.377L226.317 805.376L0.932678 825.729Z" fill="#032571"/>
<path d="M0.932678 831.309L158.702 821.468L198.146 819.045L217.869 817.836L227.731 817.235L237.609 817.148L316.643 816.46L395.677 815.773L415.435 815.601L425.315 815.515L430.255 815.472L432.725 815.45L435.194 815.516L474.693 816.618L632.695 821.027L790.693 825.613L869.693 827.907L874.63 828.05C876.264 828.07 877.919 828.044 879.564 828.043L889.443 828.001L909.2 827.919L948.715 827.76L1106.78 827.196L1185.81 827.07L1225.32 827.056L1245.08 827.082C1251.66 827.128 1258.25 827.059 1264.83 827.271C1258.25 827.081 1251.66 827.171 1245.08 827.147L1225.32 827.186L1185.81 827.332L1106.78 827.719L948.718 828.471L909.203 828.675L889.446 828.778L879.567 828.832C877.918 828.834 876.28 828.863 874.622 828.845L869.684 828.708L790.684 826.503L632.683 822.093L474.685 817.505L435.185 816.359L432.716 816.29L430.248 816.308L425.309 816.346L415.43 816.42L395.675 816.57L316.653 817.168L237.629 817.767L227.751 817.842L217.89 818.432L198.167 819.618L158.723 821.987L0.932678 831.309Z" fill="#032571"/>
<path d="M0.932678 836.887L158.873 831.862L198.36 830.643L218.104 830.036L227.976 829.732C231.267 829.659 234.559 829.686 237.852 829.657L316.861 829.291L395.872 828.924L435.377 828.769L474.878 829.31L632.879 831.47L790.88 833.807L869.88 834.977C876.464 835.125 883.042 835.031 889.629 835.041L909.381 835.006L948.885 834.938C1054.23 834.777 1159.57 834.498 1264.92 834.869C1238.58 834.751 1212.25 834.916 1185.91 834.965L1106.91 835.224L948.886 835.647L909.382 835.761L889.63 835.819C883.049 835.818 876.458 835.918 869.876 835.778L790.875 834.698L632.873 832.535L474.874 830.197L435.373 829.611L395.871 829.722L316.867 829.999L237.861 830.276C234.57 830.3 231.277 830.27 227.986 830.339L218.114 830.632L198.371 831.216L158.885 832.38L0.932678 836.887Z" fill="#032571"/>
<path d="M0.932678 842.467L316.95 842.112L632.966 841.933L948.983 842.112L1265 842.467L948.983 842.822L632.966 843L316.95 842.821L0.932678 842.467Z" fill="#032571"/>
<path d="M782.646 311.998C782.646 344.596 801.59 372.766 829.06 386.116L789.776 278.482C785.067 289.027 782.637 300.448 782.646 311.998ZM920.597 307.842C920.597 297.664 916.941 290.615 913.805 285.129C909.63 278.345 905.718 272.6 905.718 265.817C905.718 258.246 911.459 251.199 919.547 251.199C919.912 251.199 920.258 251.245 920.614 251.265C905.962 237.842 886.441 229.646 865.001 229.646C836.23 229.646 810.917 244.408 796.192 266.766C798.124 266.824 799.945 266.865 801.491 266.865C810.105 266.865 823.439 265.82 823.439 265.82C827.879 265.558 828.402 272.079 823.968 272.604C823.968 272.604 819.506 273.128 814.542 273.389L844.532 362.593L862.555 308.541L849.724 273.385C845.289 273.125 841.088 272.6 841.088 272.6C836.65 272.34 837.17 265.555 841.608 265.817C841.608 265.817 855.208 266.862 863.301 266.862C871.913 266.862 885.249 265.817 885.249 265.817C889.691 265.555 890.213 272.075 885.777 272.6C885.777 272.6 881.306 273.125 876.351 273.385L906.112 361.915L914.327 334.465C917.887 323.074 920.597 314.892 920.597 307.842Z" fill="white"/>
<path d="M866.446 319.201L841.736 391.002C849.291 393.227 857.125 394.357 865.001 394.357C874.591 394.357 883.788 392.699 892.349 389.689C892.121 389.329 891.924 388.949 891.763 388.554L866.446 319.201ZM937.264 272.486C937.618 275.109 937.819 277.925 937.819 280.954C937.819 289.311 936.258 298.706 931.557 310.453L906.401 383.184C930.884 368.907 947.353 342.381 947.353 311.999C947.354 297.681 943.697 284.217 937.264 272.486Z" fill="white"/>
<path d="M865.001 216C812.067 216 769 259.064 769 311.998C769 364.937 812.067 408 865.001 408C917.933 408 961.006 364.937 961.006 311.998C961.005 259.064 917.933 216 865.001 216ZM865.001 403.6C814.495 403.6 773.402 362.507 773.402 311.998C773.402 261.492 814.493 220.402 865.001 220.402C915.505 220.402 956.595 261.492 956.595 311.998C956.595 362.507 915.505 403.6 865.001 403.6Z" fill="white"/>
<path d="M429.821 151.293H496.023V156.561H435.89V196.208H492.437V201.476H435.89V245.006H496.713V250.274H429.821V151.293ZM501.954 151.293H508.988L540.158 194.822L572.017 151.293L615.352 96L544.157 199.397L580.844 250.274H573.534L540.158 203.972L506.643 250.274H499.471L536.434 199.397L501.954 151.293ZM583.465 156.561V151.293H658.907V156.561H624.151V250.274H618.083V156.561H583.465ZM347 151.293H354.586L459.187 308L415.96 250.274L353.344 158.779L353.069 250.274H347V151.293ZM658.296 243.416C657.056 243.416 656.126 242.454 656.126 241.212C656.126 239.969 657.056 239.007 658.296 239.007C659.55 239.007 660.465 239.969 660.465 241.212C660.465 242.454 659.55 243.416 658.296 243.416ZM664.259 237.616H667.506C667.55 239.377 668.834 240.561 670.724 240.561C672.834 240.561 674.03 239.288 674.03 236.906V221.814H677.336V236.921C677.336 241.212 674.856 243.683 670.753 243.683C666.901 243.683 664.259 241.286 664.259 237.616ZM681.661 237.424H684.937C685.218 239.451 687.196 240.738 690.044 240.738C692.701 240.738 694.649 239.362 694.649 237.468C694.649 235.84 693.41 234.864 690.59 234.198L687.845 233.532C683.993 232.63 682.236 230.765 682.236 227.629C682.236 223.826 685.336 221.296 689.985 221.296C694.31 221.296 697.469 223.826 697.661 227.421H694.443C694.133 225.453 692.421 224.225 689.941 224.225C687.329 224.225 685.587 225.483 685.587 227.407C685.587 228.931 686.709 229.804 689.483 230.455L691.83 231.032C696.199 232.053 698 233.828 698 237.039C698 241.123 694.841 243.683 689.793 243.683C685.07 243.683 681.897 241.241 681.661 237.424Z" fill="white"/>
</svg>
