<svg width="1070" height="244" viewBox="0 0 1070 244" fill="none" xmlns="http://www.w3.org/2000/svg">
<path d="M495.461 60.6972H542.991V64.4793H499.818V92.9445H540.416V96.7266H499.818V127.979H543.486V131.761H495.461V60.6972ZM547.249 60.6972H552.299L574.677 91.9493L597.551 60.6972L628.663 21L577.549 95.2337L603.888 131.761H598.64L574.677 98.5182L550.615 131.761H545.466L572.004 95.2337L547.249 60.6972ZM605.769 64.4793V60.6972H659.933V64.4793H634.98V131.761H630.623V64.4793H605.769ZM436 60.6972H441.446L516.544 173.205L485.51 131.761L440.555 66.0718L440.357 131.761H436V60.6972ZM659.494 126.837C658.604 126.837 657.937 126.147 657.937 125.254C657.937 124.362 658.604 123.672 659.494 123.672C660.395 123.672 661.052 124.362 661.052 125.254C661.052 126.147 660.395 126.837 659.494 126.837ZM663.775 122.673H666.107C666.139 123.937 667.061 124.787 668.417 124.787C669.932 124.787 670.791 123.873 670.791 122.163V111.328H673.164V122.174C673.164 125.254 671.384 127.029 668.438 127.029C665.672 127.029 663.775 125.308 663.775 122.673ZM676.269 122.535H678.622C678.823 123.99 680.243 124.915 682.288 124.915C684.196 124.915 685.594 123.927 685.594 122.567C685.594 121.398 684.704 120.697 682.68 120.219L680.709 119.741C677.944 119.093 676.683 117.755 676.683 115.503C676.683 112.772 678.908 110.956 682.246 110.956C685.351 110.956 687.618 112.772 687.756 115.354H685.446C685.224 113.941 683.994 113.059 682.214 113.059C680.338 113.059 679.088 113.962 679.088 115.343C679.088 116.437 679.893 117.064 681.886 117.532L683.57 117.946C686.707 118.679 688 119.954 688 122.259C688 125.191 685.732 127.029 682.108 127.029C678.717 127.029 676.439 125.276 676.269 122.535Z" fill="white"/>
<path d="M67.1813 76.5883C67.1813 100.558 81.1112 121.272 101.311 131.089L72.4242 51.9435C68.9614 59.6978 67.1748 68.0959 67.1813 76.5883ZM168.618 73.5325C168.618 66.0485 165.93 60.8655 163.624 56.8314C160.555 51.8432 157.678 47.619 157.678 42.6308C157.678 37.0641 161.899 31.8823 167.846 31.8823C168.115 31.8823 168.37 31.9157 168.631 31.9307C157.857 22.0603 143.503 16.0339 127.738 16.0339C106.582 16.0339 87.9695 26.8884 77.1416 43.329C78.5623 43.3717 79.9013 43.4016 81.0386 43.4016C87.3726 43.4016 97.1773 42.6331 97.1773 42.6331C100.442 42.4406 100.827 47.2352 97.5657 47.6213C97.5657 47.6213 94.2851 48.0073 90.6347 48.1986L112.687 113.792L125.939 74.0464L116.504 48.1962C113.244 48.005 110.154 47.619 110.154 47.619C106.891 47.4277 107.274 42.4383 110.537 42.6308C110.537 42.6308 120.537 43.3993 126.488 43.3993C132.821 43.3993 142.627 42.6308 142.627 42.6308C145.893 42.4383 146.277 47.2329 143.015 47.619C143.015 47.619 139.727 48.005 136.084 48.1962L157.968 113.293L164.008 93.1085C166.626 84.7326 168.618 78.7166 168.618 73.5325Z" fill="white"/>
<path d="M128.8 81.8851L110.631 134.681C116.186 136.317 121.947 137.148 127.738 137.148C134.79 137.148 141.553 135.929 147.848 133.716C147.68 133.451 147.535 133.172 147.417 132.881L128.8 81.8851ZM180.874 47.5347C181.135 49.4636 181.282 51.5342 181.282 53.7616C181.282 59.9066 180.134 66.8145 176.678 75.452L158.18 128.933C176.183 118.434 188.292 98.9296 188.292 76.5893C188.294 66.0609 185.604 56.1606 180.874 47.5347Z" fill="white"/>
<path d="M127.738 6C88.8153 6 57.1473 37.6657 57.1473 76.5884C57.1473 115.516 88.8153 147.18 127.738 147.18C166.66 147.18 198.332 115.516 198.332 76.5884C198.331 37.6657 166.66 6 127.738 6ZM127.738 143.945C90.6002 143.945 60.3841 113.729 60.3841 76.5884C60.3841 39.4506 90.599 9.23674 127.738 9.23674C164.875 9.23674 195.089 39.4506 195.089 76.5884C195.089 113.729 164.875 143.945 127.738 143.945Z" fill="white"/>
<path d="M99.1167 165.309C97.9267 165.309 96.8409 165.468 95.8592 165.784C94.9072 166.076 94.0728 166.567 93.3558 167.257C92.6671 167.919 92.1108 168.78 91.6869 169.841C91.2898 170.9 91.0644 172.164 91.0109 173.634C90.9276 176.018 90.9276 178.402 91.0109 180.787C91.0644 182.27 91.2898 183.534 91.6869 184.58C92.1108 185.639 92.6671 186.513 93.3558 187.203C94.0698 187.865 94.9042 188.356 95.8592 188.676C96.8409 188.967 97.9267 189.113 99.1167 189.113C100.286 189.113 101.372 188.955 102.374 188.638C103.377 188.293 104.238 187.792 104.958 187.134C105.702 186.446 106.286 185.571 106.711 184.51C107.135 183.451 107.347 182.206 107.347 180.775V178.75H100.424C99.841 178.75 99.5495 178.452 99.5495 177.857V177.299C99.5495 176.704 99.841 176.407 100.424 176.407H108.925C109.52 176.407 109.817 176.704 109.817 177.299V180.796C109.817 182.387 109.579 183.845 109.103 185.169C108.627 186.467 107.925 187.595 106.997 188.551C106.097 189.503 104.97 190.244 103.615 190.775C102.276 191.278 100.766 191.53 99.0854 191.53C97.363 191.53 95.8532 191.278 94.5562 190.775C93.2577 190.246 92.1584 189.517 91.2585 188.589C90.3839 187.662 89.7086 186.563 89.2327 185.291C88.782 183.993 88.5306 182.562 88.4785 180.999C88.425 179.809 88.3982 178.55 88.3982 177.223C88.3982 175.885 88.425 174.626 88.4785 173.448C88.5321 171.887 88.7968 170.469 89.2728 169.196C89.7488 167.897 90.4241 166.785 91.2987 165.858C92.1986 164.931 93.2978 164.216 94.5963 163.712C95.8949 163.182 97.3912 162.917 99.0854 162.917C100.915 162.917 102.478 163.195 103.775 163.752C105.074 164.308 106.134 164.977 106.955 165.76C107.776 166.529 108.386 167.337 108.784 168.185C109.181 169.033 109.393 169.735 109.42 170.291C109.447 170.529 109.38 170.728 109.219 170.887C109.06 171.021 108.848 171.088 108.583 171.088H107.709C107.471 171.088 107.298 171.036 107.191 170.932C107.087 170.798 106.981 170.586 106.874 170.296C106.663 169.701 106.366 169.106 105.982 168.511C105.61 167.916 105.109 167.386 104.478 166.922C103.843 166.446 103.088 166.062 102.213 165.769C101.339 165.477 100.305 165.331 99.1122 165.331L99.1167 165.309ZM117.876 173.214C118.828 171.385 120.629 170.47 123.28 170.47H124.753C125.336 170.47 125.627 170.761 125.627 171.344V171.902C125.627 172.485 125.336 172.777 124.753 172.777H123.044C121.452 172.777 120.194 173.24 119.268 174.167C118.342 175.093 117.878 176.352 117.878 177.942V190.258C117.878 190.523 117.785 190.735 117.6 190.894C117.44 191.053 117.228 191.132 116.964 191.132H116.328C115.745 191.132 115.453 190.841 115.453 190.258V171.382C115.453 171.118 115.533 170.906 115.692 170.746C115.851 170.56 116.063 170.468 116.328 170.468H116.964C117.228 170.468 117.44 170.56 117.6 170.746C117.785 170.906 117.878 171.118 117.878 171.382V173.212L117.876 173.214ZM142.419 191.144C141.836 191.144 141.544 190.852 141.544 190.269V188.402C141.306 188.773 140.989 189.145 140.592 189.517C140.22 189.889 139.756 190.22 139.202 190.51C138.645 190.801 137.976 191.039 137.193 191.224C136.424 191.435 135.525 191.541 134.494 191.541C133.542 191.541 132.627 191.395 131.749 191.103C130.902 190.787 130.147 190.363 129.485 189.832C128.85 189.302 128.334 188.68 127.936 187.964C127.565 187.25 127.379 186.469 127.379 185.621C127.379 184.722 127.565 183.913 127.936 183.196C128.334 182.482 128.876 181.86 129.565 181.329C130.254 180.772 131.075 180.323 132.028 179.979C133.01 179.607 134.083 179.342 135.248 179.185L141.526 178.31V176.92C141.526 175.489 141.089 174.376 140.214 173.582C139.367 172.788 138.003 172.391 136.123 172.391C134.64 172.391 133.487 172.682 132.664 173.265C131.87 173.822 131.369 174.432 131.16 175.095C131.056 175.412 130.924 175.637 130.763 175.771C130.629 175.875 130.443 175.927 130.206 175.927H129.648C129.41 175.927 129.198 175.848 129.012 175.688C128.853 175.502 128.773 175.291 128.773 175.053C128.773 174.681 128.905 174.217 129.17 173.663C129.435 173.106 129.859 172.563 130.442 172.034C131.037 171.504 131.805 171.054 132.747 170.684C133.673 170.287 134.801 170.088 136.129 170.088C137.691 170.088 138.976 170.3 139.985 170.724C141.017 171.148 141.825 171.704 142.41 172.393C142.993 173.055 143.39 173.796 143.601 174.617C143.839 175.439 143.958 176.247 143.958 177.043V190.273C143.958 190.857 143.667 191.148 143.084 191.148H142.408L142.419 191.144ZM134.909 189.236C135.809 189.236 136.657 189.09 137.452 188.799C138.273 188.482 138.989 188.018 139.599 187.409C140.194 186.814 140.67 186.045 141.027 185.104C141.372 184.177 141.544 183.091 141.544 181.846V180.497L136.419 181.211C132.022 181.805 129.824 183.21 129.824 185.423C129.824 186.085 129.97 186.655 130.261 187.132C130.578 187.608 130.975 188.005 131.453 188.323C131.929 188.64 132.472 188.878 133.081 189.037C133.676 189.171 134.286 189.238 134.911 189.238L134.909 189.236ZM159.353 191.541C157.684 191.541 156.32 191.243 155.261 190.648C154.202 190.053 153.341 189.312 152.678 188.424V197.839C152.678 198.422 152.386 198.714 151.803 198.714H151.127C150.544 198.714 150.252 198.422 150.252 197.839V171.344C150.252 170.761 150.544 170.47 151.127 170.47H151.803C152.386 170.47 152.678 170.761 152.678 171.344V173.212C153.34 172.312 154.201 171.57 155.261 170.987C156.32 170.392 157.684 170.095 159.353 170.095C160.89 170.095 162.188 170.373 163.247 170.929C164.332 171.459 165.207 172.174 165.87 173.076C166.532 173.95 167.008 174.957 167.298 176.097C167.615 177.209 167.801 178.349 167.856 179.515C167.883 179.912 167.896 180.349 167.896 180.827C167.896 181.303 167.883 181.74 167.856 182.139C167.803 183.308 167.617 184.461 167.298 185.597C167.007 186.71 166.531 187.717 165.87 188.618C165.209 189.493 164.334 190.208 163.247 190.764C162.188 191.294 160.89 191.559 159.353 191.559V191.541ZM152.678 179.381C152.651 179.778 152.637 180.294 152.637 180.929C152.637 181.565 152.651 182.081 152.678 182.478C152.704 183.272 152.837 184.081 153.075 184.903C153.34 185.697 153.737 186.413 154.266 187.049C154.796 187.685 155.465 188.214 156.274 188.638C157.069 189.035 158.022 189.234 159.135 189.234C160.304 189.234 161.271 189.035 162.035 188.638C162.829 188.241 163.465 187.711 163.943 187.049C164.445 186.361 164.802 185.58 165.014 184.707C165.252 183.807 165.397 182.879 165.451 181.924C165.478 181.181 165.478 180.439 165.451 179.7C165.397 178.748 165.252 177.833 165.014 176.956C164.802 176.081 164.445 175.313 163.943 174.651C163.467 173.962 162.831 173.419 162.035 173.022C161.266 172.598 160.299 172.386 159.135 172.386C157.995 172.386 157.028 172.598 156.234 173.022C155.44 173.446 154.77 174.002 154.226 174.691C153.723 175.353 153.339 176.094 153.073 176.916C152.835 177.737 152.702 178.558 152.675 179.379L152.678 179.381ZM175.732 173.214C176.446 172.287 177.307 171.533 178.316 170.949C179.318 170.366 180.682 170.075 182.408 170.075C183.758 170.075 184.937 170.3 185.944 170.751C186.947 171.202 187.781 171.824 188.447 172.618C189.136 173.413 189.652 174.353 189.996 175.441C190.341 176.527 190.514 177.705 190.514 178.977V190.262C190.514 190.845 190.222 191.137 189.639 191.137H188.97C188.386 191.137 188.095 190.845 188.095 190.262V179.173C188.095 177.054 187.579 175.398 186.547 174.207C185.514 172.987 184.005 172.377 182.017 172.377C180.11 172.377 178.587 172.972 177.448 174.162C176.309 175.352 175.739 177.023 175.739 179.176V190.265C175.739 190.848 175.447 191.139 174.864 191.139H174.188C173.605 191.139 173.314 190.848 173.314 190.265V163.792C173.314 163.209 173.605 162.917 174.188 162.917H174.864C175.447 162.917 175.739 163.209 175.739 163.792V173.207L175.732 173.214ZM206.723 162.924C208.259 162.924 209.663 163.149 210.935 163.6C212.207 164.051 213.293 164.739 214.193 165.666C215.119 166.566 215.835 167.705 216.339 169.084C216.869 170.435 217.16 172.038 217.214 173.892C217.267 175.082 217.294 176.195 217.294 177.23C217.294 178.262 217.267 179.375 217.214 180.568C217.08 184.356 216.113 187.138 214.313 188.912L216.857 192.489C216.883 192.543 216.91 192.595 216.937 192.645C216.964 192.699 216.977 192.792 216.977 192.924C216.977 193.135 216.898 193.321 216.738 193.482C216.579 193.641 216.393 193.721 216.181 193.721H215.306C215.015 193.721 214.763 193.602 214.552 193.364C214.341 193.152 214.168 192.966 214.034 192.806L212.281 190.381C210.689 191.15 208.834 191.534 206.716 191.534C203.405 191.534 200.849 190.647 199.048 188.872C197.273 187.098 196.332 184.33 196.225 180.568C196.172 179.378 196.145 178.265 196.145 177.23C196.145 176.198 196.172 175.085 196.225 173.892C196.279 172.038 196.557 170.435 197.06 169.084C197.589 167.707 198.305 166.567 199.206 165.666C200.133 164.739 201.219 164.051 202.464 163.6C203.735 163.149 205.153 162.924 206.716 162.924H206.723ZM206.723 165.311C205.61 165.311 204.576 165.484 203.622 165.829C202.67 166.146 201.835 166.662 201.118 167.377C200.404 168.091 199.835 169.006 199.409 170.122C199.012 171.234 198.787 172.558 198.733 174.093C198.706 174.688 198.68 175.244 198.653 175.762C198.653 176.265 198.653 176.756 198.653 177.235C198.653 177.711 198.653 178.212 198.653 178.738C198.68 179.241 198.706 179.784 198.733 180.367C198.787 181.929 199.012 183.268 199.409 184.383C199.833 185.469 200.389 186.369 201.078 187.083C201.792 187.797 202.626 188.326 203.581 188.671C204.533 188.988 205.578 189.147 206.714 189.147C207.853 189.147 208.897 188.988 209.846 188.671C210.798 188.326 211.619 187.797 212.31 187.083C213.024 186.369 213.58 185.469 213.979 184.383C214.402 183.271 214.64 181.932 214.693 180.367C214.719 179.784 214.733 179.241 214.733 178.738C214.733 178.209 214.733 177.708 214.733 177.235C214.733 176.759 214.733 176.268 214.733 175.762C214.733 175.259 214.719 174.703 214.693 174.093C214.639 172.557 214.401 171.233 213.979 170.122C213.581 169.009 213.025 168.094 212.31 167.377C211.596 166.663 210.761 166.147 209.806 165.829C208.854 165.484 207.821 165.311 206.705 165.311H206.723ZM226.118 188.752H239.826C240.421 188.752 240.719 189.049 240.719 189.644V190.24C240.719 190.823 240.421 191.115 239.826 191.115H224.489C223.906 191.115 223.615 190.823 223.615 190.24V164.194C223.615 163.61 223.906 163.319 224.489 163.319H225.244C225.827 163.319 226.118 163.61 226.118 164.194V188.75V188.752ZM16.1692 199.937L13.4918 198.388L43.3401 146.692L46.0175 148.241L16.1692 199.937Z" fill="white"/>
<path d="M12.8827 194.26H72.5793V197.355H12.8827V194.26Z" fill="white"/>
<path d="M43.9247 213.239L14.0629 195.999L15.6114 193.321L45.4708 210.557L43.9247 213.239ZM69.864 168.303L40.0045 151.066L41.553 148.388L71.4124 165.628L69.864 168.303Z" fill="white"/>
<path d="M15.618 168.294L14.0696 165.617L43.9536 148.397L45.5021 151.074L15.618 168.294Z" fill="white"/>
<path d="M69.3129 199.937L39.4623 148.241L42.1397 146.692L71.988 198.388L69.3129 199.937ZM15.2499 163.564H18.34V198.045H15.2499V163.564ZM67.1375 163.564H70.2321V198.045H67.1353L67.1375 163.564Z" fill="white"/>
<path d="M43.3959 211.929L42.0438 209.587L68.0144 194.593L69.3665 196.936L43.3959 211.929Z" fill="white"/>
<path d="M74.3331 199.051C73.4692 200.545 72.0478 201.635 70.3808 202.083C68.7139 202.53 66.9376 202.297 65.4419 201.436C63.9477 200.572 62.8574 199.151 62.4102 197.484C61.9631 195.817 62.1956 194.041 63.0568 192.545C63.9206 191.051 65.3421 189.96 67.009 189.513C68.676 189.066 70.4523 189.299 71.948 190.16C75.0805 191.945 76.1425 195.961 74.3353 199.051H74.3331ZM22.4097 169.064C21.5459 170.558 20.1245 171.649 18.4575 172.096C16.7905 172.543 15.0142 172.311 13.5186 171.449C12.0244 170.586 10.9341 169.164 10.4869 167.497C10.0397 165.83 10.2723 164.054 11.1335 162.558C11.9973 161.064 13.4187 159.974 15.0857 159.527C16.7526 159.079 18.5289 159.312 20.0246 160.173C23.1371 161.958 24.1969 165.974 22.4119 169.064H22.4097ZM11.1535 199.051C9.36417 195.939 10.4262 191.969 13.5409 190.16C16.6533 188.37 20.6226 189.432 22.432 192.547C24.2214 195.66 23.1594 199.629 20.0447 201.438C16.9121 203.228 12.9429 202.166 11.1535 199.051ZM63.0791 169.064C61.2897 165.952 62.3518 161.983 65.4665 160.173C68.5789 158.384 72.5481 159.446 74.3576 162.56C76.147 165.673 75.0849 169.642 71.9703 171.452C70.4746 172.313 68.6983 172.545 67.0313 172.098C65.3644 171.651 63.943 170.561 63.0791 169.067V169.064ZM42.7377 217.304C39.1411 217.304 36.2339 214.397 36.2339 210.8C36.2339 207.204 39.1478 204.296 42.7377 204.296C46.3276 204.296 49.2415 207.204 49.2415 210.8C49.2386 212.524 48.5524 214.177 47.3333 215.396C46.1143 216.615 44.4617 217.301 42.7377 217.304ZM42.7377 157.326C39.1411 157.326 36.2339 154.419 36.2339 150.822C36.2339 147.226 39.1478 144.319 42.7377 144.319C46.3276 144.319 49.2415 147.226 49.2415 150.822C49.243 151.677 49.0758 152.523 48.7494 153.313C48.4231 154.103 47.9441 154.82 47.3399 155.425C46.7357 156.029 46.0181 156.508 45.2284 156.834C44.4386 157.16 43.5922 157.328 42.7377 157.326Z" fill="white"/>
<path d="M389.066 94.0018C389.652 93.416 389.652 92.4663 389.066 91.8805L379.52 82.3346C378.934 81.7488 377.985 81.7488 377.399 82.3346C376.813 82.9203 376.813 83.8701 377.399 84.4559L385.884 92.9412L377.399 101.426C376.813 102.012 376.813 102.962 377.399 103.548C377.985 104.134 378.934 104.134 379.52 103.548L389.066 94.0018ZM225.993 94.4412H388.005V91.4412H225.993V94.4412Z" fill="white"/>
<path d="M868.073 94.0018C868.659 93.416 868.659 92.4663 868.073 91.8805L858.527 82.3346C857.941 81.7488 856.992 81.7488 856.406 82.3346C855.82 82.9203 855.82 83.8701 856.406 84.4559L864.891 92.9412L856.406 101.426C855.82 102.012 855.82 102.962 856.406 103.548C856.992 104.134 857.941 104.134 858.527 103.548L868.073 94.0018ZM705 94.4412H867.012V91.4412H705V94.4412Z" fill="white"/>
<path d="M907.676 85.25H922.75C926.861 85.25 930.803 86.883 933.71 89.7898C936.617 92.6967 938.25 96.6391 938.25 100.75V108.5C938.25 112.611 939.883 116.553 942.79 119.46C945.697 122.367 949.639 124 953.75 124C957.861 124 961.803 125.633 964.71 128.54C967.617 131.447 969.25 135.389 969.25 139.5V162.324M946 30.4962V42.625C946 47.7636 948.041 52.6917 951.675 56.3252C955.308 59.9587 960.236 62 965.375 62H969.25C973.361 62 977.303 63.633 980.21 66.5398C983.117 69.4467 984.75 73.3891 984.75 77.5C984.75 81.6109 986.383 85.5533 989.29 88.4601C992.197 91.367 996.139 93 1000.25 93C1004.36 93 1008.3 91.367 1011.21 88.4601C1014.12 85.5533 1015.75 81.6109 1015.75 77.5C1015.75 73.3891 1017.38 69.4467 1020.29 66.5398C1023.2 63.633 1027.14 62 1031.25 62H1039.5M1000.25 158.782V139.5C1000.25 135.389 1001.88 131.447 1004.79 128.54C1007.7 125.633 1011.64 124 1015.75 124H1039.5M1046.75 93C1046.75 102.16 1044.95 111.23 1041.44 119.692C1037.94 128.155 1032.8 135.844 1026.32 142.321C1019.84 148.798 1012.15 153.935 1003.69 157.441C995.23 160.946 986.16 162.75 977 162.75C967.84 162.75 958.77 160.946 950.308 157.441C941.845 153.935 934.156 148.798 927.679 142.321C921.202 135.844 916.065 128.155 912.559 119.692C909.054 111.23 907.25 102.16 907.25 93C907.25 74.5012 914.599 56.76 927.679 43.6793C940.76 30.5986 958.501 23.25 977 23.25C995.499 23.25 1013.24 30.5986 1026.32 43.6793C1039.4 56.76 1046.75 74.5012 1046.75 93Z" stroke="white" stroke-width="5" stroke-linecap="round" stroke-linejoin="round"/>
</svg>
