<svg width="459" height="322" viewBox="0 0 459 322" fill="none" xmlns="http://www.w3.org/2000/svg">
<path d="M127.352 129.343C126.291 127.485 127.795 122.378 128.679 120.056C145.593 106.79 164.165 99.4942 167.482 98.4993C170.135 97.7033 169.693 99.7153 169.14 100.821L161.844 103.474V106.79L165.823 108.449V113.423H167.482L173.451 102.811H177.763L180.084 105.464H181.743V108.449L184.727 112.097L176.768 117.072L180.084 118.73L175.11 121.715L173.451 121.051L166.487 126.358V129.343L161.18 133.322L160.185 140.95H158.196V136.307L157.201 135.975C155.763 135.975 152.292 136.042 149.904 136.307C146.92 136.639 145.593 142.608 144.93 142.94C144.399 143.205 145.814 145.925 146.588 147.251L152.889 146.257L153.552 150.568L156.206 151.563V156.869L159.19 158.196L164.165 154.548V155.874H165.823V154.548L170.135 156.869H174.446L178.758 161.844H181.079L183.069 164.165L191.029 170.467L196.667 172.457V177.431L193.682 184.064L192.687 189.371V194.345H191.029L188.707 193.35L186.386 195.672V200.978L183.069 206.948L181.079 207.943L181.743 210.596H177.431V213.913L175.11 217.892L176.768 218.887L175.11 223.862C175.552 224.083 177.033 225.255 179.421 228.173C176.105 228.505 170.466 225.52 170.135 223.862C169.87 222.535 168.698 220.656 168.145 219.882L167.482 212.254C167.592 211.702 167.88 210.065 168.145 207.943C168.41 205.82 167.371 203.3 166.818 202.305L166.487 195.672V188.707L161.18 186.054L156.206 175.11V170.467L159.19 162.507V159.191H154.547L151.563 154.548H148.909L145.593 150.568H140.618C139.513 149.905 137.036 148.313 135.975 147.251C134.649 145.925 136.638 143.272 135.975 140.95C135.445 139.093 133.543 137.744 132.659 137.302V140.95C131.332 137.855 128.414 131.2 127.352 129.343Z" fill="url(#paint0_radial)"/>
<path d="M157.2 142.277L154.879 144.267L159.854 145.262L160.849 147.915L167.15 149.905L168.145 147.583L157.2 142.277Z" fill="url(#paint1_radial)"/>
<path d="M179.421 101.816C177.564 100.489 176.878 97.7254 176.768 96.5094L183.069 94.1879L185.722 97.1727C184.285 98.0571 181.013 100.224 179.421 101.816Z" fill="url(#paint2_radial)"/>
<path d="M195.341 95.1828L194.014 92.5296C200.382 90.4071 211.481 89.6553 216.234 89.5448L207.943 98.4993L204.627 98.1676H200.315L194.677 104.137L191.692 100.821V98.1676L195.341 95.1828Z" fill="url(#paint3_radial)"/>
<path d="M215.571 98.8309H212.254V99.1626V100.821L212.918 101.152H218.224V99.1626L217.229 98.1676H216.234L215.571 98.8309Z" fill="url(#paint4_radial)"/>
<path d="M184.396 114.087L182.738 115.082C182.075 115.48 182.02 116.574 182.075 117.072L183.07 117.735H185.723C186.254 117.735 185.944 116.408 185.723 115.745L184.396 114.087Z" fill="url(#paint5_radial)"/>
<path d="M229.168 103.806L238.123 95.8461C239.56 95.0723 243.429 93.9889 247.409 95.8461C250.327 96.642 251.499 97.2832 251.72 97.5043L248.072 98.4993L251.72 100.821L255.368 98.4993C258.132 98.0571 264.124 96.9074 265.981 95.8461C267.006 95.2605 267.607 95.3885 267.939 95.7509L266.976 92.8613C281.016 94.9617 313.672 103.872 331.979 122.71V132.327L325.678 125.031L323.024 126.358L329.326 133.654L328.662 142.94L322.03 146.92L321.366 143.603L317.386 146.92L321.366 153.884L318.05 158.196L314.07 153.884V160.849L317.386 169.472L318.713 170.798V173.452L325.014 176.436V178.758C322.693 178.316 317.652 177.033 316.06 175.441C314.468 173.85 312.964 169.472 312.412 167.482V159.854L311.417 158.196L310.09 150.9L308.432 152.558L307.437 148.246L305.115 144.598L301.799 145.593L296.493 150.9V155.874L294.503 159.854L292.845 155.874L289.196 150.9V144.598H285.217L283.227 140.95H276.594L274.604 139.292H272.614L268.634 136.307L267.308 137.634L271.619 142.94L273.941 141.613L277.92 143.603C276.373 145.925 271.752 151.231 265.649 153.884C264.323 152.823 264.433 151.01 264.655 150.236L260.343 143.603L258.353 141.613C258.243 139.955 257.557 136.97 255.7 138.297C253.843 139.624 258.022 146.809 260.343 150.236L263.66 155.874L270.293 154.548C270.514 156.648 270.027 162.043 266.313 166.819C263.009 171.066 262.084 171.956 261.998 171.867L261.67 178.426L262.001 180.085V185.059L257.027 189.039V194.677L254.373 196.667L253.71 200.647L248.735 204.958L242.102 205.621L239.118 196.667V192.024L236.796 188.044V185.723L239.118 181.743L238.454 175.441L235.138 171.793L236.796 166.819L218.224 163.834V160.849L211.259 151.895V148.246L212.918 146.92V142.94L218.887 135.312V132.327L222.535 130.006L223.862 131.001L228.505 129.011H235.138V132.327L242.102 135.312L243.429 133.654L254.373 134.649L257.027 129.011L249.399 128.016V125.031L258.353 124.368L259.68 123.373L257.027 120.388L255.7 117.735H250.725L248.735 123.373L246.414 124.368L245.087 128.016L243.429 127.353L242.102 122.378L236.796 119.393V120.388L240.444 124.368V126.358L238.454 127.353V125.031L234.143 120.388H231.821L226.847 128.016H220.214V122.378H223.862L225.852 119.393L223.862 117.735V116.408L228.505 113.423L230.163 111.102L233.48 107.454H234.143V111.102L239.118 110.107L242.766 106.127L242.102 100.158L238.454 103.142V106.79L236.796 108.449L235.138 104.801L232.485 106.127L229.168 103.806Z" fill="url(#paint6_radial)"/>
<path d="M219.218 111.765L221.208 109.444L222.866 110.107L222.203 112.76C221.871 112.981 221.009 113.423 220.213 113.423C219.417 113.423 219.218 112.318 219.218 111.765Z" fill="url(#paint7_radial)"/>
<path d="M224.525 110.77L222.866 107.785V106.459L224.856 106.127L227.841 112.428L222.866 114.75L224.525 110.77Z" fill="url(#paint8_radial)"/>
<path d="M264.655 186.386L268.634 182.406H270.293L270.624 185.059L268.303 188.707V196.004H264.323L263.328 192.024L264.655 191.029V186.386Z" fill="url(#paint9_radial)"/>
<path d="M327.668 159.854L324.683 163.834L321.698 169.472L327.668 174.115L329.326 171.462L330.321 164.829V159.854H327.668Z" fill="url(#paint10_radial)"/>
<path d="M341.597 181.743L345.245 182.074V182.406L344.582 184.064C344.471 184.396 344.582 185.325 345.908 186.386C342.99 194.08 337.175 199.983 334.632 201.973L331.647 202.637L327.668 205.29L321.698 206.285L320.04 203.963L322.693 199.983L323.356 193.35L324.683 192.356L330.321 191.029L334.632 185.059L339.607 184.064L341.597 181.743Z" fill="url(#paint11_radial)"/>
<path d="M107.785 156.538C105.928 155.742 105.243 159.08 105.132 160.849L102.479 152.226C104.248 149.573 107.785 144.93 107.785 147.583C107.785 150.9 115.413 152.889 146.256 161.181C171.196 164.895 185.249 164.226 210.264 163.834C238.979 163.383 259.945 156.272 283.558 157.864C313.075 159.854 327.336 164.497 330.652 165.492C333.969 166.487 343.587 169.803 348.23 171.462C352.873 173.12 352.209 169.472 353.204 165.492C353.735 171.594 351.436 179.532 350.22 182.738C349.999 181.522 348.959 178.625 346.571 176.768C336.622 171.13 301.136 164.497 278.252 163.834C255.368 163.171 236.923 169.583 210.264 170.135C185.246 170.653 157.201 168.809 146.256 167.15C135.312 165.492 110.107 157.533 107.785 156.538Z" fill="url(#paint12_radial)"/>
<path d="M204.958 240.113H99.1626L120.72 214.576C114.75 216.345 101.219 219.816 94.8512 219.551C86.8916 219.219 51.0737 218.224 41.1243 220.877C31.1749 223.53 22.2204 226.184 19.5672 228.173C16.914 230.163 26.2001 216.897 39.466 210.596C52.7319 204.295 74.6207 200.647 86.8916 192.356C96.7084 185.723 100.489 181.632 101.152 180.416L0 162.839L101.152 145.262C94.409 143.161 78.5341 136.904 68.9827 128.679C57.0434 118.398 37.1445 109.444 23.8786 104.801C16.715 102.678 12.4921 101.042 11.276 100.489C20.7832 100.821 41.5223 101.617 48.4205 102.147C57.0434 102.811 79.5954 108.78 85.2334 110.107C90.8714 111.434 116.74 114.087 120.72 112.097C123.903 110.505 98.3887 82.6908 85.2334 68.9827L66.6611 46.7623L156.538 85.565C154.216 82.138 149.706 72.1665 150.236 59.6965C150.9 44.1091 150.236 27.5267 144.267 19.2356C139.491 12.6026 138.076 8.73338 137.965 7.62789C137.965 7.62789 164.939 25.5369 169.472 34.1597C174.004 42.7825 184.927 61.2884 196.335 67.6561C201.111 70.8399 203.853 72.2991 204.626 72.6308L229.832 0L255.037 71.3042C258.132 66.3295 268.236 54.1249 283.89 45.1041C299.544 36.0832 310.975 21.4465 314.733 15.2558L319.045 7.62789C318.382 17.2457 318.873 28.4055 314.733 40.7926C311.355 50.9019 304.784 58.7016 302.131 65.0029C299.478 71.3042 299.478 83.9068 302.131 85.565C311.152 83.1772 342.813 69.3143 357.516 62.6814L392.671 47.7572L366.802 78.2688L338.944 111.434C341.376 110.328 349.623 107.852 363.154 106.79C383.053 107.122 400.962 108.449 409.916 106.79C417.08 105.464 437.885 99.8259 447.392 97.1727L420.529 114.087C416.991 116.298 406.799 121.582 394.329 125.031C378.741 129.343 358.511 138.96 358.511 144.598C368.593 146.721 429.704 157.643 459 162.839L358.511 181.08C364.923 182.406 381.063 188.177 394.329 200.647C412.238 212.586 432.137 221.872 438.438 222.867C444.739 223.862 421.051 224.785 409.916 224.194C391.778 223.231 372.44 214.908 364.48 214.244C358.113 213.714 344.803 214.023 338.944 214.244L359.837 239.781L254.042 240.113C263.439 239.118 287.14 234.607 306.774 224.525C330.984 211.259 340.27 203.3 347.898 188.044C355.526 172.788 355.526 147.251 341.928 129.343C328.331 111.434 293.84 92.8613 260.343 89.2132C226.847 85.565 183.401 86.56 145.925 105.464C108.449 124.368 104.801 155.874 104.801 168.145C104.801 180.416 112.428 203.632 143.935 220.546C166.155 231.158 192.024 240.113 204.958 240.113Z" fill="url(#paint13_radial)"/>
<mask id="path-11-outside-1" maskUnits="userSpaceOnUse" x="49.7227" y="265.439" width="385" height="56" fill="black">
<rect fill="white" x="49.7227" y="265.439" width="385" height="56"/>
<path d="M50.7227 306.672V304.925C51.8116 304.854 52.5567 304.554 52.9579 304.025C53.3591 303.46 53.574 302.702 53.6027 301.749C53.66 300.76 53.6887 299.649 53.6887 298.414V275.544C53.6887 274.062 53.7316 272.792 53.8176 271.733C53.3018 271.768 52.786 271.803 52.2701 271.839C51.7543 271.874 51.2385 271.909 50.7227 271.945V269.615C52.3275 269.58 53.9466 269.545 55.58 269.509C57.2421 269.474 58.9042 269.492 60.5664 269.562C64.7216 269.633 67.702 270.498 69.5074 272.156C71.3414 273.815 72.2584 276.109 72.2584 279.038C72.2871 280.415 72.0722 281.826 71.6137 283.273C71.1838 284.685 70.3814 285.956 69.2065 287.085C68.0602 288.214 66.3981 289.061 64.2201 289.626C64.7933 290.12 65.2948 290.755 65.7246 291.532C66.1545 292.308 66.6417 293.208 67.1861 294.231L70.1092 299.896C70.5963 300.849 71.0692 301.713 71.5277 302.49C71.9862 303.231 72.5164 303.831 73.1182 304.29C73.72 304.713 74.465 304.925 75.3534 304.925V306.672H69.9372C69.1062 305.754 68.4041 304.837 67.8309 303.919C67.2864 303.002 66.7133 301.96 66.1115 300.796L63.2315 295.131C62.8589 294.39 62.4291 293.543 61.9419 292.59C61.4834 291.602 60.9532 290.773 60.3514 290.102C59.8929 290.138 59.4057 290.155 58.8899 290.155C58.4027 290.155 57.9156 290.138 57.4284 290.102V300.372C57.4284 302.243 57.3854 303.637 57.2995 304.554C57.8153 304.519 58.3311 304.484 58.8469 304.448C59.3628 304.413 59.8786 304.378 60.3944 304.343V306.672H50.7227ZM60.0935 288.144C61.6697 288.073 63.0452 287.755 64.2201 287.191C65.4237 286.626 66.3694 285.726 67.0572 284.491C67.745 283.256 68.0888 281.632 68.0888 279.621C68.0888 276.938 67.4584 274.927 66.1975 273.586C64.9652 272.245 63.0309 271.574 60.3944 271.574C59.3341 271.574 58.589 271.839 58.1592 272.368C57.758 272.897 57.5287 273.639 57.4714 274.591C57.4427 275.509 57.4284 276.603 57.4284 277.874V288.038C57.8869 288.073 58.3168 288.108 58.718 288.144C59.1478 288.179 59.6063 288.179 60.0935 288.144Z"/>
<path d="M90.3594 307.519C88.3821 307.519 86.591 306.954 84.9862 305.825C83.4101 304.66 82.1635 303.037 81.2465 300.955C80.3294 298.837 79.8709 296.349 79.8709 293.49C79.8709 291.02 80.3151 288.708 81.2035 286.555C82.1205 284.403 83.3957 282.673 85.0292 281.368C86.6626 280.026 88.554 279.356 90.7033 279.356C92.3081 279.356 93.7696 279.779 95.0878 280.626C96.406 281.473 97.452 282.762 98.2258 284.491C99.0282 286.22 99.4294 288.408 99.4294 291.055L84.2984 291.373C84.2698 295.431 84.8143 298.696 85.9319 301.166C87.0495 303.601 88.8692 304.819 91.3911 304.819C92.2794 304.819 93.1821 304.625 94.0992 304.237C95.0448 303.849 95.9189 303.319 96.7213 302.649C97.5237 301.978 98.1685 301.237 98.6556 300.425L99.6873 301.484C98.9135 302.966 97.9822 304.149 96.8932 305.031C95.8042 305.913 94.6866 306.548 93.5403 306.937C92.3941 307.325 91.3337 307.519 90.3594 307.519ZM84.4274 289.149H95.3887C95.3887 287.879 95.2311 286.661 94.9159 285.497C94.6293 284.297 94.1421 283.326 93.4544 282.585C92.7666 281.809 91.8639 281.42 90.7463 281.42C89.0842 281.42 87.6943 282.038 86.5767 283.273C85.4877 284.473 84.7713 286.432 84.4274 289.149Z"/>
<path d="M119.247 306.672C119.161 306.072 119.104 305.543 119.075 305.084C119.047 304.625 119.004 304.149 118.947 303.654C117.972 304.854 116.912 305.807 115.766 306.513C114.648 307.184 113.459 307.519 112.198 307.519C110.02 307.519 108.401 306.919 107.34 305.719C106.28 304.484 105.75 302.984 105.75 301.219C105.75 299.596 106.151 298.202 106.954 297.037C107.785 295.837 108.845 294.867 110.134 294.126C111.453 293.349 112.871 292.784 114.39 292.432C115.938 292.043 117.428 291.867 118.861 291.902V288.62C118.861 287.385 118.775 286.22 118.603 285.126C118.431 284.032 118.058 283.132 117.485 282.426C116.912 281.72 115.995 281.35 114.734 281.315C113.903 281.279 113.043 281.473 112.155 281.897C111.295 282.32 110.665 283.044 110.263 284.067C110.493 284.35 110.636 284.685 110.693 285.073C110.779 285.426 110.822 285.761 110.822 286.079C110.822 286.503 110.679 286.997 110.392 287.561C110.106 288.091 109.604 288.338 108.888 288.302C108.286 288.302 107.828 288.055 107.512 287.561C107.197 287.032 107.039 286.414 107.039 285.708C107.039 284.509 107.398 283.432 108.114 282.479C108.859 281.526 109.877 280.768 111.166 280.203C112.456 279.638 113.917 279.356 115.551 279.356C117.958 279.356 119.735 280.15 120.881 281.738C122.027 283.291 122.586 285.761 122.557 289.149C122.557 291.126 122.543 293.12 122.514 295.131C122.514 297.108 122.514 299.084 122.514 301.06C122.514 301.625 122.5 302.19 122.471 302.754C122.443 303.319 122.4 303.954 122.342 304.66C122.858 304.625 123.36 304.59 123.847 304.554C124.363 304.519 124.879 304.484 125.394 304.448V306.672H119.247ZM118.861 293.702C117.886 293.737 116.855 293.896 115.766 294.179C114.705 294.426 113.717 294.814 112.8 295.343C111.911 295.873 111.18 296.578 110.607 297.461C110.063 298.308 109.805 299.349 109.834 300.584C109.891 301.89 110.235 302.878 110.865 303.549C111.524 304.184 112.298 304.501 113.186 304.501C114.361 304.501 115.379 304.237 116.238 303.707C117.127 303.143 118.001 302.366 118.861 301.378C118.832 300.99 118.818 300.566 118.818 300.108C118.818 299.649 118.818 299.172 118.818 298.678C118.818 298.502 118.818 297.937 118.818 296.984C118.846 296.031 118.861 294.937 118.861 293.702Z"/>
<path d="M130.923 305.084C131.812 305.084 132.428 304.819 132.772 304.29C133.116 303.725 133.316 302.966 133.374 302.013C133.431 301.025 133.46 299.896 133.46 298.625V273.586C133.46 273.021 133.46 272.492 133.46 271.998C133.488 271.468 133.531 270.851 133.588 270.145C133.073 270.18 132.557 270.215 132.041 270.251C131.554 270.286 131.052 270.321 130.536 270.356V268.133C131.797 268.133 132.772 268.062 133.46 267.921C134.176 267.78 134.706 267.604 135.05 267.392C135.423 267.18 135.709 266.951 135.91 266.704H137.156L137.199 301.06C137.199 301.766 137.185 302.402 137.156 302.966C137.128 303.496 137.07 304.06 136.984 304.66C137.443 304.625 137.887 304.607 138.317 304.607C138.775 304.572 139.234 304.537 139.692 304.501V306.672H130.923V305.084Z"/>
<path d="M169.856 281.42C169.57 278.103 168.624 275.527 167.019 273.692C165.443 271.856 163.408 270.939 160.915 270.939C158.881 270.939 157.032 271.645 155.37 273.056C153.708 274.433 152.375 276.391 151.372 278.932C150.398 281.473 149.911 284.473 149.911 287.932C149.911 291.249 150.427 294.179 151.458 296.72C152.49 299.261 153.88 301.237 155.628 302.649C157.376 304.06 159.31 304.766 161.431 304.766C163.294 304.766 165.128 304.254 166.933 303.231C168.739 302.172 170.214 300.655 171.361 298.678L172.478 299.79C171.246 301.872 169.914 303.478 168.481 304.607C167.048 305.737 165.615 306.495 164.182 306.884C162.778 307.307 161.488 307.519 160.313 307.519C158.164 307.519 156.187 307.042 154.381 306.09C152.605 305.137 151.057 303.813 149.739 302.119C148.449 300.39 147.446 298.396 146.73 296.137C146.042 293.843 145.698 291.373 145.698 288.726C145.698 286.22 145.999 283.785 146.601 281.42C147.231 279.056 148.163 276.921 149.395 275.015C150.627 273.109 152.175 271.592 154.038 270.462C155.929 269.333 158.121 268.768 160.614 268.768C163.767 268.768 166.661 269.845 169.297 271.998L169.082 269.139H171.404V281.42H169.856Z"/>
<path d="M189.338 307.519C187.332 307.519 185.512 306.954 183.879 305.825C182.245 304.66 180.942 303.072 179.967 301.06C179.022 299.014 178.549 296.684 178.549 294.073C178.549 291.285 179.022 288.779 179.967 286.555C180.913 284.332 182.202 282.585 183.836 281.315C185.469 280.009 187.303 279.356 189.338 279.356C191.344 279.356 193.164 279.956 194.797 281.156C196.431 282.32 197.735 283.909 198.709 285.92C199.683 287.932 200.17 290.226 200.17 292.802C200.17 295.52 199.683 298.008 198.709 300.266C197.763 302.49 196.474 304.254 194.84 305.56C193.207 306.866 191.373 307.519 189.338 307.519ZM189.682 305.401C191.201 305.401 192.404 304.872 193.293 303.813C194.181 302.754 194.812 301.378 195.184 299.684C195.585 297.99 195.786 296.208 195.786 294.337C195.786 292.749 195.657 291.196 195.399 289.679C195.17 288.126 194.797 286.732 194.281 285.497C193.766 284.226 193.092 283.22 192.261 282.479C191.459 281.738 190.484 281.368 189.338 281.368C187.848 281.368 186.63 281.897 185.684 282.956C184.739 284.014 184.037 285.391 183.578 287.085C183.148 288.779 182.933 290.596 182.933 292.537C182.933 294.726 183.177 296.808 183.664 298.784C184.151 300.725 184.896 302.313 185.899 303.549C186.902 304.784 188.163 305.401 189.682 305.401Z"/>
<path d="M209.33 279.091C209.33 275.174 209.903 272.086 211.049 269.827C212.224 267.568 214.23 266.439 217.067 266.439C217.698 266.439 218.357 266.58 219.044 266.863C219.761 267.11 220.377 267.533 220.893 268.133C221.409 268.698 221.667 269.439 221.667 270.356C221.667 271.027 221.509 271.592 221.194 272.05C220.907 272.509 220.477 272.739 219.904 272.739C219.216 272.774 218.729 272.527 218.443 271.998C218.185 271.433 218.056 270.956 218.056 270.568C218.056 270.356 218.07 270.145 218.099 269.933C218.127 269.721 218.185 269.492 218.271 269.245C218.07 268.927 217.784 268.698 217.411 268.557C217.067 268.415 216.738 268.345 216.422 268.345C215.534 268.345 214.846 268.662 214.359 269.298C213.872 269.933 213.528 270.727 213.327 271.68C213.127 272.633 213.027 273.621 213.027 274.644V280.203H218.83V282.267L213.027 282.426L213.07 301.06C213.07 301.766 213.055 302.402 213.027 302.966C213.027 303.496 212.984 304.06 212.898 304.66C213.356 304.625 213.8 304.607 214.23 304.607C214.689 304.572 215.147 304.537 215.606 304.501V306.672H206.837V305.084C207.725 305.084 208.341 304.819 208.685 304.29C209.029 303.725 209.229 302.966 209.287 302.013C209.344 301.025 209.373 299.896 209.373 298.625L209.33 282.479L205.805 282.585V280.203H209.33V279.091Z"/>
<path d="M227.283 279.091C227.283 275.174 227.856 272.086 229.002 269.827C230.177 267.568 232.183 266.439 235.02 266.439C235.651 266.439 236.31 266.58 236.998 266.863C237.714 267.11 238.33 267.533 238.846 268.133C239.362 268.698 239.62 269.439 239.62 270.356C239.62 271.027 239.462 271.592 239.147 272.05C238.86 272.509 238.431 272.739 237.857 272.739C237.17 272.774 236.682 272.527 236.396 271.998C236.138 271.433 236.009 270.956 236.009 270.568C236.009 270.356 236.023 270.145 236.052 269.933C236.081 269.721 236.138 269.492 236.224 269.245C236.023 268.927 235.737 268.698 235.364 268.557C235.02 268.415 234.691 268.345 234.376 268.345C233.487 268.345 232.799 268.662 232.312 269.298C231.825 269.933 231.481 270.727 231.281 271.68C231.08 272.633 230.98 273.621 230.98 274.644V280.203H236.783V282.267L230.98 282.426L231.023 301.06C231.023 301.766 231.008 302.402 230.98 302.966C230.98 303.496 230.937 304.06 230.851 304.66C231.309 304.625 231.753 304.607 232.183 304.607C232.642 304.572 233.1 304.537 233.559 304.501V306.672H224.79V305.084C225.678 305.084 226.294 304.819 226.638 304.29C226.982 303.725 227.183 302.966 227.24 302.013C227.297 301.025 227.326 299.896 227.326 298.625L227.283 282.479L223.758 282.585V280.203H227.283V279.091Z"/>
<path d="M252.301 307.519C250.324 307.519 248.533 306.954 246.928 305.825C245.352 304.66 244.105 303.037 243.188 300.955C242.271 298.837 241.812 296.349 241.812 293.49C241.812 291.02 242.257 288.708 243.145 286.555C244.062 284.403 245.337 282.673 246.971 281.368C248.604 280.026 250.496 279.356 252.645 279.356C254.25 279.356 255.711 279.779 257.029 280.626C258.348 281.473 259.394 282.762 260.167 284.491C260.97 286.22 261.371 288.408 261.371 291.055L246.24 291.373C246.211 295.431 246.756 298.696 247.873 301.166C248.991 303.601 250.811 304.819 253.333 304.819C254.221 304.819 255.124 304.625 256.041 304.237C256.986 303.849 257.86 303.319 258.663 302.649C259.465 301.978 260.11 301.237 260.597 300.425L261.629 301.484C260.855 302.966 259.924 304.149 258.835 305.031C257.746 305.913 256.628 306.548 255.482 306.937C254.336 307.325 253.275 307.519 252.301 307.519ZM246.369 289.149H257.33C257.33 287.879 257.173 286.661 256.857 285.497C256.571 284.297 256.084 283.326 255.396 282.585C254.708 281.809 253.805 281.42 252.688 281.42C251.026 281.42 249.636 282.038 248.518 283.273C247.429 284.473 246.713 286.432 246.369 289.149Z"/>
<path d="M278.398 307.519C276.421 307.519 274.629 306.954 273.025 305.825C271.449 304.66 270.202 303.037 269.285 300.955C268.368 298.837 267.909 296.349 267.909 293.49C267.909 291.02 268.354 288.708 269.242 286.555C270.159 284.403 271.434 282.673 273.068 281.368C274.701 280.026 276.592 279.356 278.742 279.356C280.347 279.356 281.808 279.779 283.126 280.626C284.445 281.473 285.49 282.762 286.264 284.491C287.067 286.22 287.468 288.408 287.468 291.055L272.337 291.373C272.308 295.431 272.853 298.696 273.97 301.166C275.088 303.601 276.908 304.819 279.43 304.819C280.318 304.819 281.221 304.625 282.138 304.237C283.083 303.849 283.957 303.319 284.76 302.649C285.562 301.978 286.207 301.237 286.694 300.425L287.726 301.484C286.952 302.966 286.021 304.149 284.932 305.031C283.843 305.913 282.725 306.548 281.579 306.937C280.433 307.325 279.372 307.519 278.398 307.519ZM272.466 289.149H283.427C283.427 287.879 283.27 286.661 282.954 285.497C282.668 284.297 282.181 283.326 281.493 282.585C280.805 281.809 279.902 281.42 278.785 281.42C277.123 281.42 275.733 282.038 274.615 283.273C273.526 284.473 272.81 286.432 272.466 289.149Z"/>
<path d="M304.06 307.519C302.398 307.519 300.793 307.184 299.246 306.513C297.698 305.807 296.423 304.696 295.42 303.178C294.445 301.66 293.958 299.649 293.958 297.143C293.958 294.849 294.56 292.82 295.764 291.055C296.996 289.291 298.644 287.861 300.707 286.767C299.561 285.003 298.73 283.362 298.214 281.844C297.698 280.326 297.44 278.738 297.44 277.08C297.469 274.539 298.228 272.527 299.718 271.045C301.209 269.527 303.1 268.768 305.392 268.768C307.57 268.768 309.304 269.492 310.594 270.939C311.912 272.35 312.571 274.097 312.571 276.18C312.571 278.121 312.041 279.956 310.981 281.685C309.92 283.414 308.101 285.091 305.521 286.714C306.295 287.702 307.141 288.797 308.058 289.996C309.003 291.196 309.949 292.379 310.895 293.543C311.84 294.673 312.7 295.696 313.474 296.614C313.617 295.978 313.717 295.378 313.775 294.814C313.861 294.214 313.904 293.684 313.904 293.226C313.904 292.414 313.803 291.62 313.603 290.843C313.431 290.032 313.101 289.361 312.614 288.832C312.156 288.267 311.496 287.967 310.637 287.932V286.185H318.159V288.355L314.591 288.144C315.05 288.602 315.379 289.202 315.58 289.943C315.781 290.685 315.895 291.549 315.924 292.537C315.953 293.208 315.895 294.073 315.752 295.131C315.637 296.155 315.408 297.231 315.064 298.361C315.379 298.714 315.709 299.102 316.053 299.525C316.425 299.913 316.812 300.319 317.214 300.743C318.503 302.155 319.606 303.213 320.523 303.919C321.469 304.59 322.171 304.925 322.63 304.925V306.672H318.632C318.374 306.672 317.787 306.354 316.87 305.719C315.981 305.048 314.792 303.901 313.302 302.278C312.385 303.725 311.167 304.96 309.648 305.984C308.158 307.007 306.295 307.519 304.06 307.519ZM304.576 285.444C306.181 284.138 307.37 282.691 308.144 281.103C308.917 279.479 309.304 277.891 309.304 276.338C309.304 274.644 308.946 273.25 308.23 272.156C307.513 271.027 306.496 270.462 305.178 270.462C304.003 270.462 303.014 271.009 302.212 272.103C301.438 273.162 301.051 274.68 301.051 276.656C301.051 278.174 301.381 279.674 302.04 281.156C302.727 282.638 303.573 284.067 304.576 285.444ZM304.576 304.872C306.381 304.943 307.871 304.59 309.046 303.813C310.25 303.002 311.21 301.996 311.926 300.796C311.726 300.549 311.525 300.319 311.324 300.108C311.124 299.861 310.909 299.613 310.68 299.366C308.76 297.037 307.055 294.973 305.564 293.173C304.103 291.373 302.856 289.749 301.825 288.302C300.908 288.973 300.191 289.802 299.675 290.791C299.16 291.779 298.787 292.767 298.558 293.755C298.357 294.743 298.257 295.608 298.257 296.349C298.257 298.29 298.558 299.878 299.16 301.113C299.79 302.349 300.578 303.266 301.524 303.866C302.498 304.466 303.515 304.801 304.576 304.872Z"/>
<path d="M344.566 280.838C344.48 279.144 344.15 277.538 343.577 276.021C343.004 274.503 342.173 273.268 341.084 272.315C339.995 271.362 338.605 270.886 336.914 270.886C335.138 270.886 333.776 271.503 332.831 272.739C331.885 273.974 331.412 275.421 331.412 277.08C331.412 278.562 331.756 279.815 332.444 280.838C333.132 281.826 334.02 282.709 335.109 283.485C336.227 284.226 337.402 284.95 338.634 285.656C339.723 286.255 340.812 286.908 341.901 287.614C342.99 288.285 343.978 289.061 344.867 289.943C345.755 290.826 346.457 291.885 346.973 293.12C347.517 294.32 347.79 295.767 347.79 297.461C347.79 300.39 346.916 302.807 345.168 304.713C343.419 306.584 340.941 307.519 337.731 307.519C336.441 307.519 335.109 307.289 333.733 306.831C332.358 306.372 331.14 305.701 330.08 304.819L330.295 307.095H328.059L327.801 295.82H329.478C329.621 298.925 330.495 301.29 332.1 302.913C333.705 304.501 335.639 305.295 337.903 305.295C339.021 305.295 340.052 305.048 340.998 304.554C341.944 304.025 342.689 303.266 343.233 302.278C343.806 301.29 344.093 300.09 344.093 298.678C344.093 297.09 343.749 295.767 343.061 294.708C342.374 293.649 341.485 292.732 340.396 291.955C339.307 291.179 338.147 290.438 336.914 289.732C335.825 289.132 334.751 288.497 333.69 287.826C332.63 287.155 331.656 286.397 330.767 285.55C329.908 284.667 329.206 283.626 328.661 282.426C328.145 281.226 327.887 279.779 327.887 278.085C327.887 277.168 328.016 276.18 328.274 275.121C328.532 274.062 328.976 273.056 329.607 272.103C330.266 271.115 331.154 270.321 332.272 269.721C333.418 269.086 334.865 268.768 336.613 268.768C337.702 268.768 338.92 268.962 340.267 269.351C341.643 269.704 342.918 270.409 344.093 271.468L343.921 269.192H346.113V280.838H344.566Z"/>
<path d="M368.396 305.084C369.285 305.084 369.901 304.819 370.245 304.29C370.589 303.725 370.789 302.966 370.846 302.013C370.904 301.025 370.932 299.896 370.932 298.625V291.214C370.932 288.179 370.531 285.903 369.729 284.385C368.955 282.867 367.723 282.126 366.032 282.162C364.972 282.197 363.926 282.515 362.894 283.115C361.891 283.714 361.074 284.491 360.444 285.444V301.06C360.444 301.766 360.43 302.402 360.401 302.966C360.372 303.496 360.315 304.06 360.229 304.66C360.688 304.625 361.132 304.607 361.562 304.607C362.02 304.572 362.479 304.537 362.937 304.501V306.672H354.168V305.084C355.056 305.084 355.673 304.819 356.016 304.29C356.36 303.725 356.561 302.966 356.618 302.013C356.704 301.025 356.747 299.896 356.747 298.625V273.586C356.747 273.021 356.747 272.492 356.747 271.998C356.776 271.468 356.819 270.851 356.876 270.145C356.36 270.18 355.844 270.215 355.329 270.251C354.841 270.286 354.34 270.321 353.824 270.356V268.133C355.085 268.133 356.059 268.062 356.747 267.921C357.464 267.78 357.994 267.604 358.338 267.392C358.71 267.18 358.997 266.951 359.197 266.704H360.444V282.85C361.39 281.862 362.493 281.032 363.754 280.362C365.015 279.691 366.261 279.356 367.494 279.356C369.987 279.356 371.778 280.326 372.867 282.267C373.984 284.173 374.558 287.155 374.586 291.214L374.629 301.06C374.629 301.766 374.615 302.402 374.586 302.966C374.586 303.496 374.543 304.06 374.457 304.66C374.916 304.625 375.36 304.607 375.79 304.607C376.248 304.572 376.707 304.537 377.165 304.501V306.672H368.396V305.084Z"/>
<path d="M394 307.519C391.994 307.519 390.174 306.954 388.541 305.825C386.907 304.66 385.603 303.072 384.629 301.06C383.683 299.014 383.21 296.684 383.21 294.073C383.21 291.285 383.683 288.779 384.629 286.555C385.575 284.332 386.864 282.585 388.498 281.315C390.131 280.009 391.965 279.356 394 279.356C396.006 279.356 397.826 279.956 399.459 281.156C401.092 282.32 402.396 283.909 403.371 285.92C404.345 287.932 404.832 290.226 404.832 292.802C404.832 295.52 404.345 298.008 403.371 300.266C402.425 302.49 401.135 304.254 399.502 305.56C397.869 306.866 396.035 307.519 394 307.519ZM394.344 305.401C395.863 305.401 397.066 304.872 397.955 303.813C398.843 302.754 399.473 301.378 399.846 299.684C400.247 297.99 400.448 296.208 400.448 294.337C400.448 292.749 400.319 291.196 400.061 289.679C399.832 288.126 399.459 286.732 398.943 285.497C398.427 284.226 397.754 283.22 396.923 282.479C396.121 281.738 395.146 281.368 394 281.368C392.51 281.368 391.292 281.897 390.346 282.956C389.4 284.014 388.698 285.391 388.24 287.085C387.81 288.779 387.595 290.596 387.595 292.537C387.595 294.726 387.839 296.808 388.326 298.784C388.813 300.725 389.558 302.313 390.561 303.549C391.564 304.784 392.825 305.401 394.344 305.401Z"/>
<path d="M411.106 320.171V318.583C411.995 318.583 412.611 318.301 412.955 317.736C413.299 317.207 413.499 316.448 413.557 315.46C413.614 314.507 413.643 313.395 413.643 312.124L413.729 286.555C413.729 285.991 413.729 285.426 413.729 284.861C413.757 284.297 413.815 283.714 413.901 283.115C413.385 283.15 412.869 283.185 412.353 283.22C411.866 283.256 411.364 283.291 410.849 283.326V281.103C412.109 281.103 413.055 281.032 413.686 280.891C414.345 280.75 414.818 280.573 415.104 280.362C415.419 280.15 415.677 279.921 415.878 279.674H417.167C417.196 280.026 417.225 280.45 417.253 280.944C417.282 281.403 417.311 281.932 417.339 282.532C418.199 281.579 419.216 280.821 420.391 280.256C421.595 279.656 422.799 279.356 424.002 279.356C425.664 279.356 427.212 279.885 428.645 280.944C430.077 282.003 431.238 283.52 432.126 285.497C433.015 287.438 433.459 289.767 433.459 292.485C433.459 295.484 432.943 298.114 431.912 300.372C430.909 302.631 429.576 304.396 427.914 305.666C426.252 306.901 424.446 307.519 422.498 307.519C420.52 307.519 418.801 306.937 417.339 305.772V314.56C417.339 315.265 417.325 315.883 417.296 316.412C417.296 316.977 417.253 317.559 417.167 318.159C417.626 318.124 418.07 318.089 418.5 318.054C418.959 318.054 419.417 318.036 419.876 318.001V320.171H411.106ZM422.412 305.401C423.787 305.401 424.962 304.89 425.936 303.866C426.94 302.807 427.699 301.378 428.215 299.578C428.759 297.743 429.031 295.661 429.031 293.332C429.031 291.426 428.802 289.608 428.344 287.879C427.914 286.114 427.212 284.685 426.237 283.591C425.292 282.497 424.031 281.95 422.455 281.95C421.48 281.95 420.535 282.25 419.618 282.85C418.729 283.414 417.984 284.103 417.382 284.914C417.382 285.056 417.382 285.267 417.382 285.55C417.411 285.797 417.425 286.255 417.425 286.926C417.425 287.561 417.425 288.532 417.425 289.838C417.425 291.108 417.411 292.837 417.382 295.026C417.382 297.214 417.382 299.984 417.382 303.337C418.844 304.713 420.52 305.401 422.412 305.401Z"/>
</mask>
<path d="M50.7227 306.672V304.925C51.8116 304.854 52.5567 304.554 52.9579 304.025C53.3591 303.46 53.574 302.702 53.6027 301.749C53.66 300.76 53.6887 299.649 53.6887 298.414V275.544C53.6887 274.062 53.7316 272.792 53.8176 271.733C53.3018 271.768 52.786 271.803 52.2701 271.839C51.7543 271.874 51.2385 271.909 50.7227 271.945V269.615C52.3275 269.58 53.9466 269.545 55.58 269.509C57.2421 269.474 58.9042 269.492 60.5664 269.562C64.7216 269.633 67.702 270.498 69.5074 272.156C71.3414 273.815 72.2584 276.109 72.2584 279.038C72.2871 280.415 72.0722 281.826 71.6137 283.273C71.1838 284.685 70.3814 285.956 69.2065 287.085C68.0602 288.214 66.3981 289.061 64.2201 289.626C64.7933 290.12 65.2948 290.755 65.7246 291.532C66.1545 292.308 66.6417 293.208 67.1861 294.231L70.1092 299.896C70.5963 300.849 71.0692 301.713 71.5277 302.49C71.9862 303.231 72.5164 303.831 73.1182 304.29C73.72 304.713 74.465 304.925 75.3534 304.925V306.672H69.9372C69.1062 305.754 68.4041 304.837 67.8309 303.919C67.2864 303.002 66.7133 301.96 66.1115 300.796L63.2315 295.131C62.8589 294.39 62.4291 293.543 61.9419 292.59C61.4834 291.602 60.9532 290.773 60.3514 290.102C59.8929 290.138 59.4057 290.155 58.8899 290.155C58.4027 290.155 57.9156 290.138 57.4284 290.102V300.372C57.4284 302.243 57.3854 303.637 57.2995 304.554C57.8153 304.519 58.3311 304.484 58.8469 304.448C59.3628 304.413 59.8786 304.378 60.3944 304.343V306.672H50.7227ZM60.0935 288.144C61.6697 288.073 63.0452 287.755 64.2201 287.191C65.4237 286.626 66.3694 285.726 67.0572 284.491C67.745 283.256 68.0888 281.632 68.0888 279.621C68.0888 276.938 67.4584 274.927 66.1975 273.586C64.9652 272.245 63.0309 271.574 60.3944 271.574C59.3341 271.574 58.589 271.839 58.1592 272.368C57.758 272.897 57.5287 273.639 57.4714 274.591C57.4427 275.509 57.4284 276.603 57.4284 277.874V288.038C57.8869 288.073 58.3168 288.108 58.718 288.144C59.1478 288.179 59.6063 288.179 60.0935 288.144Z" fill="url(#paint14_linear)"/>
<path d="M90.3594 307.519C88.3821 307.519 86.591 306.954 84.9862 305.825C83.4101 304.66 82.1635 303.037 81.2465 300.955C80.3294 298.837 79.8709 296.349 79.8709 293.49C79.8709 291.02 80.3151 288.708 81.2035 286.555C82.1205 284.403 83.3957 282.673 85.0292 281.368C86.6626 280.026 88.554 279.356 90.7033 279.356C92.3081 279.356 93.7696 279.779 95.0878 280.626C96.406 281.473 97.452 282.762 98.2258 284.491C99.0282 286.22 99.4294 288.408 99.4294 291.055L84.2984 291.373C84.2698 295.431 84.8143 298.696 85.9319 301.166C87.0495 303.601 88.8692 304.819 91.3911 304.819C92.2794 304.819 93.1821 304.625 94.0992 304.237C95.0448 303.849 95.9189 303.319 96.7213 302.649C97.5237 301.978 98.1685 301.237 98.6556 300.425L99.6873 301.484C98.9135 302.966 97.9822 304.149 96.8932 305.031C95.8042 305.913 94.6866 306.548 93.5403 306.937C92.3941 307.325 91.3337 307.519 90.3594 307.519ZM84.4274 289.149H95.3887C95.3887 287.879 95.2311 286.661 94.9159 285.497C94.6293 284.297 94.1421 283.326 93.4544 282.585C92.7666 281.809 91.8639 281.42 90.7463 281.42C89.0842 281.42 87.6943 282.038 86.5767 283.273C85.4877 284.473 84.7713 286.432 84.4274 289.149Z" fill="url(#paint15_linear)"/>
<path d="M119.247 306.672C119.161 306.072 119.104 305.543 119.075 305.084C119.047 304.625 119.004 304.149 118.947 303.654C117.972 304.854 116.912 305.807 115.766 306.513C114.648 307.184 113.459 307.519 112.198 307.519C110.02 307.519 108.401 306.919 107.34 305.719C106.28 304.484 105.75 302.984 105.75 301.219C105.75 299.596 106.151 298.202 106.954 297.037C107.785 295.837 108.845 294.867 110.134 294.126C111.453 293.349 112.871 292.784 114.39 292.432C115.938 292.043 117.428 291.867 118.861 291.902V288.62C118.861 287.385 118.775 286.22 118.603 285.126C118.431 284.032 118.058 283.132 117.485 282.426C116.912 281.72 115.995 281.35 114.734 281.315C113.903 281.279 113.043 281.473 112.155 281.897C111.295 282.32 110.665 283.044 110.263 284.067C110.493 284.35 110.636 284.685 110.693 285.073C110.779 285.426 110.822 285.761 110.822 286.079C110.822 286.503 110.679 286.997 110.392 287.561C110.106 288.091 109.604 288.338 108.888 288.302C108.286 288.302 107.828 288.055 107.512 287.561C107.197 287.032 107.039 286.414 107.039 285.708C107.039 284.509 107.398 283.432 108.114 282.479C108.859 281.526 109.877 280.768 111.166 280.203C112.456 279.638 113.917 279.356 115.551 279.356C117.958 279.356 119.735 280.15 120.881 281.738C122.027 283.291 122.586 285.761 122.557 289.149C122.557 291.126 122.543 293.12 122.514 295.131C122.514 297.108 122.514 299.084 122.514 301.06C122.514 301.625 122.5 302.19 122.471 302.754C122.443 303.319 122.4 303.954 122.342 304.66C122.858 304.625 123.36 304.59 123.847 304.554C124.363 304.519 124.879 304.484 125.394 304.448V306.672H119.247ZM118.861 293.702C117.886 293.737 116.855 293.896 115.766 294.179C114.705 294.426 113.717 294.814 112.8 295.343C111.911 295.873 111.18 296.578 110.607 297.461C110.063 298.308 109.805 299.349 109.834 300.584C109.891 301.89 110.235 302.878 110.865 303.549C111.524 304.184 112.298 304.501 113.186 304.501C114.361 304.501 115.379 304.237 116.238 303.707C117.127 303.143 118.001 302.366 118.861 301.378C118.832 300.99 118.818 300.566 118.818 300.108C118.818 299.649 118.818 299.172 118.818 298.678C118.818 298.502 118.818 297.937 118.818 296.984C118.846 296.031 118.861 294.937 118.861 293.702Z" fill="url(#paint16_linear)"/>
<path d="M130.923 305.084C131.812 305.084 132.428 304.819 132.772 304.29C133.116 303.725 133.316 302.966 133.374 302.013C133.431 301.025 133.46 299.896 133.46 298.625V273.586C133.46 273.021 133.46 272.492 133.46 271.998C133.488 271.468 133.531 270.851 133.588 270.145C133.073 270.18 132.557 270.215 132.041 270.251C131.554 270.286 131.052 270.321 130.536 270.356V268.133C131.797 268.133 132.772 268.062 133.46 267.921C134.176 267.78 134.706 267.604 135.05 267.392C135.423 267.18 135.709 266.951 135.91 266.704H137.156L137.199 301.06C137.199 301.766 137.185 302.402 137.156 302.966C137.128 303.496 137.07 304.06 136.984 304.66C137.443 304.625 137.887 304.607 138.317 304.607C138.775 304.572 139.234 304.537 139.692 304.501V306.672H130.923V305.084Z" fill="url(#paint17_linear)"/>
<path d="M169.856 281.42C169.57 278.103 168.624 275.527 167.019 273.692C165.443 271.856 163.408 270.939 160.915 270.939C158.881 270.939 157.032 271.645 155.37 273.056C153.708 274.433 152.375 276.391 151.372 278.932C150.398 281.473 149.911 284.473 149.911 287.932C149.911 291.249 150.427 294.179 151.458 296.72C152.49 299.261 153.88 301.237 155.628 302.649C157.376 304.06 159.31 304.766 161.431 304.766C163.294 304.766 165.128 304.254 166.933 303.231C168.739 302.172 170.214 300.655 171.361 298.678L172.478 299.79C171.246 301.872 169.914 303.478 168.481 304.607C167.048 305.737 165.615 306.495 164.182 306.884C162.778 307.307 161.488 307.519 160.313 307.519C158.164 307.519 156.187 307.042 154.381 306.09C152.605 305.137 151.057 303.813 149.739 302.119C148.449 300.39 147.446 298.396 146.73 296.137C146.042 293.843 145.698 291.373 145.698 288.726C145.698 286.22 145.999 283.785 146.601 281.42C147.231 279.056 148.163 276.921 149.395 275.015C150.627 273.109 152.175 271.592 154.038 270.462C155.929 269.333 158.121 268.768 160.614 268.768C163.767 268.768 166.661 269.845 169.297 271.998L169.082 269.139H171.404V281.42H169.856Z" fill="url(#paint18_linear)"/>
<path d="M189.338 307.519C187.332 307.519 185.512 306.954 183.879 305.825C182.245 304.66 180.942 303.072 179.967 301.06C179.022 299.014 178.549 296.684 178.549 294.073C178.549 291.285 179.022 288.779 179.967 286.555C180.913 284.332 182.202 282.585 183.836 281.315C185.469 280.009 187.303 279.356 189.338 279.356C191.344 279.356 193.164 279.956 194.797 281.156C196.431 282.32 197.735 283.909 198.709 285.92C199.683 287.932 200.17 290.226 200.17 292.802C200.17 295.52 199.683 298.008 198.709 300.266C197.763 302.49 196.474 304.254 194.84 305.56C193.207 306.866 191.373 307.519 189.338 307.519ZM189.682 305.401C191.201 305.401 192.404 304.872 193.293 303.813C194.181 302.754 194.812 301.378 195.184 299.684C195.585 297.99 195.786 296.208 195.786 294.337C195.786 292.749 195.657 291.196 195.399 289.679C195.17 288.126 194.797 286.732 194.281 285.497C193.766 284.226 193.092 283.22 192.261 282.479C191.459 281.738 190.484 281.368 189.338 281.368C187.848 281.368 186.63 281.897 185.684 282.956C184.739 284.014 184.037 285.391 183.578 287.085C183.148 288.779 182.933 290.596 182.933 292.537C182.933 294.726 183.177 296.808 183.664 298.784C184.151 300.725 184.896 302.313 185.899 303.549C186.902 304.784 188.163 305.401 189.682 305.401Z" fill="url(#paint19_linear)"/>
<path d="M209.33 279.091C209.33 275.174 209.903 272.086 211.049 269.827C212.224 267.568 214.23 266.439 217.067 266.439C217.698 266.439 218.357 266.58 219.044 266.863C219.761 267.11 220.377 267.533 220.893 268.133C221.409 268.698 221.667 269.439 221.667 270.356C221.667 271.027 221.509 271.592 221.194 272.05C220.907 272.509 220.477 272.739 219.904 272.739C219.216 272.774 218.729 272.527 218.443 271.998C218.185 271.433 218.056 270.956 218.056 270.568C218.056 270.356 218.07 270.145 218.099 269.933C218.127 269.721 218.185 269.492 218.271 269.245C218.07 268.927 217.784 268.698 217.411 268.557C217.067 268.415 216.738 268.345 216.422 268.345C215.534 268.345 214.846 268.662 214.359 269.298C213.872 269.933 213.528 270.727 213.327 271.68C213.127 272.633 213.027 273.621 213.027 274.644V280.203H218.83V282.267L213.027 282.426L213.07 301.06C213.07 301.766 213.055 302.402 213.027 302.966C213.027 303.496 212.984 304.06 212.898 304.66C213.356 304.625 213.8 304.607 214.23 304.607C214.689 304.572 215.147 304.537 215.606 304.501V306.672H206.837V305.084C207.725 305.084 208.341 304.819 208.685 304.29C209.029 303.725 209.229 302.966 209.287 302.013C209.344 301.025 209.373 299.896 209.373 298.625L209.33 282.479L205.805 282.585V280.203H209.33V279.091Z" fill="url(#paint20_linear)"/>
<path d="M227.283 279.091C227.283 275.174 227.856 272.086 229.002 269.827C230.177 267.568 232.183 266.439 235.02 266.439C235.651 266.439 236.31 266.58 236.998 266.863C237.714 267.11 238.33 267.533 238.846 268.133C239.362 268.698 239.62 269.439 239.62 270.356C239.62 271.027 239.462 271.592 239.147 272.05C238.86 272.509 238.431 272.739 237.857 272.739C237.17 272.774 236.682 272.527 236.396 271.998C236.138 271.433 236.009 270.956 236.009 270.568C236.009 270.356 236.023 270.145 236.052 269.933C236.081 269.721 236.138 269.492 236.224 269.245C236.023 268.927 235.737 268.698 235.364 268.557C235.02 268.415 234.691 268.345 234.376 268.345C233.487 268.345 232.799 268.662 232.312 269.298C231.825 269.933 231.481 270.727 231.281 271.68C231.08 272.633 230.98 273.621 230.98 274.644V280.203H236.783V282.267L230.98 282.426L231.023 301.06C231.023 301.766 231.008 302.402 230.98 302.966C230.98 303.496 230.937 304.06 230.851 304.66C231.309 304.625 231.753 304.607 232.183 304.607C232.642 304.572 233.1 304.537 233.559 304.501V306.672H224.79V305.084C225.678 305.084 226.294 304.819 226.638 304.29C226.982 303.725 227.183 302.966 227.24 302.013C227.297 301.025 227.326 299.896 227.326 298.625L227.283 282.479L223.758 282.585V280.203H227.283V279.091Z" fill="url(#paint21_linear)"/>
<path d="M252.301 307.519C250.324 307.519 248.533 306.954 246.928 305.825C245.352 304.66 244.105 303.037 243.188 300.955C242.271 298.837 241.812 296.349 241.812 293.49C241.812 291.02 242.257 288.708 243.145 286.555C244.062 284.403 245.337 282.673 246.971 281.368C248.604 280.026 250.496 279.356 252.645 279.356C254.25 279.356 255.711 279.779 257.029 280.626C258.348 281.473 259.394 282.762 260.167 284.491C260.97 286.22 261.371 288.408 261.371 291.055L246.24 291.373C246.211 295.431 246.756 298.696 247.873 301.166C248.991 303.601 250.811 304.819 253.333 304.819C254.221 304.819 255.124 304.625 256.041 304.237C256.986 303.849 257.86 303.319 258.663 302.649C259.465 301.978 260.11 301.237 260.597 300.425L261.629 301.484C260.855 302.966 259.924 304.149 258.835 305.031C257.746 305.913 256.628 306.548 255.482 306.937C254.336 307.325 253.275 307.519 252.301 307.519ZM246.369 289.149H257.33C257.33 287.879 257.173 286.661 256.857 285.497C256.571 284.297 256.084 283.326 255.396 282.585C254.708 281.809 253.805 281.42 252.688 281.42C251.026 281.42 249.636 282.038 248.518 283.273C247.429 284.473 246.713 286.432 246.369 289.149Z" fill="url(#paint22_linear)"/>
<path d="M278.398 307.519C276.421 307.519 274.629 306.954 273.025 305.825C271.449 304.66 270.202 303.037 269.285 300.955C268.368 298.837 267.909 296.349 267.909 293.49C267.909 291.02 268.354 288.708 269.242 286.555C270.159 284.403 271.434 282.673 273.068 281.368C274.701 280.026 276.592 279.356 278.742 279.356C280.347 279.356 281.808 279.779 283.126 280.626C284.445 281.473 285.49 282.762 286.264 284.491C287.067 286.22 287.468 288.408 287.468 291.055L272.337 291.373C272.308 295.431 272.853 298.696 273.97 301.166C275.088 303.601 276.908 304.819 279.43 304.819C280.318 304.819 281.221 304.625 282.138 304.237C283.083 303.849 283.957 303.319 284.76 302.649C285.562 301.978 286.207 301.237 286.694 300.425L287.726 301.484C286.952 302.966 286.021 304.149 284.932 305.031C283.843 305.913 282.725 306.548 281.579 306.937C280.433 307.325 279.372 307.519 278.398 307.519ZM272.466 289.149H283.427C283.427 287.879 283.27 286.661 282.954 285.497C282.668 284.297 282.181 283.326 281.493 282.585C280.805 281.809 279.902 281.42 278.785 281.42C277.123 281.42 275.733 282.038 274.615 283.273C273.526 284.473 272.81 286.432 272.466 289.149Z" fill="url(#paint23_linear)"/>
<path d="M304.06 307.519C302.398 307.519 300.793 307.184 299.246 306.513C297.698 305.807 296.423 304.696 295.42 303.178C294.445 301.66 293.958 299.649 293.958 297.143C293.958 294.849 294.56 292.82 295.764 291.055C296.996 289.291 298.644 287.861 300.707 286.767C299.561 285.003 298.73 283.362 298.214 281.844C297.698 280.326 297.44 278.738 297.44 277.08C297.469 274.539 298.228 272.527 299.718 271.045C301.209 269.527 303.1 268.768 305.392 268.768C307.57 268.768 309.304 269.492 310.594 270.939C311.912 272.35 312.571 274.097 312.571 276.18C312.571 278.121 312.041 279.956 310.981 281.685C309.92 283.414 308.101 285.091 305.521 286.714C306.295 287.702 307.141 288.797 308.058 289.996C309.003 291.196 309.949 292.379 310.895 293.543C311.84 294.673 312.7 295.696 313.474 296.614C313.617 295.978 313.717 295.378 313.775 294.814C313.861 294.214 313.904 293.684 313.904 293.226C313.904 292.414 313.803 291.62 313.603 290.843C313.431 290.032 313.101 289.361 312.614 288.832C312.156 288.267 311.496 287.967 310.637 287.932V286.185H318.159V288.355L314.591 288.144C315.05 288.602 315.379 289.202 315.58 289.943C315.781 290.685 315.895 291.549 315.924 292.537C315.953 293.208 315.895 294.073 315.752 295.131C315.637 296.155 315.408 297.231 315.064 298.361C315.379 298.714 315.709 299.102 316.053 299.525C316.425 299.913 316.812 300.319 317.214 300.743C318.503 302.155 319.606 303.213 320.523 303.919C321.469 304.59 322.171 304.925 322.63 304.925V306.672H318.632C318.374 306.672 317.787 306.354 316.87 305.719C315.981 305.048 314.792 303.901 313.302 302.278C312.385 303.725 311.167 304.96 309.648 305.984C308.158 307.007 306.295 307.519 304.06 307.519ZM304.576 285.444C306.181 284.138 307.37 282.691 308.144 281.103C308.917 279.479 309.304 277.891 309.304 276.338C309.304 274.644 308.946 273.25 308.23 272.156C307.513 271.027 306.496 270.462 305.178 270.462C304.003 270.462 303.014 271.009 302.212 272.103C301.438 273.162 301.051 274.68 301.051 276.656C301.051 278.174 301.381 279.674 302.04 281.156C302.727 282.638 303.573 284.067 304.576 285.444ZM304.576 304.872C306.381 304.943 307.871 304.59 309.046 303.813C310.25 303.002 311.21 301.996 311.926 300.796C311.726 300.549 311.525 300.319 311.324 300.108C311.124 299.861 310.909 299.613 310.68 299.366C308.76 297.037 307.055 294.973 305.564 293.173C304.103 291.373 302.856 289.749 301.825 288.302C300.908 288.973 300.191 289.802 299.675 290.791C299.16 291.779 298.787 292.767 298.558 293.755C298.357 294.743 298.257 295.608 298.257 296.349C298.257 298.29 298.558 299.878 299.16 301.113C299.79 302.349 300.578 303.266 301.524 303.866C302.498 304.466 303.515 304.801 304.576 304.872Z" fill="url(#paint24_linear)"/>
<path d="M344.566 280.838C344.48 279.144 344.15 277.538 343.577 276.021C343.004 274.503 342.173 273.268 341.084 272.315C339.995 271.362 338.605 270.886 336.914 270.886C335.138 270.886 333.776 271.503 332.831 272.739C331.885 273.974 331.412 275.421 331.412 277.08C331.412 278.562 331.756 279.815 332.444 280.838C333.132 281.826 334.02 282.709 335.109 283.485C336.227 284.226 337.402 284.95 338.634 285.656C339.723 286.255 340.812 286.908 341.901 287.614C342.99 288.285 343.978 289.061 344.867 289.943C345.755 290.826 346.457 291.885 346.973 293.12C347.517 294.32 347.79 295.767 347.79 297.461C347.79 300.39 346.916 302.807 345.168 304.713C343.419 306.584 340.941 307.519 337.731 307.519C336.441 307.519 335.109 307.289 333.733 306.831C332.358 306.372 331.14 305.701 330.08 304.819L330.295 307.095H328.059L327.801 295.82H329.478C329.621 298.925 330.495 301.29 332.1 302.913C333.705 304.501 335.639 305.295 337.903 305.295C339.021 305.295 340.052 305.048 340.998 304.554C341.944 304.025 342.689 303.266 343.233 302.278C343.806 301.29 344.093 300.09 344.093 298.678C344.093 297.09 343.749 295.767 343.061 294.708C342.374 293.649 341.485 292.732 340.396 291.955C339.307 291.179 338.147 290.438 336.914 289.732C335.825 289.132 334.751 288.497 333.69 287.826C332.63 287.155 331.656 286.397 330.767 285.55C329.908 284.667 329.206 283.626 328.661 282.426C328.145 281.226 327.887 279.779 327.887 278.085C327.887 277.168 328.016 276.18 328.274 275.121C328.532 274.062 328.976 273.056 329.607 272.103C330.266 271.115 331.154 270.321 332.272 269.721C333.418 269.086 334.865 268.768 336.613 268.768C337.702 268.768 338.92 268.962 340.267 269.351C341.643 269.704 342.918 270.409 344.093 271.468L343.921 269.192H346.113V280.838H344.566Z" fill="url(#paint25_linear)"/>
<path d="M368.396 305.084C369.285 305.084 369.901 304.819 370.245 304.29C370.589 303.725 370.789 302.966 370.846 302.013C370.904 301.025 370.932 299.896 370.932 298.625V291.214C370.932 288.179 370.531 285.903 369.729 284.385C368.955 282.867 367.723 282.126 366.032 282.162C364.972 282.197 363.926 282.515 362.894 283.115C361.891 283.714 361.074 284.491 360.444 285.444V301.06C360.444 301.766 360.43 302.402 360.401 302.966C360.372 303.496 360.315 304.06 360.229 304.66C360.688 304.625 361.132 304.607 361.562 304.607C362.02 304.572 362.479 304.537 362.937 304.501V306.672H354.168V305.084C355.056 305.084 355.673 304.819 356.016 304.29C356.36 303.725 356.561 302.966 356.618 302.013C356.704 301.025 356.747 299.896 356.747 298.625V273.586C356.747 273.021 356.747 272.492 356.747 271.998C356.776 271.468 356.819 270.851 356.876 270.145C356.36 270.18 355.844 270.215 355.329 270.251C354.841 270.286 354.34 270.321 353.824 270.356V268.133C355.085 268.133 356.059 268.062 356.747 267.921C357.464 267.78 357.994 267.604 358.338 267.392C358.71 267.18 358.997 266.951 359.197 266.704H360.444V282.85C361.39 281.862 362.493 281.032 363.754 280.362C365.015 279.691 366.261 279.356 367.494 279.356C369.987 279.356 371.778 280.326 372.867 282.267C373.984 284.173 374.558 287.155 374.586 291.214L374.629 301.06C374.629 301.766 374.615 302.402 374.586 302.966C374.586 303.496 374.543 304.06 374.457 304.66C374.916 304.625 375.36 304.607 375.79 304.607C376.248 304.572 376.707 304.537 377.165 304.501V306.672H368.396V305.084Z" fill="url(#paint26_linear)"/>
<path d="M394 307.519C391.994 307.519 390.174 306.954 388.541 305.825C386.907 304.66 385.603 303.072 384.629 301.06C383.683 299.014 383.21 296.684 383.21 294.073C383.21 291.285 383.683 288.779 384.629 286.555C385.575 284.332 386.864 282.585 388.498 281.315C390.131 280.009 391.965 279.356 394 279.356C396.006 279.356 397.826 279.956 399.459 281.156C401.092 282.32 402.396 283.909 403.371 285.92C404.345 287.932 404.832 290.226 404.832 292.802C404.832 295.52 404.345 298.008 403.371 300.266C402.425 302.49 401.135 304.254 399.502 305.56C397.869 306.866 396.035 307.519 394 307.519ZM394.344 305.401C395.863 305.401 397.066 304.872 397.955 303.813C398.843 302.754 399.473 301.378 399.846 299.684C400.247 297.99 400.448 296.208 400.448 294.337C400.448 292.749 400.319 291.196 400.061 289.679C399.832 288.126 399.459 286.732 398.943 285.497C398.427 284.226 397.754 283.22 396.923 282.479C396.121 281.738 395.146 281.368 394 281.368C392.51 281.368 391.292 281.897 390.346 282.956C389.4 284.014 388.698 285.391 388.24 287.085C387.81 288.779 387.595 290.596 387.595 292.537C387.595 294.726 387.839 296.808 388.326 298.784C388.813 300.725 389.558 302.313 390.561 303.549C391.564 304.784 392.825 305.401 394.344 305.401Z" fill="url(#paint27_linear)"/>
<path d="M411.106 320.171V318.583C411.995 318.583 412.611 318.301 412.955 317.736C413.299 317.207 413.499 316.448 413.557 315.46C413.614 314.507 413.643 313.395 413.643 312.124L413.729 286.555C413.729 285.991 413.729 285.426 413.729 284.861C413.757 284.297 413.815 283.714 413.901 283.115C413.385 283.15 412.869 283.185 412.353 283.22C411.866 283.256 411.364 283.291 410.849 283.326V281.103C412.109 281.103 413.055 281.032 413.686 280.891C414.345 280.75 414.818 280.573 415.104 280.362C415.419 280.15 415.677 279.921 415.878 279.674H417.167C417.196 280.026 417.225 280.45 417.253 280.944C417.282 281.403 417.311 281.932 417.339 282.532C418.199 281.579 419.216 280.821 420.391 280.256C421.595 279.656 422.799 279.356 424.002 279.356C425.664 279.356 427.212 279.885 428.645 280.944C430.077 282.003 431.238 283.52 432.126 285.497C433.015 287.438 433.459 289.767 433.459 292.485C433.459 295.484 432.943 298.114 431.912 300.372C430.909 302.631 429.576 304.396 427.914 305.666C426.252 306.901 424.446 307.519 422.498 307.519C420.52 307.519 418.801 306.937 417.339 305.772V314.56C417.339 315.265 417.325 315.883 417.296 316.412C417.296 316.977 417.253 317.559 417.167 318.159C417.626 318.124 418.07 318.089 418.5 318.054C418.959 318.054 419.417 318.036 419.876 318.001V320.171H411.106ZM422.412 305.401C423.787 305.401 424.962 304.89 425.936 303.866C426.94 302.807 427.699 301.378 428.215 299.578C428.759 297.743 429.031 295.661 429.031 293.332C429.031 291.426 428.802 289.608 428.344 287.879C427.914 286.114 427.212 284.685 426.237 283.591C425.292 282.497 424.031 281.95 422.455 281.95C421.48 281.95 420.535 282.25 419.618 282.85C418.729 283.414 417.984 284.103 417.382 284.914C417.382 285.056 417.382 285.267 417.382 285.55C417.411 285.797 417.425 286.255 417.425 286.926C417.425 287.561 417.425 288.532 417.425 289.838C417.425 291.108 417.411 292.837 417.382 295.026C417.382 297.214 417.382 299.984 417.382 303.337C418.844 304.713 420.52 305.401 422.412 305.401Z" fill="url(#paint28_linear)"/>
<path d="M50.7227 306.672V304.925C51.8116 304.854 52.5567 304.554 52.9579 304.025C53.3591 303.46 53.574 302.702 53.6027 301.749C53.66 300.76 53.6887 299.649 53.6887 298.414V275.544C53.6887 274.062 53.7316 272.792 53.8176 271.733C53.3018 271.768 52.786 271.803 52.2701 271.839C51.7543 271.874 51.2385 271.909 50.7227 271.945V269.615C52.3275 269.58 53.9466 269.545 55.58 269.509C57.2421 269.474 58.9042 269.492 60.5664 269.562C64.7216 269.633 67.702 270.498 69.5074 272.156C71.3414 273.815 72.2584 276.109 72.2584 279.038C72.2871 280.415 72.0722 281.826 71.6137 283.273C71.1838 284.685 70.3814 285.956 69.2065 287.085C68.0602 288.214 66.3981 289.061 64.2201 289.626C64.7933 290.12 65.2948 290.755 65.7246 291.532C66.1545 292.308 66.6417 293.208 67.1861 294.231L70.1092 299.896C70.5963 300.849 71.0692 301.713 71.5277 302.49C71.9862 303.231 72.5164 303.831 73.1182 304.29C73.72 304.713 74.465 304.925 75.3534 304.925V306.672H69.9372C69.1062 305.754 68.4041 304.837 67.8309 303.919C67.2864 303.002 66.7133 301.96 66.1115 300.796L63.2315 295.131C62.8589 294.39 62.4291 293.543 61.9419 292.59C61.4834 291.602 60.9532 290.773 60.3514 290.102C59.8929 290.138 59.4057 290.155 58.8899 290.155C58.4027 290.155 57.9156 290.138 57.4284 290.102V300.372C57.4284 302.243 57.3854 303.637 57.2995 304.554C57.8153 304.519 58.3311 304.484 58.8469 304.448C59.3628 304.413 59.8786 304.378 60.3944 304.343V306.672H50.7227ZM60.0935 288.144C61.6697 288.073 63.0452 287.755 64.2201 287.191C65.4237 286.626 66.3694 285.726 67.0572 284.491C67.745 283.256 68.0888 281.632 68.0888 279.621C68.0888 276.938 67.4584 274.927 66.1975 273.586C64.9652 272.245 63.0309 271.574 60.3944 271.574C59.3341 271.574 58.589 271.839 58.1592 272.368C57.758 272.897 57.5287 273.639 57.4714 274.591C57.4427 275.509 57.4284 276.603 57.4284 277.874V288.038C57.8869 288.073 58.3168 288.108 58.718 288.144C59.1478 288.179 59.6063 288.179 60.0935 288.144Z" stroke="url(#paint29_linear)" stroke-width="2" mask="url(#path-11-outside-1)"/>
<path d="M90.3594 307.519C88.3821 307.519 86.591 306.954 84.9862 305.825C83.4101 304.66 82.1635 303.037 81.2465 300.955C80.3294 298.837 79.8709 296.349 79.8709 293.49C79.8709 291.02 80.3151 288.708 81.2035 286.555C82.1205 284.403 83.3957 282.673 85.0292 281.368C86.6626 280.026 88.554 279.356 90.7033 279.356C92.3081 279.356 93.7696 279.779 95.0878 280.626C96.406 281.473 97.452 282.762 98.2258 284.491C99.0282 286.22 99.4294 288.408 99.4294 291.055L84.2984 291.373C84.2698 295.431 84.8143 298.696 85.9319 301.166C87.0495 303.601 88.8692 304.819 91.3911 304.819C92.2794 304.819 93.1821 304.625 94.0992 304.237C95.0448 303.849 95.9189 303.319 96.7213 302.649C97.5237 301.978 98.1685 301.237 98.6556 300.425L99.6873 301.484C98.9135 302.966 97.9822 304.149 96.8932 305.031C95.8042 305.913 94.6866 306.548 93.5403 306.937C92.3941 307.325 91.3337 307.519 90.3594 307.519ZM84.4274 289.149H95.3887C95.3887 287.879 95.2311 286.661 94.9159 285.497C94.6293 284.297 94.1421 283.326 93.4544 282.585C92.7666 281.809 91.8639 281.42 90.7463 281.42C89.0842 281.42 87.6943 282.038 86.5767 283.273C85.4877 284.473 84.7713 286.432 84.4274 289.149Z" stroke="url(#paint30_linear)" stroke-width="2" mask="url(#path-11-outside-1)"/>
<path d="M119.247 306.672C119.161 306.072 119.104 305.543 119.075 305.084C119.047 304.625 119.004 304.149 118.947 303.654C117.972 304.854 116.912 305.807 115.766 306.513C114.648 307.184 113.459 307.519 112.198 307.519C110.02 307.519 108.401 306.919 107.34 305.719C106.28 304.484 105.75 302.984 105.75 301.219C105.75 299.596 106.151 298.202 106.954 297.037C107.785 295.837 108.845 294.867 110.134 294.126C111.453 293.349 112.871 292.784 114.39 292.432C115.938 292.043 117.428 291.867 118.861 291.902V288.62C118.861 287.385 118.775 286.22 118.603 285.126C118.431 284.032 118.058 283.132 117.485 282.426C116.912 281.72 115.995 281.35 114.734 281.315C113.903 281.279 113.043 281.473 112.155 281.897C111.295 282.32 110.665 283.044 110.263 284.067C110.493 284.35 110.636 284.685 110.693 285.073C110.779 285.426 110.822 285.761 110.822 286.079C110.822 286.503 110.679 286.997 110.392 287.561C110.106 288.091 109.604 288.338 108.888 288.302C108.286 288.302 107.828 288.055 107.512 287.561C107.197 287.032 107.039 286.414 107.039 285.708C107.039 284.509 107.398 283.432 108.114 282.479C108.859 281.526 109.877 280.768 111.166 280.203C112.456 279.638 113.917 279.356 115.551 279.356C117.958 279.356 119.735 280.15 120.881 281.738C122.027 283.291 122.586 285.761 122.557 289.149C122.557 291.126 122.543 293.12 122.514 295.131C122.514 297.108 122.514 299.084 122.514 301.06C122.514 301.625 122.5 302.19 122.471 302.754C122.443 303.319 122.4 303.954 122.342 304.66C122.858 304.625 123.36 304.59 123.847 304.554C124.363 304.519 124.879 304.484 125.394 304.448V306.672H119.247ZM118.861 293.702C117.886 293.737 116.855 293.896 115.766 294.179C114.705 294.426 113.717 294.814 112.8 295.343C111.911 295.873 111.18 296.578 110.607 297.461C110.063 298.308 109.805 299.349 109.834 300.584C109.891 301.89 110.235 302.878 110.865 303.549C111.524 304.184 112.298 304.501 113.186 304.501C114.361 304.501 115.379 304.237 116.238 303.707C117.127 303.143 118.001 302.366 118.861 301.378C118.832 300.99 118.818 300.566 118.818 300.108C118.818 299.649 118.818 299.172 118.818 298.678C118.818 298.502 118.818 297.937 118.818 296.984C118.846 296.031 118.861 294.937 118.861 293.702Z" stroke="url(#paint31_linear)" stroke-width="2" mask="url(#path-11-outside-1)"/>
<path d="M130.923 305.084C131.812 305.084 132.428 304.819 132.772 304.29C133.116 303.725 133.316 302.966 133.374 302.013C133.431 301.025 133.46 299.896 133.46 298.625V273.586C133.46 273.021 133.46 272.492 133.46 271.998C133.488 271.468 133.531 270.851 133.588 270.145C133.073 270.18 132.557 270.215 132.041 270.251C131.554 270.286 131.052 270.321 130.536 270.356V268.133C131.797 268.133 132.772 268.062 133.46 267.921C134.176 267.78 134.706 267.604 135.05 267.392C135.423 267.18 135.709 266.951 135.91 266.704H137.156L137.199 301.06C137.199 301.766 137.185 302.402 137.156 302.966C137.128 303.496 137.07 304.06 136.984 304.66C137.443 304.625 137.887 304.607 138.317 304.607C138.775 304.572 139.234 304.537 139.692 304.501V306.672H130.923V305.084Z" stroke="url(#paint32_linear)" stroke-width="2" mask="url(#path-11-outside-1)"/>
<path d="M169.856 281.42C169.57 278.103 168.624 275.527 167.019 273.692C165.443 271.856 163.408 270.939 160.915 270.939C158.881 270.939 157.032 271.645 155.37 273.056C153.708 274.433 152.375 276.391 151.372 278.932C150.398 281.473 149.911 284.473 149.911 287.932C149.911 291.249 150.427 294.179 151.458 296.72C152.49 299.261 153.88 301.237 155.628 302.649C157.376 304.06 159.31 304.766 161.431 304.766C163.294 304.766 165.128 304.254 166.933 303.231C168.739 302.172 170.214 300.655 171.361 298.678L172.478 299.79C171.246 301.872 169.914 303.478 168.481 304.607C167.048 305.737 165.615 306.495 164.182 306.884C162.778 307.307 161.488 307.519 160.313 307.519C158.164 307.519 156.187 307.042 154.381 306.09C152.605 305.137 151.057 303.813 149.739 302.119C148.449 300.39 147.446 298.396 146.73 296.137C146.042 293.843 145.698 291.373 145.698 288.726C145.698 286.22 145.999 283.785 146.601 281.42C147.231 279.056 148.163 276.921 149.395 275.015C150.627 273.109 152.175 271.592 154.038 270.462C155.929 269.333 158.121 268.768 160.614 268.768C163.767 268.768 166.661 269.845 169.297 271.998L169.082 269.139H171.404V281.42H169.856Z" stroke="url(#paint33_linear)" stroke-width="2" mask="url(#path-11-outside-1)"/>
<path d="M189.338 307.519C187.332 307.519 185.512 306.954 183.879 305.825C182.245 304.66 180.942 303.072 179.967 301.06C179.022 299.014 178.549 296.684 178.549 294.073C178.549 291.285 179.022 288.779 179.967 286.555C180.913 284.332 182.202 282.585 183.836 281.315C185.469 280.009 187.303 279.356 189.338 279.356C191.344 279.356 193.164 279.956 194.797 281.156C196.431 282.32 197.735 283.909 198.709 285.92C199.683 287.932 200.17 290.226 200.17 292.802C200.17 295.52 199.683 298.008 198.709 300.266C197.763 302.49 196.474 304.254 194.84 305.56C193.207 306.866 191.373 307.519 189.338 307.519ZM189.682 305.401C191.201 305.401 192.404 304.872 193.293 303.813C194.181 302.754 194.812 301.378 195.184 299.684C195.585 297.99 195.786 296.208 195.786 294.337C195.786 292.749 195.657 291.196 195.399 289.679C195.17 288.126 194.797 286.732 194.281 285.497C193.766 284.226 193.092 283.22 192.261 282.479C191.459 281.738 190.484 281.368 189.338 281.368C187.848 281.368 186.63 281.897 185.684 282.956C184.739 284.014 184.037 285.391 183.578 287.085C183.148 288.779 182.933 290.596 182.933 292.537C182.933 294.726 183.177 296.808 183.664 298.784C184.151 300.725 184.896 302.313 185.899 303.549C186.902 304.784 188.163 305.401 189.682 305.401Z" stroke="url(#paint34_linear)" stroke-width="2" mask="url(#path-11-outside-1)"/>
<path d="M209.33 279.091C209.33 275.174 209.903 272.086 211.049 269.827C212.224 267.568 214.23 266.439 217.067 266.439C217.698 266.439 218.357 266.58 219.044 266.863C219.761 267.11 220.377 267.533 220.893 268.133C221.409 268.698 221.667 269.439 221.667 270.356C221.667 271.027 221.509 271.592 221.194 272.05C220.907 272.509 220.477 272.739 219.904 272.739C219.216 272.774 218.729 272.527 218.443 271.998C218.185 271.433 218.056 270.956 218.056 270.568C218.056 270.356 218.07 270.145 218.099 269.933C218.127 269.721 218.185 269.492 218.271 269.245C218.07 268.927 217.784 268.698 217.411 268.557C217.067 268.415 216.738 268.345 216.422 268.345C215.534 268.345 214.846 268.662 214.359 269.298C213.872 269.933 213.528 270.727 213.327 271.68C213.127 272.633 213.027 273.621 213.027 274.644V280.203H218.83V282.267L213.027 282.426L213.07 301.06C213.07 301.766 213.055 302.402 213.027 302.966C213.027 303.496 212.984 304.06 212.898 304.66C213.356 304.625 213.8 304.607 214.23 304.607C214.689 304.572 215.147 304.537 215.606 304.501V306.672H206.837V305.084C207.725 305.084 208.341 304.819 208.685 304.29C209.029 303.725 209.229 302.966 209.287 302.013C209.344 301.025 209.373 299.896 209.373 298.625L209.33 282.479L205.805 282.585V280.203H209.33V279.091Z" stroke="url(#paint35_linear)" stroke-width="2" mask="url(#path-11-outside-1)"/>
<path d="M227.283 279.091C227.283 275.174 227.856 272.086 229.002 269.827C230.177 267.568 232.183 266.439 235.02 266.439C235.651 266.439 236.31 266.58 236.998 266.863C237.714 267.11 238.33 267.533 238.846 268.133C239.362 268.698 239.62 269.439 239.62 270.356C239.62 271.027 239.462 271.592 239.147 272.05C238.86 272.509 238.431 272.739 237.857 272.739C237.17 272.774 236.682 272.527 236.396 271.998C236.138 271.433 236.009 270.956 236.009 270.568C236.009 270.356 236.023 270.145 236.052 269.933C236.081 269.721 236.138 269.492 236.224 269.245C236.023 268.927 235.737 268.698 235.364 268.557C235.02 268.415 234.691 268.345 234.376 268.345C233.487 268.345 232.799 268.662 232.312 269.298C231.825 269.933 231.481 270.727 231.281 271.68C231.08 272.633 230.98 273.621 230.98 274.644V280.203H236.783V282.267L230.98 282.426L231.023 301.06C231.023 301.766 231.008 302.402 230.98 302.966C230.98 303.496 230.937 304.06 230.851 304.66C231.309 304.625 231.753 304.607 232.183 304.607C232.642 304.572 233.1 304.537 233.559 304.501V306.672H224.79V305.084C225.678 305.084 226.294 304.819 226.638 304.29C226.982 303.725 227.183 302.966 227.24 302.013C227.297 301.025 227.326 299.896 227.326 298.625L227.283 282.479L223.758 282.585V280.203H227.283V279.091Z" stroke="url(#paint36_linear)" stroke-width="2" mask="url(#path-11-outside-1)"/>
<path d="M252.301 307.519C250.324 307.519 248.533 306.954 246.928 305.825C245.352 304.66 244.105 303.037 243.188 300.955C242.271 298.837 241.812 296.349 241.812 293.49C241.812 291.02 242.257 288.708 243.145 286.555C244.062 284.403 245.337 282.673 246.971 281.368C248.604 280.026 250.496 279.356 252.645 279.356C254.25 279.356 255.711 279.779 257.029 280.626C258.348 281.473 259.394 282.762 260.167 284.491C260.97 286.22 261.371 288.408 261.371 291.055L246.24 291.373C246.211 295.431 246.756 298.696 247.873 301.166C248.991 303.601 250.811 304.819 253.333 304.819C254.221 304.819 255.124 304.625 256.041 304.237C256.986 303.849 257.86 303.319 258.663 302.649C259.465 301.978 260.11 301.237 260.597 300.425L261.629 301.484C260.855 302.966 259.924 304.149 258.835 305.031C257.746 305.913 256.628 306.548 255.482 306.937C254.336 307.325 253.275 307.519 252.301 307.519ZM246.369 289.149H257.33C257.33 287.879 257.173 286.661 256.857 285.497C256.571 284.297 256.084 283.326 255.396 282.585C254.708 281.809 253.805 281.42 252.688 281.42C251.026 281.42 249.636 282.038 248.518 283.273C247.429 284.473 246.713 286.432 246.369 289.149Z" stroke="url(#paint37_linear)" stroke-width="2" mask="url(#path-11-outside-1)"/>
<path d="M278.398 307.519C276.421 307.519 274.629 306.954 273.025 305.825C271.449 304.66 270.202 303.037 269.285 300.955C268.368 298.837 267.909 296.349 267.909 293.49C267.909 291.02 268.354 288.708 269.242 286.555C270.159 284.403 271.434 282.673 273.068 281.368C274.701 280.026 276.592 279.356 278.742 279.356C280.347 279.356 281.808 279.779 283.126 280.626C284.445 281.473 285.49 282.762 286.264 284.491C287.067 286.22 287.468 288.408 287.468 291.055L272.337 291.373C272.308 295.431 272.853 298.696 273.97 301.166C275.088 303.601 276.908 304.819 279.43 304.819C280.318 304.819 281.221 304.625 282.138 304.237C283.083 303.849 283.957 303.319 284.76 302.649C285.562 301.978 286.207 301.237 286.694 300.425L287.726 301.484C286.952 302.966 286.021 304.149 284.932 305.031C283.843 305.913 282.725 306.548 281.579 306.937C280.433 307.325 279.372 307.519 278.398 307.519ZM272.466 289.149H283.427C283.427 287.879 283.27 286.661 282.954 285.497C282.668 284.297 282.181 283.326 281.493 282.585C280.805 281.809 279.902 281.42 278.785 281.42C277.123 281.42 275.733 282.038 274.615 283.273C273.526 284.473 272.81 286.432 272.466 289.149Z" stroke="url(#paint38_linear)" stroke-width="2" mask="url(#path-11-outside-1)"/>
<path d="M304.06 307.519C302.398 307.519 300.793 307.184 299.246 306.513C297.698 305.807 296.423 304.696 295.42 303.178C294.445 301.66 293.958 299.649 293.958 297.143C293.958 294.849 294.56 292.82 295.764 291.055C296.996 289.291 298.644 287.861 300.707 286.767C299.561 285.003 298.73 283.362 298.214 281.844C297.698 280.326 297.44 278.738 297.44 277.08C297.469 274.539 298.228 272.527 299.718 271.045C301.209 269.527 303.1 268.768 305.392 268.768C307.57 268.768 309.304 269.492 310.594 270.939C311.912 272.35 312.571 274.097 312.571 276.18C312.571 278.121 312.041 279.956 310.981 281.685C309.92 283.414 308.101 285.091 305.521 286.714C306.295 287.702 307.141 288.797 308.058 289.996C309.003 291.196 309.949 292.379 310.895 293.543C311.84 294.673 312.7 295.696 313.474 296.614C313.617 295.978 313.717 295.378 313.775 294.814C313.861 294.214 313.904 293.684 313.904 293.226C313.904 292.414 313.803 291.62 313.603 290.843C313.431 290.032 313.101 289.361 312.614 288.832C312.156 288.267 311.496 287.967 310.637 287.932V286.185H318.159V288.355L314.591 288.144C315.05 288.602 315.379 289.202 315.58 289.943C315.781 290.685 315.895 291.549 315.924 292.537C315.953 293.208 315.895 294.073 315.752 295.131C315.637 296.155 315.408 297.231 315.064 298.361C315.379 298.714 315.709 299.102 316.053 299.525C316.425 299.913 316.812 300.319 317.214 300.743C318.503 302.155 319.606 303.213 320.523 303.919C321.469 304.59 322.171 304.925 322.63 304.925V306.672H318.632C318.374 306.672 317.787 306.354 316.87 305.719C315.981 305.048 314.792 303.901 313.302 302.278C312.385 303.725 311.167 304.96 309.648 305.984C308.158 307.007 306.295 307.519 304.06 307.519ZM304.576 285.444C306.181 284.138 307.37 282.691 308.144 281.103C308.917 279.479 309.304 277.891 309.304 276.338C309.304 274.644 308.946 273.25 308.23 272.156C307.513 271.027 306.496 270.462 305.178 270.462C304.003 270.462 303.014 271.009 302.212 272.103C301.438 273.162 301.051 274.68 301.051 276.656C301.051 278.174 301.381 279.674 302.04 281.156C302.727 282.638 303.573 284.067 304.576 285.444ZM304.576 304.872C306.381 304.943 307.871 304.59 309.046 303.813C310.25 303.002 311.21 301.996 311.926 300.796C311.726 300.549 311.525 300.319 311.324 300.108C311.124 299.861 310.909 299.613 310.68 299.366C308.76 297.037 307.055 294.973 305.564 293.173C304.103 291.373 302.856 289.749 301.825 288.302C300.908 288.973 300.191 289.802 299.675 290.791C299.16 291.779 298.787 292.767 298.558 293.755C298.357 294.743 298.257 295.608 298.257 296.349C298.257 298.29 298.558 299.878 299.16 301.113C299.79 302.349 300.578 303.266 301.524 303.866C302.498 304.466 303.515 304.801 304.576 304.872Z" stroke="url(#paint39_linear)" stroke-width="2" mask="url(#path-11-outside-1)"/>
<path d="M344.566 280.838C344.48 279.144 344.15 277.538 343.577 276.021C343.004 274.503 342.173 273.268 341.084 272.315C339.995 271.362 338.605 270.886 336.914 270.886C335.138 270.886 333.776 271.503 332.831 272.739C331.885 273.974 331.412 275.421 331.412 277.08C331.412 278.562 331.756 279.815 332.444 280.838C333.132 281.826 334.02 282.709 335.109 283.485C336.227 284.226 337.402 284.95 338.634 285.656C339.723 286.255 340.812 286.908 341.901 287.614C342.99 288.285 343.978 289.061 344.867 289.943C345.755 290.826 346.457 291.885 346.973 293.12C347.517 294.32 347.79 295.767 347.79 297.461C347.79 300.39 346.916 302.807 345.168 304.713C343.419 306.584 340.941 307.519 337.731 307.519C336.441 307.519 335.109 307.289 333.733 306.831C332.358 306.372 331.14 305.701 330.08 304.819L330.295 307.095H328.059L327.801 295.82H329.478C329.621 298.925 330.495 301.29 332.1 302.913C333.705 304.501 335.639 305.295 337.903 305.295C339.021 305.295 340.052 305.048 340.998 304.554C341.944 304.025 342.689 303.266 343.233 302.278C343.806 301.29 344.093 300.09 344.093 298.678C344.093 297.09 343.749 295.767 343.061 294.708C342.374 293.649 341.485 292.732 340.396 291.955C339.307 291.179 338.147 290.438 336.914 289.732C335.825 289.132 334.751 288.497 333.69 287.826C332.63 287.155 331.656 286.397 330.767 285.55C329.908 284.667 329.206 283.626 328.661 282.426C328.145 281.226 327.887 279.779 327.887 278.085C327.887 277.168 328.016 276.18 328.274 275.121C328.532 274.062 328.976 273.056 329.607 272.103C330.266 271.115 331.154 270.321 332.272 269.721C333.418 269.086 334.865 268.768 336.613 268.768C337.702 268.768 338.92 268.962 340.267 269.351C341.643 269.704 342.918 270.409 344.093 271.468L343.921 269.192H346.113V280.838H344.566Z" stroke="url(#paint40_linear)" stroke-width="2" mask="url(#path-11-outside-1)"/>
<path d="M368.396 305.084C369.285 305.084 369.901 304.819 370.245 304.29C370.589 303.725 370.789 302.966 370.846 302.013C370.904 301.025 370.932 299.896 370.932 298.625V291.214C370.932 288.179 370.531 285.903 369.729 284.385C368.955 282.867 367.723 282.126 366.032 282.162C364.972 282.197 363.926 282.515 362.894 283.115C361.891 283.714 361.074 284.491 360.444 285.444V301.06C360.444 301.766 360.43 302.402 360.401 302.966C360.372 303.496 360.315 304.06 360.229 304.66C360.688 304.625 361.132 304.607 361.562 304.607C362.02 304.572 362.479 304.537 362.937 304.501V306.672H354.168V305.084C355.056 305.084 355.673 304.819 356.016 304.29C356.36 303.725 356.561 302.966 356.618 302.013C356.704 301.025 356.747 299.896 356.747 298.625V273.586C356.747 273.021 356.747 272.492 356.747 271.998C356.776 271.468 356.819 270.851 356.876 270.145C356.36 270.18 355.844 270.215 355.329 270.251C354.841 270.286 354.34 270.321 353.824 270.356V268.133C355.085 268.133 356.059 268.062 356.747 267.921C357.464 267.78 357.994 267.604 358.338 267.392C358.71 267.18 358.997 266.951 359.197 266.704H360.444V282.85C361.39 281.862 362.493 281.032 363.754 280.362C365.015 279.691 366.261 279.356 367.494 279.356C369.987 279.356 371.778 280.326 372.867 282.267C373.984 284.173 374.558 287.155 374.586 291.214L374.629 301.06C374.629 301.766 374.615 302.402 374.586 302.966C374.586 303.496 374.543 304.06 374.457 304.66C374.916 304.625 375.36 304.607 375.79 304.607C376.248 304.572 376.707 304.537 377.165 304.501V306.672H368.396V305.084Z" stroke="url(#paint41_linear)" stroke-width="2" mask="url(#path-11-outside-1)"/>
<path d="M394 307.519C391.994 307.519 390.174 306.954 388.541 305.825C386.907 304.66 385.603 303.072 384.629 301.06C383.683 299.014 383.21 296.684 383.21 294.073C383.21 291.285 383.683 288.779 384.629 286.555C385.575 284.332 386.864 282.585 388.498 281.315C390.131 280.009 391.965 279.356 394 279.356C396.006 279.356 397.826 279.956 399.459 281.156C401.092 282.32 402.396 283.909 403.371 285.92C404.345 287.932 404.832 290.226 404.832 292.802C404.832 295.52 404.345 298.008 403.371 300.266C402.425 302.49 401.135 304.254 399.502 305.56C397.869 306.866 396.035 307.519 394 307.519ZM394.344 305.401C395.863 305.401 397.066 304.872 397.955 303.813C398.843 302.754 399.473 301.378 399.846 299.684C400.247 297.99 400.448 296.208 400.448 294.337C400.448 292.749 400.319 291.196 400.061 289.679C399.832 288.126 399.459 286.732 398.943 285.497C398.427 284.226 397.754 283.22 396.923 282.479C396.121 281.738 395.146 281.368 394 281.368C392.51 281.368 391.292 281.897 390.346 282.956C389.4 284.014 388.698 285.391 388.24 287.085C387.81 288.779 387.595 290.596 387.595 292.537C387.595 294.726 387.839 296.808 388.326 298.784C388.813 300.725 389.558 302.313 390.561 303.549C391.564 304.784 392.825 305.401 394.344 305.401Z" stroke="url(#paint42_linear)" stroke-width="2" mask="url(#path-11-outside-1)"/>
<path d="M411.106 320.171V318.583C411.995 318.583 412.611 318.301 412.955 317.736C413.299 317.207 413.499 316.448 413.557 315.46C413.614 314.507 413.643 313.395 413.643 312.124L413.729 286.555C413.729 285.991 413.729 285.426 413.729 284.861C413.757 284.297 413.815 283.714 413.901 283.115C413.385 283.15 412.869 283.185 412.353 283.22C411.866 283.256 411.364 283.291 410.849 283.326V281.103C412.109 281.103 413.055 281.032 413.686 280.891C414.345 280.75 414.818 280.573 415.104 280.362C415.419 280.15 415.677 279.921 415.878 279.674H417.167C417.196 280.026 417.225 280.45 417.253 280.944C417.282 281.403 417.311 281.932 417.339 282.532C418.199 281.579 419.216 280.821 420.391 280.256C421.595 279.656 422.799 279.356 424.002 279.356C425.664 279.356 427.212 279.885 428.645 280.944C430.077 282.003 431.238 283.52 432.126 285.497C433.015 287.438 433.459 289.767 433.459 292.485C433.459 295.484 432.943 298.114 431.912 300.372C430.909 302.631 429.576 304.396 427.914 305.666C426.252 306.901 424.446 307.519 422.498 307.519C420.52 307.519 418.801 306.937 417.339 305.772V314.56C417.339 315.265 417.325 315.883 417.296 316.412C417.296 316.977 417.253 317.559 417.167 318.159C417.626 318.124 418.07 318.089 418.5 318.054C418.959 318.054 419.417 318.036 419.876 318.001V320.171H411.106ZM422.412 305.401C423.787 305.401 424.962 304.89 425.936 303.866C426.94 302.807 427.699 301.378 428.215 299.578C428.759 297.743 429.031 295.661 429.031 293.332C429.031 291.426 428.802 289.608 428.344 287.879C427.914 286.114 427.212 284.685 426.237 283.591C425.292 282.497 424.031 281.95 422.455 281.95C421.48 281.95 420.535 282.25 419.618 282.85C418.729 283.414 417.984 284.103 417.382 284.914C417.382 285.056 417.382 285.267 417.382 285.55C417.411 285.797 417.425 286.255 417.425 286.926C417.425 287.561 417.425 288.532 417.425 289.838C417.425 291.108 417.411 292.837 417.382 295.026C417.382 297.214 417.382 299.984 417.382 303.337C418.844 304.713 420.52 305.401 422.412 305.401Z" stroke="url(#paint43_linear)" stroke-width="2" mask="url(#path-11-outside-1)"/>
<defs>
<radialGradient id="paint0_radial" cx="0" cy="0" r="1" gradientUnits="userSpaceOnUse" gradientTransform="translate(161.827 163.258) rotate(90) scale(64.9406 34.8397)">
<stop stop-color="#FCC201"/>
<stop offset="0.21875" stop-color="#EEB609"/>
<stop offset="0.484375" stop-color="#DBA514"/>
<stop offset="0.744792" stop-color="#C69320"/>
<stop offset="1" stop-color="#B78628"/>
</radialGradient>
<radialGradient id="paint1_radial" cx="0" cy="0" r="1" gradientUnits="userSpaceOnUse" gradientTransform="translate(170.301 122.046) rotate(90) scale(27.8584 15.4216)">
<stop stop-color="#FCC201"/>
<stop offset="0.21875" stop-color="#EEB609"/>
<stop offset="0.484375" stop-color="#DBA514"/>
<stop offset="0.744792" stop-color="#C69320"/>
<stop offset="1" stop-color="#B78628"/>
</radialGradient>
<radialGradient id="paint2_radial" cx="0" cy="0" r="1" gradientUnits="userSpaceOnUse" gradientTransform="translate(170.301 122.046) rotate(90) scale(27.8584 15.4216)">
<stop stop-color="#FCC201"/>
<stop offset="0.21875" stop-color="#EEB609"/>
<stop offset="0.484375" stop-color="#DBA514"/>
<stop offset="0.744792" stop-color="#C69320"/>
<stop offset="1" stop-color="#B78628"/>
</radialGradient>
<radialGradient id="paint3_radial" cx="0" cy="0" r="1" gradientUnits="userSpaceOnUse" gradientTransform="translate(203.963 96.841) rotate(90) scale(7.29624 12.271)">
<stop stop-color="#FCC201"/>
<stop offset="0.21875" stop-color="#EEB609"/>
<stop offset="0.484375" stop-color="#DBA514"/>
<stop offset="0.744792" stop-color="#C69320"/>
<stop offset="1" stop-color="#B78628"/>
</radialGradient>
<radialGradient id="paint4_radial" cx="0" cy="0" r="1" gradientUnits="userSpaceOnUse" gradientTransform="translate(215.239 99.66) rotate(90) scale(1.49241 2.98483)">
<stop stop-color="#FCC201"/>
<stop offset="0.21875" stop-color="#EEB609"/>
<stop offset="0.484375" stop-color="#DBA514"/>
<stop offset="0.744792" stop-color="#C69320"/>
<stop offset="1" stop-color="#B78628"/>
</radialGradient>
<radialGradient id="paint5_radial" cx="0" cy="0" r="1" gradientUnits="userSpaceOnUse" gradientTransform="translate(184.037 115.911) rotate(90) scale(1.82406 1.97866)">
<stop stop-color="#FCC201"/>
<stop offset="0.21875" stop-color="#EEB609"/>
<stop offset="0.484375" stop-color="#DBA514"/>
<stop offset="0.744792" stop-color="#C69320"/>
<stop offset="1" stop-color="#B78628"/>
</radialGradient>
<radialGradient id="paint6_radial" cx="0" cy="0" r="1" gradientUnits="userSpaceOnUse" gradientTransform="translate(271.619 149.241) rotate(90) scale(56.3801 60.3598)">
<stop stop-color="#FCC201"/>
<stop offset="0.21875" stop-color="#EEB609"/>
<stop offset="0.484375" stop-color="#DBA514"/>
<stop offset="0.744792" stop-color="#C69320"/>
<stop offset="1" stop-color="#B78628"/>
</radialGradient>
<radialGradient id="paint7_radial" cx="0" cy="0" r="1" gradientUnits="userSpaceOnUse" gradientTransform="translate(223.53 110.439) rotate(90) scale(4.31142)">
<stop stop-color="#FCC201"/>
<stop offset="0.21875" stop-color="#EEB609"/>
<stop offset="0.484375" stop-color="#DBA514"/>
<stop offset="0.744792" stop-color="#C69320"/>
<stop offset="1" stop-color="#B78628"/>
</radialGradient>
<radialGradient id="paint8_radial" cx="0" cy="0" r="1" gradientUnits="userSpaceOnUse" gradientTransform="translate(223.53 110.439) rotate(90) scale(4.31142)">
<stop stop-color="#FCC201"/>
<stop offset="0.21875" stop-color="#EEB609"/>
<stop offset="0.484375" stop-color="#DBA514"/>
<stop offset="0.744792" stop-color="#C69320"/>
<stop offset="1" stop-color="#B78628"/>
</radialGradient>
<radialGradient id="paint9_radial" cx="0" cy="0" r="1" gradientUnits="userSpaceOnUse" gradientTransform="translate(304.618 183.069) rotate(90) scale(23.2153 41.2901)">
<stop stop-color="#FCC201"/>
<stop offset="0.21875" stop-color="#EEB609"/>
<stop offset="0.484375" stop-color="#DBA514"/>
<stop offset="0.744792" stop-color="#C69320"/>
<stop offset="1" stop-color="#B78628"/>
</radialGradient>
<radialGradient id="paint10_radial" cx="0" cy="0" r="1" gradientUnits="userSpaceOnUse" gradientTransform="translate(304.618 183.069) rotate(90) scale(23.2153 41.2901)">
<stop stop-color="#FCC201"/>
<stop offset="0.21875" stop-color="#EEB609"/>
<stop offset="0.484375" stop-color="#DBA514"/>
<stop offset="0.744792" stop-color="#C69320"/>
<stop offset="1" stop-color="#B78628"/>
</radialGradient>
<radialGradient id="paint11_radial" cx="0" cy="0" r="1" gradientUnits="userSpaceOnUse" gradientTransform="translate(304.618 183.069) rotate(90) scale(23.2153 41.2901)">
<stop stop-color="#FCC201"/>
<stop offset="0.21875" stop-color="#EEB609"/>
<stop offset="0.484375" stop-color="#DBA514"/>
<stop offset="0.744792" stop-color="#C69320"/>
<stop offset="1" stop-color="#B78628"/>
</radialGradient>
<radialGradient id="paint12_radial" cx="0" cy="0" r="1" gradientUnits="userSpaceOnUse" gradientTransform="translate(227.881 164.764) rotate(90) scale(17.9734 125.402)">
<stop stop-color="#FCC201"/>
<stop offset="0.25" stop-color="#EEB609"/>
<stop offset="0.546875" stop-color="#DBA514"/>
<stop offset="0.770833" stop-color="#C69320"/>
<stop offset="1" stop-color="#B78628"/>
</radialGradient>
<radialGradient id="paint13_radial" cx="0" cy="0" r="1" gradientUnits="userSpaceOnUse" gradientTransform="translate(229.5 120.056) rotate(90) scale(120.056 229.5)">
<stop stop-color="#FCC201"/>
<stop offset="0.25" stop-color="#EEB609"/>
<stop offset="0.546875" stop-color="#DBA514"/>
<stop offset="0.770833" stop-color="#C69320"/>
<stop offset="1" stop-color="#B78628"/>
</radialGradient>
<linearGradient id="paint14_linear" x1="242.689" y1="253.734" x2="242.689" y2="322.112" gradientUnits="userSpaceOnUse">
<stop stop-color="#FCC201"/>
<stop offset="0.244792" stop-color="#EEB609"/>
<stop offset="0.458333" stop-color="#DBA514"/>
<stop offset="0.713542" stop-color="#C69320"/>
<stop offset="1" stop-color="#B78628"/>
</linearGradient>
<linearGradient id="paint15_linear" x1="242.689" y1="253.734" x2="242.689" y2="322.112" gradientUnits="userSpaceOnUse">
<stop stop-color="#FCC201"/>
<stop offset="0.244792" stop-color="#EEB609"/>
<stop offset="0.458333" stop-color="#DBA514"/>
<stop offset="0.713542" stop-color="#C69320"/>
<stop offset="1" stop-color="#B78628"/>
</linearGradient>
<linearGradient id="paint16_linear" x1="242.689" y1="253.734" x2="242.689" y2="322.112" gradientUnits="userSpaceOnUse">
<stop stop-color="#FCC201"/>
<stop offset="0.244792" stop-color="#EEB609"/>
<stop offset="0.458333" stop-color="#DBA514"/>
<stop offset="0.713542" stop-color="#C69320"/>
<stop offset="1" stop-color="#B78628"/>
</linearGradient>
<linearGradient id="paint17_linear" x1="242.689" y1="253.734" x2="242.689" y2="322.112" gradientUnits="userSpaceOnUse">
<stop stop-color="#FCC201"/>
<stop offset="0.244792" stop-color="#EEB609"/>
<stop offset="0.458333" stop-color="#DBA514"/>
<stop offset="0.713542" stop-color="#C69320"/>
<stop offset="1" stop-color="#B78628"/>
</linearGradient>
<linearGradient id="paint18_linear" x1="242.689" y1="253.734" x2="242.689" y2="322.112" gradientUnits="userSpaceOnUse">
<stop stop-color="#FCC201"/>
<stop offset="0.244792" stop-color="#EEB609"/>
<stop offset="0.458333" stop-color="#DBA514"/>
<stop offset="0.713542" stop-color="#C69320"/>
<stop offset="1" stop-color="#B78628"/>
</linearGradient>
<linearGradient id="paint19_linear" x1="242.689" y1="253.734" x2="242.689" y2="322.112" gradientUnits="userSpaceOnUse">
<stop stop-color="#FCC201"/>
<stop offset="0.244792" stop-color="#EEB609"/>
<stop offset="0.458333" stop-color="#DBA514"/>
<stop offset="0.713542" stop-color="#C69320"/>
<stop offset="1" stop-color="#B78628"/>
</linearGradient>
<linearGradient id="paint20_linear" x1="242.689" y1="253.734" x2="242.689" y2="322.112" gradientUnits="userSpaceOnUse">
<stop stop-color="#FCC201"/>
<stop offset="0.244792" stop-color="#EEB609"/>
<stop offset="0.458333" stop-color="#DBA514"/>
<stop offset="0.713542" stop-color="#C69320"/>
<stop offset="1" stop-color="#B78628"/>
</linearGradient>
<linearGradient id="paint21_linear" x1="242.689" y1="253.734" x2="242.689" y2="322.112" gradientUnits="userSpaceOnUse">
<stop stop-color="#FCC201"/>
<stop offset="0.244792" stop-color="#EEB609"/>
<stop offset="0.458333" stop-color="#DBA514"/>
<stop offset="0.713542" stop-color="#C69320"/>
<stop offset="1" stop-color="#B78628"/>
</linearGradient>
<linearGradient id="paint22_linear" x1="242.689" y1="253.734" x2="242.689" y2="322.112" gradientUnits="userSpaceOnUse">
<stop stop-color="#FCC201"/>
<stop offset="0.244792" stop-color="#EEB609"/>
<stop offset="0.458333" stop-color="#DBA514"/>
<stop offset="0.713542" stop-color="#C69320"/>
<stop offset="1" stop-color="#B78628"/>
</linearGradient>
<linearGradient id="paint23_linear" x1="242.689" y1="253.734" x2="242.689" y2="322.112" gradientUnits="userSpaceOnUse">
<stop stop-color="#FCC201"/>
<stop offset="0.244792" stop-color="#EEB609"/>
<stop offset="0.458333" stop-color="#DBA514"/>
<stop offset="0.713542" stop-color="#C69320"/>
<stop offset="1" stop-color="#B78628"/>
</linearGradient>
<linearGradient id="paint24_linear" x1="242.689" y1="253.734" x2="242.689" y2="322.112" gradientUnits="userSpaceOnUse">
<stop stop-color="#FCC201"/>
<stop offset="0.244792" stop-color="#EEB609"/>
<stop offset="0.458333" stop-color="#DBA514"/>
<stop offset="0.713542" stop-color="#C69320"/>
<stop offset="1" stop-color="#B78628"/>
</linearGradient>
<linearGradient id="paint25_linear" x1="242.689" y1="253.734" x2="242.689" y2="322.112" gradientUnits="userSpaceOnUse">
<stop stop-color="#FCC201"/>
<stop offset="0.244792" stop-color="#EEB609"/>
<stop offset="0.458333" stop-color="#DBA514"/>
<stop offset="0.713542" stop-color="#C69320"/>
<stop offset="1" stop-color="#B78628"/>
</linearGradient>
<linearGradient id="paint26_linear" x1="242.689" y1="253.734" x2="242.689" y2="322.112" gradientUnits="userSpaceOnUse">
<stop stop-color="#FCC201"/>
<stop offset="0.244792" stop-color="#EEB609"/>
<stop offset="0.458333" stop-color="#DBA514"/>
<stop offset="0.713542" stop-color="#C69320"/>
<stop offset="1" stop-color="#B78628"/>
</linearGradient>
<linearGradient id="paint27_linear" x1="242.689" y1="253.734" x2="242.689" y2="322.112" gradientUnits="userSpaceOnUse">
<stop stop-color="#FCC201"/>
<stop offset="0.244792" stop-color="#EEB609"/>
<stop offset="0.458333" stop-color="#DBA514"/>
<stop offset="0.713542" stop-color="#C69320"/>
<stop offset="1" stop-color="#B78628"/>
</linearGradient>
<linearGradient id="paint28_linear" x1="242.689" y1="253.734" x2="242.689" y2="322.112" gradientUnits="userSpaceOnUse">
<stop stop-color="#FCC201"/>
<stop offset="0.244792" stop-color="#EEB609"/>
<stop offset="0.458333" stop-color="#DBA514"/>
<stop offset="0.713542" stop-color="#C69320"/>
<stop offset="1" stop-color="#B78628"/>
</linearGradient>
<linearGradient id="paint29_linear" x1="242.091" y1="266.439" x2="242.091" y2="320.171" gradientUnits="userSpaceOnUse">
<stop stop-color="#FCC201"/>
<stop offset="0.229167" stop-color="#EEB609"/>
<stop offset="0.489583" stop-color="#DBA514"/>
<stop offset="0.729167" stop-color="#C69320"/>
<stop offset="1" stop-color="#B78628"/>
</linearGradient>
<linearGradient id="paint30_linear" x1="242.091" y1="266.439" x2="242.091" y2="320.171" gradientUnits="userSpaceOnUse">
<stop stop-color="#FCC201"/>
<stop offset="0.229167" stop-color="#EEB609"/>
<stop offset="0.489583" stop-color="#DBA514"/>
<stop offset="0.729167" stop-color="#C69320"/>
<stop offset="1" stop-color="#B78628"/>
</linearGradient>
<linearGradient id="paint31_linear" x1="242.091" y1="266.439" x2="242.091" y2="320.171" gradientUnits="userSpaceOnUse">
<stop stop-color="#FCC201"/>
<stop offset="0.229167" stop-color="#EEB609"/>
<stop offset="0.489583" stop-color="#DBA514"/>
<stop offset="0.729167" stop-color="#C69320"/>
<stop offset="1" stop-color="#B78628"/>
</linearGradient>
<linearGradient id="paint32_linear" x1="242.091" y1="266.439" x2="242.091" y2="320.171" gradientUnits="userSpaceOnUse">
<stop stop-color="#FCC201"/>
<stop offset="0.229167" stop-color="#EEB609"/>
<stop offset="0.489583" stop-color="#DBA514"/>
<stop offset="0.729167" stop-color="#C69320"/>
<stop offset="1" stop-color="#B78628"/>
</linearGradient>
<linearGradient id="paint33_linear" x1="242.091" y1="266.439" x2="242.091" y2="320.171" gradientUnits="userSpaceOnUse">
<stop stop-color="#FCC201"/>
<stop offset="0.229167" stop-color="#EEB609"/>
<stop offset="0.489583" stop-color="#DBA514"/>
<stop offset="0.729167" stop-color="#C69320"/>
<stop offset="1" stop-color="#B78628"/>
</linearGradient>
<linearGradient id="paint34_linear" x1="242.091" y1="266.439" x2="242.091" y2="320.171" gradientUnits="userSpaceOnUse">
<stop stop-color="#FCC201"/>
<stop offset="0.229167" stop-color="#EEB609"/>
<stop offset="0.489583" stop-color="#DBA514"/>
<stop offset="0.729167" stop-color="#C69320"/>
<stop offset="1" stop-color="#B78628"/>
</linearGradient>
<linearGradient id="paint35_linear" x1="242.091" y1="266.439" x2="242.091" y2="320.171" gradientUnits="userSpaceOnUse">
<stop stop-color="#FCC201"/>
<stop offset="0.229167" stop-color="#EEB609"/>
<stop offset="0.489583" stop-color="#DBA514"/>
<stop offset="0.729167" stop-color="#C69320"/>
<stop offset="1" stop-color="#B78628"/>
</linearGradient>
<linearGradient id="paint36_linear" x1="242.091" y1="266.439" x2="242.091" y2="320.171" gradientUnits="userSpaceOnUse">
<stop stop-color="#FCC201"/>
<stop offset="0.229167" stop-color="#EEB609"/>
<stop offset="0.489583" stop-color="#DBA514"/>
<stop offset="0.729167" stop-color="#C69320"/>
<stop offset="1" stop-color="#B78628"/>
</linearGradient>
<linearGradient id="paint37_linear" x1="242.091" y1="266.439" x2="242.091" y2="320.171" gradientUnits="userSpaceOnUse">
<stop stop-color="#FCC201"/>
<stop offset="0.229167" stop-color="#EEB609"/>
<stop offset="0.489583" stop-color="#DBA514"/>
<stop offset="0.729167" stop-color="#C69320"/>
<stop offset="1" stop-color="#B78628"/>
</linearGradient>
<linearGradient id="paint38_linear" x1="242.091" y1="266.439" x2="242.091" y2="320.171" gradientUnits="userSpaceOnUse">
<stop stop-color="#FCC201"/>
<stop offset="0.229167" stop-color="#EEB609"/>
<stop offset="0.489583" stop-color="#DBA514"/>
<stop offset="0.729167" stop-color="#C69320"/>
<stop offset="1" stop-color="#B78628"/>
</linearGradient>
<linearGradient id="paint39_linear" x1="242.091" y1="266.439" x2="242.091" y2="320.171" gradientUnits="userSpaceOnUse">
<stop stop-color="#FCC201"/>
<stop offset="0.229167" stop-color="#EEB609"/>
<stop offset="0.489583" stop-color="#DBA514"/>
<stop offset="0.729167" stop-color="#C69320"/>
<stop offset="1" stop-color="#B78628"/>
</linearGradient>
<linearGradient id="paint40_linear" x1="242.091" y1="266.439" x2="242.091" y2="320.171" gradientUnits="userSpaceOnUse">
<stop stop-color="#FCC201"/>
<stop offset="0.229167" stop-color="#EEB609"/>
<stop offset="0.489583" stop-color="#DBA514"/>
<stop offset="0.729167" stop-color="#C69320"/>
<stop offset="1" stop-color="#B78628"/>
</linearGradient>
<linearGradient id="paint41_linear" x1="242.091" y1="266.439" x2="242.091" y2="320.171" gradientUnits="userSpaceOnUse">
<stop stop-color="#FCC201"/>
<stop offset="0.229167" stop-color="#EEB609"/>
<stop offset="0.489583" stop-color="#DBA514"/>
<stop offset="0.729167" stop-color="#C69320"/>
<stop offset="1" stop-color="#B78628"/>
</linearGradient>
<linearGradient id="paint42_linear" x1="242.091" y1="266.439" x2="242.091" y2="320.171" gradientUnits="userSpaceOnUse">
<stop stop-color="#FCC201"/>
<stop offset="0.229167" stop-color="#EEB609"/>
<stop offset="0.489583" stop-color="#DBA514"/>
<stop offset="0.729167" stop-color="#C69320"/>
<stop offset="1" stop-color="#B78628"/>
</linearGradient>
<linearGradient id="paint43_linear" x1="242.091" y1="266.439" x2="242.091" y2="320.171" gradientUnits="userSpaceOnUse">
<stop stop-color="#FCC201"/>
<stop offset="0.229167" stop-color="#EEB609"/>
<stop offset="0.489583" stop-color="#DBA514"/>
<stop offset="0.729167" stop-color="#C69320"/>
<stop offset="1" stop-color="#B78628"/>
</linearGradient>
</defs>
</svg>
