<svg width="351" height="212" viewBox="0 0 351 212" fill="none" xmlns="http://www.w3.org/2000/svg">
<path d="M82.8212 55.2926H149.023V60.5605H88.8897V100.208H145.437V105.476H88.8897V149.006H149.713V154.274H82.8212V55.2926ZM154.954 55.2926H161.988L193.158 98.8222L225.017 55.2926L268.352 0L197.157 103.397L233.844 154.274H226.534L193.158 107.972L159.643 154.274H152.471L189.434 103.397L154.954 55.2926ZM236.465 60.5605V55.2926H311.907V60.5605H277.151V154.274H271.083V60.5605H236.465ZM0 55.2926H7.58562L112.187 212L68.9602 154.274L6.34434 62.7786L6.0685 154.274H0V55.2926ZM311.296 147.416C310.056 147.416 309.126 146.454 309.126 145.212C309.126 143.969 310.056 143.007 311.296 143.007C312.55 143.007 313.465 143.969 313.465 145.212C313.465 146.454 312.55 147.416 311.296 147.416ZM317.259 141.616H320.506C320.55 143.377 321.834 144.561 323.724 144.561C325.834 144.561 327.03 143.288 327.03 140.906V125.814H330.336V140.921C330.336 145.212 327.856 147.683 323.753 147.683C319.901 147.683 317.259 145.286 317.259 141.616ZM334.661 141.424H337.937C338.218 143.451 340.196 144.738 343.044 144.738C345.701 144.738 347.649 143.362 347.649 141.468C347.649 139.84 346.41 138.864 343.59 138.198L340.845 137.532C336.993 136.63 335.236 134.765 335.236 131.629C335.236 127.826 338.336 125.296 342.985 125.296C347.31 125.296 350.469 127.826 350.661 131.421H347.443C347.133 129.453 345.421 128.225 342.941 128.225C340.329 128.225 338.587 129.483 338.587 131.407C338.587 132.931 339.709 133.804 342.483 134.455L344.83 135.032C349.199 136.053 351 137.828 351 141.039C351 145.123 347.841 147.683 342.793 147.683C338.07 147.683 334.897 145.241 334.661 141.424Z" fill="white"/>
</svg>
