<svg width="113" height="69" viewBox="0 0 113 69" fill="none" xmlns="http://www.w3.org/2000/svg">
<path d="M26.6632 17.8007H47.9761V19.4967H28.6169V32.2608H46.8216V33.9568H28.6169V47.9706H48.1981V49.6665H26.6632V17.8007ZM49.8854 17.8007H52.1498L62.1846 31.8145L72.4414 17.8007L86.3924 0L63.4723 33.2873L75.2831 49.6665H72.9299L62.1846 34.7601L51.395 49.6665H49.0861L60.9858 33.2873L49.8854 17.8007ZM76.1268 19.4967V17.8007H100.415V19.4967H89.2253V49.6665H87.2716V19.4967H76.1268ZM0 17.8007H2.4421L36.1172 68.2507L22.2009 49.6665L2.04248 20.2108L1.95368 49.6665H0V17.8007ZM100.218 47.4588C99.8185 47.4588 99.5192 47.1492 99.5192 46.749C99.5192 46.3489 99.8185 46.0393 100.218 46.0393C100.622 46.0393 100.916 46.3489 100.916 46.749C100.916 47.1492 100.622 47.4588 100.218 47.4588ZM102.137 45.5915H103.183C103.197 46.1584 103.61 46.5394 104.219 46.5394C104.898 46.5394 105.283 46.1298 105.283 45.3628V40.5041H106.347V45.3676C106.347 46.749 105.549 47.5445 104.228 47.5445C102.988 47.5445 102.137 46.7728 102.137 45.5915ZM107.74 45.5296H108.795C108.885 46.1822 109.522 46.5966 110.439 46.5966C111.294 46.5966 111.921 46.1536 111.921 45.5439C111.921 45.0199 111.522 44.7055 110.615 44.4911L109.731 44.2768C108.491 43.9862 107.925 43.386 107.925 42.3761C107.925 41.1519 108.923 40.3374 110.42 40.3374C111.812 40.3374 112.829 41.1519 112.891 42.3094H111.855C111.755 41.6759 111.204 41.2805 110.406 41.2805C109.564 41.2805 109.004 41.6854 109.004 42.3047C109.004 42.7953 109.365 43.0764 110.258 43.286L111.014 43.4717C112.42 43.8004 113 44.372 113 45.4057C113 46.7204 111.983 47.5445 110.358 47.5445C108.837 47.5445 107.816 46.7586 107.74 45.5296Z" fill="white"/>
</svg>
