<svg width="1920" height="637" viewBox="0 0 1920 637" fill="none" xmlns="http://www.w3.org/2000/svg">
<path d="M0 97.2913L80 83.0966C160 69.4325 320 40.2471 480 19.4194C640 -2.20434 800 -15.4704 960 33.6141C1120 82.6986 1280 196.787 1440 203.42C1600 210.053 1760 111.884 1840 61.8708L1920 12.3883V352H1840C1760 352 1600 352 1440 352C1280 352 1120 352 960 352C800 352 640 352 480 352C320 352 160 352 80 352H0V97.2913Z" fill="#032571"/>
<path d="M1920 637L1840 615.7C1760 594 1600 552 1440 551.7C1280 552 1120 594 960 589C800 584 640 530 480 530.3C320 530 160 584 80 610.3L0 637L2.51777e-05 349L80 349C160 349 320 349 480 349C640 349 800 349 960 349C1120 349 1280 349 1440 349C1600 349 1760 349 1840 349L1920 349L1920 637Z" fill="#032571"/>
</svg>
