<svg width="69" height="69" viewBox="0 0 69 69" fill="none" xmlns="http://www.w3.org/2000/svg">
<path d="M4.90382 34.498C4.90382 46.2125 11.7116 56.3361 21.5835 61.1335L7.46611 22.4535C5.77375 26.2433 4.90062 30.3476 4.90382 34.498ZM54.4783 33.0046C54.4783 29.347 53.1644 26.8139 52.0376 24.8424C50.5374 22.4045 49.1312 20.3401 49.1312 17.9022C49.1312 15.1817 51.1946 12.6493 54.101 12.6493C54.2322 12.6493 54.3566 12.6656 54.4844 12.6729C49.2191 7.84904 42.204 4.90381 34.4991 4.90381C24.1599 4.90381 15.0634 10.2086 9.77161 18.2435C10.466 18.2643 11.1203 18.279 11.6762 18.279C14.7717 18.279 19.5635 17.9034 19.5635 17.9034C21.1589 17.8093 21.347 20.1525 19.7533 20.3412C19.7533 20.3412 18.15 20.5299 16.366 20.6233L27.1434 52.6801L33.6201 33.2557L29.0091 20.6222C27.4154 20.5287 25.9056 20.3401 25.9056 20.3401C24.3108 20.2466 24.4977 17.8082 26.0926 17.9022C26.0926 17.9022 30.9801 18.2779 33.8881 18.2779C36.9832 18.2779 41.7755 17.9022 41.7755 17.9022C43.372 17.8082 43.5595 20.1514 41.9653 20.3401C41.9653 20.3401 40.3586 20.5287 38.578 20.6222L49.2731 52.4363L52.2251 42.5718C53.5046 38.4783 54.4783 35.5381 54.4783 33.0046Z" fill="white"/>
<path d="M35.0184 37.0868L26.1388 62.8893C28.8536 63.6889 31.6691 64.0949 34.4992 64.095C37.9456 64.095 41.2507 63.4992 44.3271 62.4174C44.245 62.288 44.1746 62.1515 44.1165 62.0097L35.0184 37.0868ZM60.4679 20.299C60.5951 21.2416 60.6672 22.2536 60.6672 23.3422C60.6672 26.3454 60.1063 29.7214 58.4169 33.9427L49.3768 60.0798C58.1753 54.949 64.0934 45.4167 64.0934 34.4986C64.0939 29.3531 62.7796 24.5146 60.4679 20.299Z" fill="white"/>
<path d="M34.4992 0C15.4768 0 0 15.4757 0 34.498C0 53.5226 15.4768 68.9978 34.4992 68.9978C53.5209 68.9978 69 53.5226 69 34.498C68.9994 15.4757 53.5209 0 34.4992 0ZM34.4992 67.4165C16.3491 67.4165 1.58186 52.6492 1.58186 34.498C1.58186 16.348 16.3486 1.58186 34.4992 1.58186C52.6486 1.58186 67.4148 16.348 67.4148 34.498C67.4148 52.6492 52.6486 67.4165 34.4992 67.4165Z" fill="white"/>
</svg>
