<svg width="193" height="192" viewBox="0 0 193 192" fill="none" xmlns="http://www.w3.org/2000/svg">
<path d="M13.6459 95.9977C13.6459 128.596 32.59 156.766 60.0604 170.116L20.776 62.4815C16.0667 73.0272 13.637 84.4483 13.6459 95.9977ZM151.597 91.8419C151.597 81.6638 147.941 74.6152 144.805 69.129C140.63 62.3452 136.718 56.6004 136.718 49.8166C136.718 42.2462 142.459 35.1992 150.547 35.1992C150.912 35.1992 151.258 35.2446 151.614 35.265C136.962 21.8416 117.441 13.6459 96.0008 13.6459C67.2297 13.6459 41.9171 28.4075 27.1915 50.7663C29.1237 50.8242 30.9446 50.865 32.4913 50.865C41.1054 50.865 54.4394 49.8198 54.4394 49.8198C58.8789 49.5581 59.4023 56.0786 54.9675 56.6035C54.9675 56.6035 50.5061 57.1285 45.5417 57.3886L75.5319 146.593L93.5546 92.5408L80.7236 57.3855C76.2888 57.1254 72.0876 56.6004 72.0876 56.6004C67.6497 56.3403 68.1699 49.5549 72.6078 49.8166C72.6078 49.8166 86.2083 50.8619 94.3005 50.8619C102.913 50.8619 116.249 49.8166 116.249 49.8166C120.691 49.5549 121.213 56.0754 116.777 56.6004C116.777 56.6004 112.306 57.1254 107.351 57.3855L137.112 145.915L145.327 118.465C148.887 107.074 151.597 98.892 151.597 91.8419Z" fill="white"/>
<path d="M97.4456 103.201L72.7363 175.002C80.2908 177.227 88.1254 178.357 96.0008 178.357C105.591 178.357 114.788 176.699 123.349 173.689C123.121 173.329 122.924 172.949 122.763 172.554L97.4456 103.201ZM168.264 56.486C168.618 59.1092 168.819 61.9252 168.819 64.9543C168.819 73.3114 167.258 82.7059 162.557 94.4525L137.401 167.184C161.884 152.907 178.353 126.381 178.353 95.9992C178.354 81.6811 174.697 68.217 168.264 56.486Z" fill="white"/>
<path d="M96.0008 0C43.0673 0 0 43.0642 0 95.9977C0 148.937 43.0673 192 96.0008 192C148.933 192 192.006 148.937 192.006 95.9977C192.005 43.0642 148.933 0 96.0008 0ZM96.0008 187.6C45.4947 187.6 4.40185 146.507 4.40185 95.9977C4.40185 45.4916 45.4931 4.40185 96.0008 4.40185C146.505 4.40185 187.595 45.4916 187.595 95.9977C187.595 146.507 146.505 187.6 96.0008 187.6Z" fill="white"/>
</svg>
