<svg width="217" height="259" viewBox="0 0 217 259" fill="none" xmlns="http://www.w3.org/2000/svg">
<path d="M23.1429 99.4942C23.1429 133.279 42.777 162.476 71.2481 176.312L30.5327 64.7573C25.6519 75.687 23.1337 87.5241 23.1429 99.4942ZM166.118 95.187C166.118 84.6383 162.329 77.3329 159.079 71.6468C154.753 64.616 150.697 58.6619 150.697 51.631C150.697 43.7849 156.648 36.4811 165.03 36.4811C165.409 36.4811 165.768 36.5282 166.136 36.5493C150.951 22.637 130.719 14.1428 108.498 14.1428C78.6785 14.1428 52.4439 29.4421 37.1819 52.6153C39.1845 52.6754 41.0717 52.7176 42.6747 52.7176C51.6026 52.7176 65.4223 51.6343 65.4223 51.6343C70.0235 51.3631 70.5659 58.1211 65.9696 58.6651C65.9696 58.6651 61.3457 59.2092 56.2005 59.4788L87.2831 151.933L105.962 95.9114L92.6639 59.4756C88.0676 59.206 83.7133 58.6619 83.7133 58.6619C79.1137 58.3923 79.6529 51.3598 84.2525 51.631C84.2525 51.631 98.3483 52.7143 106.735 52.7143C115.662 52.7143 129.483 51.631 129.483 51.631C134.087 51.3598 134.628 58.1178 130.03 58.6619C130.03 58.6619 125.397 59.206 120.261 59.4756L151.107 151.229L159.62 122.779C163.31 110.974 166.118 102.494 166.118 95.187Z" fill="white"/>
<path d="M109.995 106.96L84.3858 181.376C92.2155 183.682 100.335 184.853 108.498 184.854C118.437 184.854 127.969 183.135 136.842 180.015C136.605 179.642 136.402 179.249 136.235 178.84L109.995 106.96ZM183.393 58.5433C183.76 61.2621 183.968 64.1807 183.968 67.3201C183.968 75.9816 182.35 85.7183 177.478 97.8928L151.406 173.274C176.781 158.476 193.849 130.984 193.849 99.4958C193.851 84.6561 190.06 70.7016 183.393 58.5433Z" fill="white"/>
<path d="M108.498 0C53.636 0 9 44.6328 9 99.4943C9 154.362 53.636 198.994 108.498 198.994C163.357 198.994 208 154.362 208 99.4943C207.998 44.6328 163.357 0 108.498 0ZM108.498 194.433C56.1518 194.433 13.5622 151.843 13.5622 99.4943C13.5622 47.1486 56.1502 4.56219 108.498 4.56219C160.842 4.56219 203.428 47.1486 203.428 99.4943C203.428 151.843 160.842 194.433 108.498 194.433Z" fill="white"/>
<path d="M20.52 228.94H6.768V236.608H17.496V239.308H6.768V250H3.888V226.24H20.52V228.94ZM37.7407 226.24C40.1647 226.24 42.1087 226.864 43.5727 228.112C45.0367 229.36 45.7687 231.052 45.7687 233.188C45.7687 234.892 45.2887 236.296 44.3287 237.4C43.3687 238.504 42.0727 239.26 40.4407 239.668L47.2087 250H43.7887L37.3087 240.136H31.6207V250H28.7407V226.24H37.7407ZM37.7047 237.436C41.0647 237.436 42.7447 236.02 42.7447 233.188C42.7447 230.356 41.0647 228.94 37.7047 228.94H31.6207V237.436H37.7047ZM64.9271 225.88C67.1831 225.88 69.1271 226.384 70.7591 227.392C72.4151 228.376 73.6871 229.78 74.5751 231.604C75.4871 233.428 75.9431 235.6 75.9431 238.12C75.9431 240.64 75.4871 242.812 74.5751 244.636C73.6871 246.46 72.4151 247.876 70.7591 248.884C69.1271 249.868 67.1831 250.36 64.9271 250.36C62.6711 250.36 60.7151 249.868 59.0591 248.884C57.4271 247.876 56.1551 246.46 55.2431 244.636C54.3551 242.812 53.9111 240.64 53.9111 238.12C53.9111 235.6 54.3551 233.428 55.2431 231.604C56.1551 229.78 57.4271 228.376 59.0591 227.392C60.7151 226.384 62.6711 225.88 64.9271 225.88ZM64.9271 228.58C62.4551 228.58 60.4991 229.42 59.0591 231.1C57.6431 232.78 56.9351 235.12 56.9351 238.12C56.9351 241.096 57.6431 243.436 59.0591 245.14C60.4991 246.82 62.4551 247.66 64.9271 247.66C67.3991 247.66 69.3431 246.82 70.7591 245.14C72.1991 243.436 72.9191 241.096 72.9191 238.12C72.9191 235.12 72.1991 232.78 70.7591 231.1C69.3431 229.42 67.3991 228.58 64.9271 228.58ZM103.809 226.24V250H100.245L90.3088 234.088L87.7888 229.624H87.7528L87.8968 233.224V250H85.1608V226.24H88.7248L98.6248 242.08L101.181 246.652H101.217L101.073 243.016V226.24H103.809ZM131.182 226.24V228.94H122.902V250H120.022V228.94H111.742V226.24H131.182ZM139.085 250V226.24H155.753V228.94H141.965V236.608H152.693V239.308H141.965V247.3H156.293V250H139.085ZM183.57 226.24V250H180.006L170.07 234.088L167.55 229.624H167.514L167.658 233.224V250H164.922V226.24H168.486L178.386 242.08L180.942 246.652H180.978L180.834 243.016V226.24H183.57ZM201.907 226.24C205.627 226.24 208.543 227.272 210.655 229.336C212.791 231.376 213.859 234.304 213.859 238.12C213.859 241.936 212.791 244.876 210.655 246.94C208.543 248.98 205.627 250 201.907 250H194.239V226.24H201.907ZM202.195 247.3C204.907 247.3 207.019 246.496 208.531 244.888C210.067 243.256 210.835 241 210.835 238.12C210.835 235.24 210.067 232.996 208.531 231.388C207.019 229.756 204.907 228.94 202.195 228.94H197.119V247.3H202.195Z" fill="white"/>
<path d="M0 239.2H216.307V241H0V239.2Z" fill="white"/>
</svg>
